%FSAX24Y24*%
%MOIN*%
G70*
G01*
G75*
G04 Layer_Physical_Order=2*
G04 Layer_Color=16711680*
%ADD10R,0.0300X0.0300*%
%ADD11R,0.0300X0.0300*%
G04:AMPARAMS|DCode=12|XSize=79mil|YSize=44mil|CornerRadius=22mil|HoleSize=0mil|Usage=FLASHONLY|Rotation=90.000|XOffset=0mil|YOffset=0mil|HoleType=Round|Shape=RoundedRectangle|*
%AMROUNDEDRECTD12*
21,1,0.0790,0.0000,0,0,90.0*
21,1,0.0350,0.0440,0,0,90.0*
1,1,0.0440,0.0000,0.0175*
1,1,0.0440,0.0000,-0.0175*
1,1,0.0440,0.0000,-0.0175*
1,1,0.0440,0.0000,0.0175*
%
%ADD12ROUNDEDRECTD12*%
%ADD13R,0.0472X0.2400*%
%ADD14O,0.0709X0.0094*%
%ADD15O,0.0094X0.0709*%
%ADD16O,0.0472X0.1181*%
%ADD17R,0.2323X0.2559*%
%ADD18O,0.0827X0.0138*%
%ADD19C,0.0060*%
%ADD20C,0.0100*%
%ADD21C,0.0094*%
%ADD22C,0.0295*%
%ADD23C,0.0197*%
%ADD24C,0.0700*%
%ADD25R,0.0700X0.0700*%
%ADD26R,0.0700X0.0700*%
%ADD27C,0.0400*%
%ADD28O,0.0600X0.1000*%
%ADD29C,0.0600*%
%ADD30C,0.2500*%
%ADD31C,0.0276*%
%ADD32O,0.0866X0.0236*%
%ADD33R,0.0600X0.1000*%
%ADD34R,0.1618X0.1717*%
%ADD35R,0.0500X0.0120*%
G36*
X049665Y061598D02*
X049650Y061550D01*
X049633Y061546D01*
X049567Y061503D01*
X049524Y061437D01*
X049508Y061360D01*
X049524Y061283D01*
X049567Y061217D01*
X049536Y061170D01*
X049310Y061170D01*
X049310Y060050D01*
X050030Y060050D01*
X050030Y061167D01*
X050076Y061186D01*
X050468Y060794D01*
X050468Y058950D01*
X050468Y058950D01*
X050468Y058950D01*
X050475Y058915D01*
X050495Y058885D01*
X050682Y058698D01*
X050672Y058673D01*
X050658Y058652D01*
X047133Y058652D01*
X047108Y058688D01*
X047049Y058728D01*
X046980Y058742D01*
X046350Y058742D01*
X046280Y058728D01*
X046272Y058722D01*
X046227Y058745D01*
X046227Y058875D01*
X046272Y058898D01*
X046280Y058892D01*
X046350Y058878D01*
X046980Y058878D01*
X047049Y058892D01*
X047108Y058932D01*
X047148Y058990D01*
X047161Y059060D01*
X047148Y059129D01*
X047108Y059188D01*
X047049Y059228D01*
X046980Y059242D01*
X046428Y059242D01*
X046409Y059288D01*
X047029Y059908D01*
X048641Y059908D01*
X048676Y059915D01*
X048706Y059935D01*
X048777Y060006D01*
X048797Y060036D01*
X048798Y060041D01*
X048804Y060071D01*
X048804Y061781D01*
X048797Y061816D01*
X048777Y061846D01*
X048220Y062402D01*
X048240Y062448D01*
X048814Y062448D01*
X049665Y061598D01*
X049665Y061598D02*
G37*
G36*
X052115Y059351D02*
X052118Y059348D01*
X052203Y059282D01*
X052303Y059241D01*
X052318Y059239D01*
X052318Y058758D01*
X052212Y058652D01*
X051424Y058652D01*
X051410Y058673D01*
X051400Y058698D01*
X052035Y059333D01*
X052055Y059363D01*
X052056Y059363D01*
X052115Y059351D01*
X052115Y059351D02*
G37*
G36*
X053132Y059944D02*
X053118Y059932D01*
X053052Y059847D01*
X053011Y059747D01*
X052996Y059640D01*
X053011Y059533D01*
X053052Y059433D01*
X053118Y059348D01*
X053203Y059282D01*
X053303Y059241D01*
X053410Y059226D01*
X053517Y059241D01*
X053617Y059282D01*
X053702Y059348D01*
X053715Y059364D01*
X053763Y059348D01*
X053763Y055542D01*
X053682Y055462D01*
X049901Y055462D01*
X049899Y055477D01*
X049858Y055577D01*
X049792Y055662D01*
X049707Y055728D01*
X049607Y055769D01*
X049500Y055784D01*
X049393Y055769D01*
X049293Y055728D01*
X049208Y055662D01*
X049189Y055638D01*
X049142Y055654D01*
X049142Y056890D01*
X049135Y056925D01*
X049115Y056955D01*
X047665Y058405D01*
X047642Y058420D01*
X047656Y058468D01*
X052250Y058468D01*
X052285Y058475D01*
X052315Y058495D01*
X052315Y058495D01*
X052315Y058495D01*
X052475Y058655D01*
X052495Y058685D01*
X052502Y058720D01*
X052502Y058720D01*
X052502Y058720D01*
X052502Y058720D01*
X052502Y059239D01*
X052517Y059241D01*
X052617Y059282D01*
X052702Y059348D01*
X052768Y059433D01*
X052809Y059533D01*
X052824Y059640D01*
X052809Y059747D01*
X052768Y059847D01*
X052702Y059932D01*
X052688Y059944D01*
X052704Y059991D01*
X053116Y059991D01*
X053132Y059944D01*
X053132Y059944D02*
G37*
G36*
X026537Y058966D02*
X026543Y058957D01*
X026533Y058932D01*
X022040Y058932D01*
X022040Y058998D01*
X026376Y058998D01*
X026537Y058966D01*
X026537Y058966D02*
G37*
G36*
X020538Y059832D02*
X020538Y058215D01*
X020538Y058215D01*
X020538Y058215D01*
X020545Y058180D01*
X020565Y058150D01*
X023126Y055589D01*
X023117Y055577D01*
X023076Y055477D01*
X023061Y055370D01*
X023076Y055263D01*
X023117Y055163D01*
X023183Y055078D01*
X023194Y055069D01*
X023178Y055022D01*
X022772Y055022D01*
X022756Y055069D01*
X022767Y055078D01*
X022833Y055163D01*
X022874Y055263D01*
X022889Y055370D01*
X022874Y055477D01*
X022833Y055577D01*
X022767Y055662D01*
X022682Y055728D01*
X022582Y055769D01*
X022475Y055784D01*
X022368Y055769D01*
X022268Y055728D01*
X022256Y055719D01*
X021402Y056573D01*
X021402Y056739D01*
X021395Y056774D01*
X021375Y056804D01*
X018824Y059355D01*
X018794Y059375D01*
X018759Y059382D01*
X016950Y059382D01*
X016950Y059448D01*
X018955Y059448D01*
X018955Y059448D01*
X018998Y059456D01*
X019034Y059481D01*
X019589Y060036D01*
X019601Y060053D01*
X019613Y060071D01*
X019613Y060072D01*
X019614Y060072D01*
X019618Y060093D01*
X019622Y060114D01*
X019627Y060500D01*
X019870Y060500D01*
X020538Y059832D01*
X020538Y059832D02*
G37*
G36*
X021448Y059612D02*
X021448Y059300D01*
X021189Y059300D01*
X020912Y059576D01*
X020912Y060083D01*
X020958Y060102D01*
X021448Y059612D01*
X021448Y059612D02*
G37*
G36*
X047920Y060092D02*
X046991Y060092D01*
X046956Y060085D01*
X046926Y060065D01*
X046071Y059209D01*
X046051Y059179D01*
X046044Y059144D01*
X046044Y058945D01*
X045995Y058935D01*
X045975Y058965D01*
X045815Y059125D01*
X045785Y059145D01*
X045750Y059152D01*
X045243Y059152D01*
X045218Y059188D01*
X045160Y059228D01*
X045090Y059242D01*
X044460Y059242D01*
X044391Y059228D01*
X044336Y059191D01*
X044295Y059213D01*
X044292Y059215D01*
X044292Y060397D01*
X044413Y060518D01*
X047920Y060518D01*
X047920Y060092D01*
X047920Y060092D02*
G37*
G36*
X048420Y057060D02*
X048408Y057000D01*
X048424Y056923D01*
X048467Y056857D01*
X048533Y056814D01*
X048610Y056798D01*
X048687Y056814D01*
X048753Y056857D01*
X048796Y056923D01*
X048801Y056947D01*
X048849Y056961D01*
X048958Y056852D01*
X048958Y055413D01*
X048908Y055409D01*
X048899Y055477D01*
X048858Y055577D01*
X048792Y055662D01*
X048707Y055728D01*
X048607Y055769D01*
X048500Y055784D01*
X048393Y055769D01*
X048293Y055728D01*
X048281Y055719D01*
X046791Y057209D01*
X046810Y057255D01*
X047067Y057255D01*
X047102Y057262D01*
X047132Y057282D01*
X047132Y057282D01*
X047132Y057282D01*
X047259Y057409D01*
X047279Y057439D01*
X047286Y057474D01*
X047286Y057474D01*
X047286Y057474D01*
X047286Y057474D01*
X047286Y057644D01*
X047280Y057673D01*
X047279Y057679D01*
X047259Y057709D01*
X047103Y057865D01*
X047093Y057872D01*
X047093Y057922D01*
X047108Y057932D01*
X047133Y057968D01*
X047512Y057968D01*
X048420Y057060D01*
X048420Y057060D02*
G37*
G36*
X007478Y060934D02*
X007478Y058610D01*
X007478Y058610D01*
X007486Y058567D01*
X007511Y058531D01*
X007631Y058411D01*
X007649Y058399D01*
X007667Y058387D01*
X007667Y058387D01*
X007667Y058386D01*
X007688Y058382D01*
X007710Y058378D01*
X007710Y058378D01*
X007710Y058378D01*
X007731Y058382D01*
X007753Y058386D01*
X007753Y058386D01*
X007753Y058386D01*
X007771Y058398D01*
X007789Y058410D01*
X010311Y060914D01*
X010361Y060909D01*
X010381Y060879D01*
X010649Y060611D01*
X010649Y060611D01*
X010685Y060586D01*
X010685Y060586D01*
X010685Y060586D01*
X010685Y060586D01*
X010685Y060586D01*
X010685Y060586D01*
X010728Y060578D01*
X010728Y060578D01*
X010957Y060578D01*
X010977Y060547D01*
X011043Y060504D01*
X011120Y060488D01*
X011156Y060495D01*
X013061Y058591D01*
X013061Y058591D01*
X013097Y058566D01*
X013097Y058566D01*
X013097Y058566D01*
X013097Y058566D01*
X013097Y058566D01*
X013097Y058566D01*
X013140Y058558D01*
X016250Y058558D01*
X016250Y058558D01*
X016293Y058566D01*
X016329Y058591D01*
X016539Y058801D01*
X016551Y058818D01*
X016563Y058835D01*
X016563Y058836D01*
X016564Y058837D01*
X016568Y058857D01*
X016572Y058878D01*
X016577Y059080D01*
X016850Y059080D01*
X016882Y059041D01*
X016868Y058975D01*
X016884Y058898D01*
X016927Y058832D01*
X016993Y058789D01*
X017070Y058773D01*
X017147Y058789D01*
X017213Y058832D01*
X017247Y058883D01*
X018610Y058883D01*
X020895Y056598D01*
X020881Y056550D01*
X020863Y056546D01*
X020797Y056503D01*
X020763Y056452D01*
X015332Y056452D01*
X015298Y056503D01*
X015232Y056546D01*
X015155Y056562D01*
X015078Y056546D01*
X015012Y056503D01*
X014969Y056437D01*
X014953Y056360D01*
X014969Y056283D01*
X015000Y056236D01*
X014976Y056192D01*
X014575Y056192D01*
X014502Y056265D01*
X014472Y056285D01*
X014437Y056292D01*
X005536Y056292D01*
X005195Y056633D01*
X005211Y056680D01*
X005243Y056684D01*
X005306Y056710D01*
X005361Y056752D01*
X005402Y056806D01*
X005428Y056870D01*
X005437Y056938D01*
X005428Y057005D01*
X005402Y057069D01*
X005361Y057123D01*
X005345Y057135D01*
X005370Y057178D01*
X005422Y057157D01*
X005490Y057148D01*
X005558Y057157D01*
X005610Y057178D01*
X005635Y057135D01*
X005620Y057123D01*
X005578Y057069D01*
X005552Y057005D01*
X005543Y056938D01*
X005552Y056870D01*
X005578Y056806D01*
X005620Y056752D01*
X005674Y056710D01*
X005737Y056684D01*
X005805Y056675D01*
X005873Y056684D01*
X005936Y056710D01*
X005990Y056752D01*
X006032Y056806D01*
X006058Y056870D01*
X006067Y056938D01*
X006058Y057005D01*
X006032Y057069D01*
X005990Y057123D01*
X005975Y057135D01*
X006000Y057178D01*
X006052Y057157D01*
X006120Y057148D01*
X006188Y057157D01*
X006251Y057183D01*
X006305Y057225D01*
X006347Y057279D01*
X006373Y057342D01*
X006382Y057410D01*
X006373Y057478D01*
X006347Y057541D01*
X006305Y057595D01*
X006251Y057637D01*
X006232Y057645D01*
X006232Y059754D01*
X007432Y060953D01*
X007478Y060934D01*
X007478Y060934D02*
G37*
G36*
X027088Y056989D02*
X027088Y056989D01*
X027088Y056989D01*
X027088Y056989D01*
X027088Y056989D01*
X027088Y056989D01*
X027088Y056989D01*
X027088Y056989D01*
X027118Y056969D01*
X027153Y056962D01*
X029124Y056962D01*
X029144Y056925D01*
X029118Y056882D01*
X027069Y056882D01*
X025983Y057967D01*
X026002Y058014D01*
X026063Y058014D01*
X027088Y056989D01*
X027088Y056989D02*
G37*
G36*
X021030Y059141D02*
X021030Y058880D01*
X021128Y058880D01*
X021128Y058815D01*
X021128Y058815D01*
X021136Y058772D01*
X021161Y058736D01*
X021306Y058591D01*
X021342Y058566D01*
X021385Y058558D01*
X021385Y058558D01*
X026434Y058558D01*
X027039Y057952D01*
X027076Y057928D01*
X027118Y057919D01*
X027118Y057919D01*
X029922Y057919D01*
X029922Y057919D01*
X029964Y057928D01*
X030001Y057952D01*
X030116Y058068D01*
X030195Y058068D01*
X030218Y058024D01*
X030184Y057972D01*
X030168Y057895D01*
X030180Y057835D01*
X029491Y057145D01*
X029272Y057145D01*
X029248Y057189D01*
X029259Y057205D01*
X029274Y057282D01*
X029259Y057359D01*
X029215Y057425D01*
X029150Y057469D01*
X029072Y057484D01*
X028995Y057469D01*
X028930Y057425D01*
X028896Y057374D01*
X027226Y057374D01*
X027103Y057497D01*
X027122Y057543D01*
X028421Y057543D01*
X028455Y057492D01*
X028520Y057449D01*
X028597Y057433D01*
X028674Y057449D01*
X028740Y057492D01*
X028784Y057558D01*
X028799Y057635D01*
X028784Y057712D01*
X028740Y057778D01*
X028674Y057821D01*
X028597Y057837D01*
X028520Y057821D01*
X028455Y057778D01*
X028421Y057727D01*
X027141Y057727D01*
X026454Y058414D01*
X026424Y058434D01*
X026389Y058441D01*
X025039Y058441D01*
X025004Y058434D01*
X024974Y058414D01*
X023855Y057295D01*
X023835Y057266D01*
X023828Y057230D01*
X023828Y055661D01*
X023781Y055645D01*
X023767Y055662D01*
X023682Y055728D01*
X023582Y055769D01*
X023475Y055784D01*
X023368Y055769D01*
X023268Y055728D01*
X023256Y055719D01*
X020722Y058253D01*
X020722Y059384D01*
X020768Y059403D01*
X021030Y059141D01*
X021030Y059141D02*
G37*
G36*
X022909Y060626D02*
X022909Y060626D01*
X022909Y060626D01*
X022909Y060626D01*
X022909Y060626D01*
X022909Y060626D01*
X022952Y060618D01*
X026368Y060618D01*
X026423Y060581D01*
X026500Y060566D01*
X026577Y060581D01*
X026632Y060618D01*
X026948Y060618D01*
X026948Y060250D01*
X026948Y060250D01*
X026956Y060207D01*
X026981Y060171D01*
X027110Y060041D01*
X027110Y059780D01*
X027178Y059780D01*
X027208Y059750D01*
X027208Y059750D01*
X027208Y059750D01*
X027208Y059750D01*
X027208Y059750D01*
X027208Y059750D01*
X027216Y059707D01*
X027241Y059671D01*
X027391Y059521D01*
X027427Y059496D01*
X027470Y059488D01*
X027470Y059488D01*
X027514Y059488D01*
X028410Y058591D01*
X028410Y058392D01*
X027398Y058392D01*
X026635Y059155D01*
X026605Y059175D01*
X026570Y059182D01*
X022040Y059182D01*
X022040Y059340D01*
X021882Y059340D01*
X021882Y060180D01*
X021875Y060215D01*
X021855Y060245D01*
X021596Y060504D01*
X021615Y060550D01*
X021970Y060550D01*
X021970Y060648D01*
X022877Y060648D01*
X022909Y060626D01*
X022909Y060626D02*
G37*
G36*
X045628Y058337D02*
X045628Y057715D01*
X045635Y057680D01*
X045655Y057650D01*
X045810Y057495D01*
X045810Y057495D01*
X045810Y057495D01*
X045810Y057495D01*
X045810Y057495D01*
X045823Y057486D01*
X045809Y057439D01*
X045276Y057439D01*
X045253Y057483D01*
X045258Y057490D01*
X045272Y057560D01*
X045258Y057629D01*
X045218Y057688D01*
X045160Y057728D01*
X045090Y057742D01*
X044460Y057742D01*
X044391Y057728D01*
X044332Y057688D01*
X044307Y057652D01*
X036979Y057652D01*
X036404Y058227D01*
X036423Y058273D01*
X039668Y058273D01*
X039961Y057981D01*
X039997Y057956D01*
X040040Y057948D01*
X040040Y057948D01*
X044321Y057948D01*
X044332Y057932D01*
X044391Y057892D01*
X044460Y057878D01*
X045090Y057878D01*
X045160Y057892D01*
X045218Y057932D01*
X045229Y057948D01*
X045320Y057948D01*
X045320Y057948D01*
X045363Y057956D01*
X045399Y057981D01*
X045409Y057991D01*
X045409Y057991D01*
X045434Y058027D01*
X045442Y058070D01*
X045442Y058070D01*
X045442Y058117D01*
X045473Y058137D01*
X045516Y058203D01*
X045532Y058280D01*
X045516Y058357D01*
X045473Y058422D01*
X045512Y058453D01*
X045628Y058337D01*
X045628Y058337D02*
G37*
G36*
X034697Y057980D02*
X034684Y057960D01*
X034668Y057883D01*
X034684Y057806D01*
X034727Y057740D01*
X034793Y057696D01*
X034858Y057683D01*
X034873Y057636D01*
X034802Y057565D01*
X034742Y057577D01*
X034665Y057561D01*
X034600Y057518D01*
X034556Y057452D01*
X034541Y057375D01*
X034556Y057298D01*
X034600Y057232D01*
X034665Y057189D01*
X034742Y057173D01*
X034819Y057189D01*
X034885Y057232D01*
X034929Y057298D01*
X034944Y057375D01*
X034932Y057435D01*
X034981Y057484D01*
X035029Y057470D01*
X035034Y057448D01*
X035077Y057382D01*
X035143Y057339D01*
X035220Y057323D01*
X035220Y057323D01*
X035214Y057287D01*
X035214Y057287D01*
X035214Y057287D01*
X035198Y057210D01*
X035214Y057133D01*
X035225Y057116D01*
X035202Y057071D01*
X031896Y057071D01*
X031862Y057122D01*
X031797Y057166D01*
X031720Y057181D01*
X031643Y057166D01*
X031577Y057122D01*
X031533Y057057D01*
X031518Y056980D01*
X031533Y056903D01*
X031577Y056837D01*
X031583Y056833D01*
X031569Y056785D01*
X029631Y056785D01*
X029595Y056778D01*
X029566Y056758D01*
X029539Y056732D01*
X029495Y056755D01*
X029502Y056790D01*
X029486Y056867D01*
X029453Y056918D01*
X029476Y056962D01*
X029529Y056962D01*
X029564Y056969D01*
X029593Y056989D01*
X030310Y057705D01*
X030370Y057693D01*
X030447Y057709D01*
X030451Y057711D01*
X030497Y057692D01*
X030506Y057643D01*
X030550Y057577D01*
X030616Y057534D01*
X030693Y057518D01*
X030770Y057534D01*
X030835Y057577D01*
X030869Y057628D01*
X031920Y057628D01*
X031955Y057635D01*
X031985Y057655D01*
X032354Y058024D01*
X034674Y058024D01*
X034697Y057980D01*
X034697Y057980D02*
G37*
G36*
X050798Y061063D02*
X050798Y060959D01*
X050752Y060940D01*
X049020Y062672D01*
X049039Y062718D01*
X049143Y062718D01*
X050798Y061063D01*
X050798Y061063D02*
G37*
G36*
X022958Y062012D02*
X022958Y061020D01*
X022958Y061020D01*
X022958Y061020D01*
X022965Y060985D01*
X022985Y060955D01*
X023052Y060888D01*
X023040Y060860D01*
X022992Y060845D01*
X022965Y060864D01*
X022922Y060872D01*
X022922Y060872D01*
X021970Y060872D01*
X021970Y060970D01*
X021782Y060970D01*
X021782Y062790D01*
X021880Y062790D01*
X021880Y063025D01*
X021926Y063044D01*
X022958Y062012D01*
X022958Y062012D02*
G37*
G36*
X027438Y060790D02*
X027370Y060790D01*
X027370Y060540D01*
X027270Y060540D01*
X027270Y060790D01*
X027172Y060790D01*
X027172Y061884D01*
X027239Y061950D01*
X027438Y061950D01*
X027438Y060790D01*
X027438Y060790D02*
G37*
G36*
X006678Y062863D02*
X006946Y062863D01*
X006946Y062500D01*
X006946Y062500D01*
X006946Y062500D01*
X006953Y062465D01*
X006973Y062435D01*
X007748Y061660D01*
X007748Y061480D01*
X007539Y061480D01*
X005785Y063234D01*
X005800Y063270D01*
X005800Y063270D01*
X005800Y063270D01*
X005800Y063690D01*
X005445Y063690D01*
X005426Y063736D01*
X005618Y063928D01*
X006678Y063928D01*
X006678Y062863D01*
X006678Y062863D02*
G37*
G36*
X014743Y062408D02*
X014727Y062387D01*
X014682Y062277D01*
X014673Y062210D01*
X015120Y062210D01*
X015120Y062160D01*
X015170Y062160D01*
X015170Y061713D01*
X015237Y061722D01*
X015347Y061767D01*
X015441Y061839D01*
X015513Y061933D01*
X015558Y062043D01*
X015562Y062068D01*
X017652Y062068D01*
X017674Y062027D01*
X017658Y061950D01*
X017665Y061914D01*
X017591Y061839D01*
X017566Y061803D01*
X017558Y061760D01*
X017558Y061760D01*
X017558Y061070D01*
X017558Y061070D01*
X017566Y061027D01*
X017591Y060991D01*
X017733Y060848D01*
X017714Y060802D01*
X015608Y060802D01*
X015469Y060941D01*
X015478Y060953D01*
X015519Y061053D01*
X015534Y061160D01*
X015519Y061267D01*
X015478Y061367D01*
X015412Y061452D01*
X015327Y061518D01*
X015227Y061559D01*
X015120Y061574D01*
X015013Y061559D01*
X014913Y061518D01*
X014828Y061452D01*
X014762Y061367D01*
X014721Y061267D01*
X014706Y061160D01*
X014721Y061053D01*
X014762Y060953D01*
X014828Y060868D01*
X014913Y060802D01*
X015013Y060761D01*
X015120Y060746D01*
X015227Y060761D01*
X015327Y060802D01*
X015339Y060811D01*
X015505Y060645D01*
X015505Y060645D01*
X015505Y060645D01*
X015505Y060645D01*
X015505Y060645D01*
X015505Y060645D01*
X015535Y060625D01*
X015570Y060618D01*
X019030Y060618D01*
X019030Y060500D01*
X019367Y060500D01*
X019402Y060464D01*
X019398Y060162D01*
X018909Y059672D01*
X016475Y059672D01*
X016455Y059668D01*
X016434Y059665D01*
X016433Y059664D01*
X016432Y059664D01*
X016415Y059652D01*
X016397Y059641D01*
X016397Y059640D01*
X016396Y059639D01*
X016384Y059622D01*
X016372Y059605D01*
X016372Y059604D01*
X016371Y059603D01*
X016367Y059583D01*
X016363Y059562D01*
X016361Y059500D01*
X015980Y059500D01*
X015980Y059495D01*
X015934Y059476D01*
X015469Y059941D01*
X015478Y059953D01*
X015519Y060053D01*
X015534Y060160D01*
X015519Y060267D01*
X015478Y060367D01*
X015412Y060452D01*
X015327Y060518D01*
X015227Y060559D01*
X015120Y060574D01*
X015013Y060559D01*
X014913Y060518D01*
X014828Y060452D01*
X014762Y060367D01*
X014721Y060267D01*
X014706Y060160D01*
X014721Y060053D01*
X014762Y059953D01*
X014828Y059868D01*
X014913Y059802D01*
X015013Y059761D01*
X015120Y059746D01*
X015227Y059761D01*
X015327Y059802D01*
X015339Y059811D01*
X015925Y059225D01*
X015925Y059225D01*
X015925Y059225D01*
X015925Y059225D01*
X015925Y059225D01*
X015925Y059225D01*
X015955Y059205D01*
X015980Y059200D01*
X015980Y059080D01*
X016316Y059080D01*
X016351Y059044D01*
X016349Y058927D01*
X016204Y058782D01*
X015379Y058782D01*
X015363Y058829D01*
X015412Y058868D01*
X015478Y058953D01*
X015519Y059053D01*
X015534Y059160D01*
X015519Y059267D01*
X015478Y059367D01*
X015412Y059452D01*
X015327Y059518D01*
X015227Y059559D01*
X015120Y059574D01*
X015013Y059559D01*
X014913Y059518D01*
X014828Y059452D01*
X014762Y059367D01*
X014721Y059267D01*
X014706Y059160D01*
X014721Y059053D01*
X014762Y058953D01*
X014828Y058868D01*
X014877Y058829D01*
X014861Y058782D01*
X013186Y058782D01*
X011315Y060654D01*
X011322Y060690D01*
X011313Y060735D01*
X012369Y061792D01*
X012394Y061828D01*
X012402Y061871D01*
X012402Y061871D01*
X012402Y062415D01*
X012914Y062927D01*
X012960Y062907D01*
X012960Y062800D01*
X012855Y062695D01*
X012835Y062665D01*
X012828Y062630D01*
X012828Y062145D01*
X012828Y059660D01*
X012828Y059660D01*
X012828Y059660D01*
X012835Y059625D01*
X012855Y059595D01*
X013090Y059360D01*
X013090Y059070D01*
X013510Y059070D01*
X013510Y059490D01*
X013220Y059490D01*
X013176Y059534D01*
X013195Y059580D01*
X013250Y059580D01*
X013250Y059830D01*
X013300Y059830D01*
X013300Y059880D01*
X013550Y059880D01*
X013550Y060080D01*
X013392Y060080D01*
X013392Y060302D01*
X014872Y061783D01*
X014893Y061767D01*
X015003Y061722D01*
X015070Y061713D01*
X015070Y062110D01*
X014673Y062110D01*
X014682Y062043D01*
X014727Y061933D01*
X014743Y061912D01*
X013235Y060405D01*
X013215Y060375D01*
X013208Y060340D01*
X013208Y060080D01*
X013050Y060080D01*
X013050Y060080D01*
X013047Y060080D01*
X013012Y060115D01*
X013012Y061997D01*
X013357Y061997D01*
X013392Y062004D01*
X013421Y062024D01*
X013421Y062024D01*
X013421Y062024D01*
X013650Y062252D01*
X013669Y062281D01*
X013676Y062316D01*
X013676Y062317D01*
X013676Y062317D01*
X013676Y062317D01*
X013676Y063127D01*
X013671Y063156D01*
X013669Y063162D01*
X013650Y063191D01*
X013494Y063347D01*
X013464Y063367D01*
X013429Y063374D01*
X012909Y063374D01*
X012880Y063368D01*
X012874Y063367D01*
X012844Y063347D01*
X011935Y062438D01*
X011915Y062408D01*
X011908Y062373D01*
X011908Y061818D01*
X011278Y061187D01*
X011234Y061211D01*
X011235Y061220D01*
X011235Y062863D01*
X011504Y062863D01*
X011504Y063928D01*
X013222Y063928D01*
X014743Y062408D01*
X014743Y062408D02*
G37*
G36*
X029862Y061574D02*
X029859Y061566D01*
X029811Y061554D01*
X028240Y063125D01*
X028210Y063145D01*
X028175Y063152D01*
X025240Y063152D01*
X025211Y063146D01*
X025205Y063145D01*
X025175Y063125D01*
X023350Y061300D01*
X023290Y061312D01*
X023213Y061296D01*
X023186Y061278D01*
X023142Y061302D01*
X023142Y062050D01*
X023135Y062085D01*
X023115Y062115D01*
X021715Y063515D01*
X021685Y063535D01*
X021667Y063538D01*
X021671Y063588D01*
X027848Y063588D01*
X029862Y061574D01*
X029862Y061574D02*
G37*
G36*
X008028Y062863D02*
X008296Y062863D01*
X008296Y061556D01*
X008220Y061480D01*
X007932Y061480D01*
X007932Y061698D01*
X007925Y061733D01*
X007905Y061763D01*
X007129Y062538D01*
X007129Y062863D01*
X007398Y062863D01*
X007398Y063928D01*
X008028Y063928D01*
X008028Y062863D01*
X008028Y062863D02*
G37*
G36*
X031218Y059889D02*
X031065Y059737D01*
X031045Y059707D01*
X031038Y059672D01*
X031038Y059507D01*
X030992Y059488D01*
X030945Y059535D01*
X030915Y059555D01*
X030880Y059562D01*
X030877Y059562D01*
X030843Y059613D01*
X030777Y059656D01*
X030700Y059672D01*
X030623Y059656D01*
X030557Y059613D01*
X030514Y059547D01*
X030498Y059470D01*
X030514Y059393D01*
X030553Y059335D01*
X030550Y059330D01*
X030550Y059330D01*
X030550Y059330D01*
X030550Y059232D01*
X030426Y059232D01*
X030228Y059430D01*
X030232Y059470D01*
X030276Y059535D01*
X030291Y059612D01*
X030284Y059648D01*
X030472Y059836D01*
X030473Y059836D01*
X030509Y059861D01*
X030534Y059897D01*
X030540Y059928D01*
X030912Y059928D01*
X030912Y059928D01*
X030951Y059936D01*
X031198Y059936D01*
X031218Y059889D01*
X031218Y059889D02*
G37*
G36*
X030049Y060811D02*
X030048Y060810D01*
X030064Y060733D01*
X030107Y060667D01*
X030173Y060624D01*
X030250Y060608D01*
X030279Y060614D01*
X030318Y060582D01*
X030318Y059999D01*
X030126Y059807D01*
X030090Y059814D01*
X030013Y059799D01*
X029995Y059787D01*
X029951Y059811D01*
X029951Y060781D01*
X030004Y060835D01*
X030049Y060811D01*
X030049Y060811D02*
G37*
G36*
X052628Y065537D02*
X052628Y065425D01*
X052581Y065364D01*
X052551Y065292D01*
X052541Y065214D01*
X052541Y064722D01*
X051780Y064722D01*
X051699Y064706D01*
X051630Y064660D01*
X051620Y064650D01*
X051574Y064581D01*
X051566Y064540D01*
X051560Y064540D01*
X051560Y064531D01*
X051534Y064526D01*
X051465Y064480D01*
X051260Y064275D01*
X051214Y064206D01*
X051198Y064125D01*
X051198Y064125D01*
X051198Y064125D01*
X051198Y064125D01*
X051198Y064125D01*
X051198Y059994D01*
X051118Y059932D01*
X051052Y059847D01*
X051031Y059796D01*
X050982Y059806D01*
X050982Y061101D01*
X050976Y061130D01*
X050975Y061136D01*
X050955Y061166D01*
X049361Y062760D01*
X049380Y062806D01*
X050030Y062806D01*
X050030Y063926D01*
X049762Y063926D01*
X049762Y065010D01*
X049755Y065045D01*
X049735Y065075D01*
X049520Y065290D01*
X049520Y065580D01*
X049520Y065580D01*
X049520Y065583D01*
X049555Y065618D01*
X052547Y065618D01*
X052628Y065537D01*
X052628Y065537D02*
G37*
G36*
X036684Y061222D02*
X036654Y061177D01*
X036638Y061100D01*
X036650Y061040D01*
X035252Y059642D01*
X033339Y059642D01*
X033320Y059688D01*
X033383Y059751D01*
X033403Y059781D01*
X033410Y059816D01*
X033410Y059816D01*
X033410Y059816D01*
X033410Y059816D01*
X033410Y060004D01*
X033403Y060039D01*
X033383Y060069D01*
X033249Y060203D01*
X033219Y060223D01*
X033184Y060230D01*
X033057Y060230D01*
X032681Y060606D01*
X032651Y060626D01*
X032616Y060633D01*
X031414Y060633D01*
X031414Y060634D01*
X031361Y060713D01*
X031320Y060740D01*
X031335Y060788D01*
X032980Y060788D01*
X032980Y060788D01*
X033023Y060796D01*
X033031Y060802D01*
X033052Y060816D01*
X033090Y060808D01*
X033167Y060824D01*
X033233Y060867D01*
X033276Y060933D01*
X033292Y061010D01*
X033289Y061024D01*
X033333Y061047D01*
X033920Y060460D01*
X033908Y060400D01*
X033924Y060323D01*
X033967Y060257D01*
X034033Y060214D01*
X034110Y060198D01*
X034187Y060214D01*
X034253Y060257D01*
X034296Y060323D01*
X034312Y060400D01*
X034296Y060477D01*
X034253Y060543D01*
X034187Y060586D01*
X034110Y060602D01*
X034050Y060590D01*
X033420Y061220D01*
X033439Y061266D01*
X036660Y061266D01*
X036684Y061222D01*
X036684Y061222D02*
G37*
G36*
X048228Y061962D02*
X048228Y061210D01*
X047920Y061210D01*
X047920Y060702D01*
X044375Y060702D01*
X044346Y060696D01*
X044340Y060695D01*
X044310Y060675D01*
X044135Y060500D01*
X044115Y060470D01*
X044108Y060435D01*
X044108Y058570D01*
X044112Y058553D01*
X044115Y058536D01*
X044115Y058536D01*
X044115Y058535D01*
X044125Y058521D01*
X044134Y058506D01*
X044135Y058506D01*
X044135Y058505D01*
X044149Y058496D01*
X044163Y058486D01*
X044164Y058486D01*
X044165Y058485D01*
X044182Y058482D01*
X044198Y058478D01*
X044254Y058477D01*
X044255Y058475D01*
X044303Y058403D01*
X044375Y058355D01*
X044460Y058338D01*
X044725Y058338D01*
X044725Y058560D01*
X044725Y058782D01*
X044460Y058782D01*
X044375Y058765D01*
X044336Y058739D01*
X044292Y058763D01*
X044292Y058905D01*
X044295Y058907D01*
X044336Y058929D01*
X044391Y058892D01*
X044460Y058878D01*
X045090Y058878D01*
X045160Y058892D01*
X045218Y058932D01*
X045243Y058968D01*
X045712Y058968D01*
X045818Y058862D01*
X045818Y058472D01*
X045772Y058453D01*
X045600Y058625D01*
X045570Y058645D01*
X045535Y058652D01*
X045291Y058652D01*
X045247Y058717D01*
X045175Y058765D01*
X045090Y058782D01*
X044825Y058782D01*
X044825Y058560D01*
X044825Y058338D01*
X045090Y058338D01*
X045098Y058339D01*
X045120Y058317D01*
X045120Y058267D01*
X045094Y058241D01*
X045090Y058242D01*
X044460Y058242D01*
X044391Y058228D01*
X044332Y058188D01*
X044321Y058172D01*
X040086Y058172D01*
X039794Y058464D01*
X039758Y058489D01*
X039715Y058497D01*
X039715Y058497D01*
X031312Y058497D01*
X031293Y058543D01*
X031535Y058785D01*
X031555Y058815D01*
X031562Y058850D01*
X031562Y058850D01*
X031562Y058850D01*
X031562Y058850D01*
X031562Y059117D01*
X031623Y059157D01*
X031666Y059223D01*
X031682Y059300D01*
X031666Y059377D01*
X031623Y059443D01*
X031579Y059472D01*
X031579Y059522D01*
X031603Y059537D01*
X031617Y059558D01*
X031692Y059558D01*
X031765Y059485D01*
X031795Y059465D01*
X031801Y059464D01*
X031830Y059458D01*
X035290Y059458D01*
X035325Y059465D01*
X035355Y059485D01*
X035355Y059485D01*
X035355Y059485D01*
X036780Y060910D01*
X036840Y060898D01*
X036917Y060914D01*
X036983Y060957D01*
X037026Y061023D01*
X037042Y061100D01*
X037026Y061177D01*
X036996Y061222D01*
X037020Y061266D01*
X038489Y061266D01*
X041095Y058660D01*
X041083Y058600D01*
X041099Y058523D01*
X041142Y058457D01*
X041208Y058414D01*
X041285Y058398D01*
X041362Y058414D01*
X041428Y058457D01*
X041429Y058459D01*
X041479Y058459D01*
X041487Y058447D01*
X041553Y058403D01*
X041630Y058388D01*
X041707Y058403D01*
X041773Y058447D01*
X041816Y058512D01*
X041832Y058589D01*
X041816Y058666D01*
X041773Y058732D01*
X041707Y058776D01*
X041630Y058791D01*
X041570Y058779D01*
X038885Y061464D01*
X038904Y061510D01*
X042650Y061510D01*
X043540Y060620D01*
X043528Y060560D01*
X043544Y060483D01*
X043587Y060417D01*
X043653Y060374D01*
X043730Y060358D01*
X043807Y060374D01*
X043873Y060417D01*
X043916Y060483D01*
X043932Y060560D01*
X043916Y060637D01*
X043873Y060703D01*
X043807Y060746D01*
X043730Y060762D01*
X043670Y060750D01*
X042753Y061667D01*
X042723Y061687D01*
X042688Y061694D01*
X041994Y061694D01*
X041979Y061742D01*
X042033Y061777D01*
X042076Y061843D01*
X042092Y061920D01*
X042076Y061997D01*
X042058Y062024D01*
X042082Y062068D01*
X048122Y062068D01*
X048228Y061962D01*
X048228Y061962D02*
G37*
G36*
X031240Y060309D02*
X031283Y060317D01*
X031361Y060370D01*
X031414Y060448D01*
X031414Y060449D01*
X032578Y060449D01*
X032827Y060200D01*
X032804Y060156D01*
X032782Y060160D01*
X032782Y060160D01*
X031054Y060160D01*
X031054Y060294D01*
X031097Y060317D01*
X031140Y060309D01*
X031140Y060541D01*
X031240Y060541D01*
X031240Y060309D01*
X031240Y060309D02*
G37*
G36*
X020868Y060982D02*
X020868Y060316D01*
X020822Y060297D01*
X020137Y060982D01*
X020156Y061028D01*
X020822Y061028D01*
X020868Y060982D01*
X020868Y060982D02*
G37*
G36*
X035786Y056831D02*
X035767Y056785D01*
X031871Y056785D01*
X031856Y056833D01*
X031862Y056837D01*
X031896Y056888D01*
X035729Y056888D01*
X035786Y056831D01*
X035786Y056831D02*
G37*
G36*
X034143Y054813D02*
X034138Y054763D01*
X034077Y054723D01*
X034034Y054657D01*
X034018Y054580D01*
X034030Y054520D01*
X033972Y054462D01*
X031551Y054462D01*
X031549Y054477D01*
X031508Y054577D01*
X031442Y054662D01*
X031431Y054671D01*
X031447Y054718D01*
X033628Y054718D01*
X033662Y054667D01*
X033728Y054624D01*
X033805Y054608D01*
X033882Y054624D01*
X033948Y054667D01*
X033991Y054733D01*
X034007Y054810D01*
X033991Y054887D01*
X033979Y054906D01*
X034017Y054938D01*
X034143Y054813D01*
X034143Y054813D02*
G37*
G36*
X024348Y057286D02*
X024348Y054743D01*
X023930Y054325D01*
X023886Y054347D01*
X023889Y054370D01*
X023874Y054477D01*
X023833Y054577D01*
X023767Y054662D01*
X023762Y054667D01*
X023751Y054720D01*
X023751Y054726D01*
X023780Y054745D01*
X024255Y055220D01*
X024275Y055250D01*
X024282Y055285D01*
X024282Y055285D01*
X024282Y055285D01*
X024282Y055285D01*
X024282Y057268D01*
X024323Y057296D01*
X024348Y057286D01*
X024348Y057286D02*
G37*
G36*
X049151Y054589D02*
X049142Y054577D01*
X049101Y054477D01*
X049086Y054370D01*
X049101Y054263D01*
X049142Y054163D01*
X049208Y054078D01*
X049221Y054067D01*
X049205Y054020D01*
X048795Y054020D01*
X048779Y054067D01*
X048792Y054078D01*
X048858Y054163D01*
X048899Y054263D01*
X048914Y054370D01*
X048899Y054477D01*
X048858Y054577D01*
X048792Y054662D01*
X048707Y054728D01*
X048607Y054769D01*
X048500Y054784D01*
X048393Y054769D01*
X048293Y054728D01*
X048208Y054662D01*
X048142Y054577D01*
X048133Y054556D01*
X048084Y054546D01*
X047838Y054792D01*
X047857Y054838D01*
X048902Y054838D01*
X049151Y054589D01*
X049151Y054589D02*
G37*
G36*
X026882Y055681D02*
X026858Y055662D01*
X026792Y055577D01*
X026751Y055477D01*
X026736Y055370D01*
X026751Y055263D01*
X026792Y055163D01*
X026858Y055078D01*
X026943Y055012D01*
X027043Y054971D01*
X027150Y054956D01*
X027257Y054971D01*
X027357Y055012D01*
X027442Y055078D01*
X027451Y055089D01*
X027498Y055073D01*
X027498Y054667D01*
X027451Y054651D01*
X027442Y054662D01*
X027357Y054728D01*
X027257Y054769D01*
X027150Y054784D01*
X027043Y054769D01*
X026943Y054728D01*
X026858Y054662D01*
X026792Y054577D01*
X026751Y054477D01*
X026736Y054370D01*
X026751Y054263D01*
X026792Y054163D01*
X026801Y054151D01*
X026606Y053956D01*
X026560Y053975D01*
X026560Y054780D01*
X025870Y054780D01*
X025736Y054914D01*
X025755Y054960D01*
X026560Y054960D01*
X026560Y055728D01*
X026866Y055728D01*
X026882Y055681D01*
X026882Y055681D02*
G37*
G36*
X038476Y055589D02*
X038467Y055577D01*
X038426Y055477D01*
X038411Y055370D01*
X038426Y055263D01*
X038467Y055163D01*
X038533Y055078D01*
X038618Y055012D01*
X038651Y054998D01*
X038656Y054949D01*
X038635Y054935D01*
X038242Y054542D01*
X038193Y054552D01*
X038183Y054577D01*
X038117Y054662D01*
X038032Y054728D01*
X037932Y054769D01*
X037825Y054784D01*
X037718Y054769D01*
X037618Y054728D01*
X037533Y054662D01*
X037519Y054645D01*
X037472Y054661D01*
X037472Y054887D01*
X037606Y055021D01*
X037618Y055012D01*
X037718Y054971D01*
X037825Y054956D01*
X037932Y054971D01*
X038032Y055012D01*
X038117Y055078D01*
X038183Y055163D01*
X038224Y055263D01*
X038239Y055370D01*
X038224Y055477D01*
X038183Y055577D01*
X038117Y055662D01*
X038093Y055681D01*
X038109Y055728D01*
X038337Y055728D01*
X038476Y055589D01*
X038476Y055589D02*
G37*
G36*
X016076Y054858D02*
X016076Y054535D01*
X016002Y054462D01*
X015201Y054462D01*
X015199Y054477D01*
X015158Y054577D01*
X015092Y054662D01*
X015007Y054728D01*
X014907Y054769D01*
X014840Y054778D01*
X014843Y054828D01*
X015800Y054828D01*
X015835Y054835D01*
X015865Y054855D01*
X015865Y054855D01*
X015865Y054855D01*
X015875Y054865D01*
X015935Y054853D01*
X016012Y054869D01*
X016031Y054882D01*
X016076Y054858D01*
X016076Y054858D02*
G37*
G36*
X021767Y054792D02*
X021694Y054719D01*
X021682Y054728D01*
X021582Y054769D01*
X021475Y054784D01*
X021368Y054769D01*
X021268Y054728D01*
X021183Y054662D01*
X021117Y054577D01*
X021076Y054477D01*
X021061Y054370D01*
X021076Y054263D01*
X021117Y054163D01*
X021183Y054078D01*
X021268Y054012D01*
X021368Y053971D01*
X021475Y053956D01*
X021582Y053971D01*
X021682Y054012D01*
X021767Y054078D01*
X021833Y054163D01*
X021874Y054263D01*
X021889Y054370D01*
X021874Y054477D01*
X021833Y054577D01*
X021824Y054589D01*
X021953Y054718D01*
X022178Y054718D01*
X022194Y054671D01*
X022183Y054662D01*
X022117Y054577D01*
X022076Y054477D01*
X022061Y054370D01*
X022076Y054263D01*
X022117Y054163D01*
X022183Y054078D01*
X022268Y054012D01*
X022368Y053971D01*
X022475Y053956D01*
X022582Y053971D01*
X022682Y054012D01*
X022694Y054021D01*
X022767Y053948D01*
X022748Y053902D01*
X021073Y053902D01*
X020824Y054151D01*
X020833Y054163D01*
X020874Y054263D01*
X020889Y054370D01*
X020874Y054477D01*
X020833Y054577D01*
X020767Y054662D01*
X020682Y054728D01*
X020582Y054769D01*
X020475Y054784D01*
X020368Y054769D01*
X020268Y054728D01*
X020183Y054662D01*
X020117Y054577D01*
X020076Y054477D01*
X020061Y054370D01*
X020076Y054263D01*
X020117Y054163D01*
X020183Y054078D01*
X020268Y054012D01*
X020368Y053971D01*
X020475Y053956D01*
X020582Y053971D01*
X020682Y054012D01*
X020694Y054021D01*
X020887Y053828D01*
X020868Y053782D01*
X019568Y053782D01*
X019436Y053914D01*
X019458Y053959D01*
X019475Y053956D01*
X019582Y053971D01*
X019682Y054012D01*
X019767Y054078D01*
X019833Y054163D01*
X019874Y054263D01*
X019889Y054370D01*
X019874Y054477D01*
X019833Y054577D01*
X019824Y054589D01*
X020073Y054838D01*
X021748Y054838D01*
X021767Y054792D01*
X021767Y054792D02*
G37*
G36*
X011760Y054778D02*
X011693Y054769D01*
X011593Y054728D01*
X011508Y054662D01*
X011442Y054577D01*
X011401Y054477D01*
X011386Y054370D01*
X011401Y054263D01*
X011442Y054163D01*
X011508Y054078D01*
X011532Y054059D01*
X011516Y054012D01*
X011288Y054012D01*
X011149Y054151D01*
X011158Y054163D01*
X011199Y054263D01*
X011214Y054370D01*
X011199Y054477D01*
X011158Y054577D01*
X011092Y054662D01*
X011007Y054728D01*
X010907Y054769D01*
X010840Y054778D01*
X010843Y054828D01*
X011757Y054828D01*
X011760Y054778D01*
X011760Y054778D02*
G37*
G36*
X027486Y054125D02*
X027505Y054090D01*
X027505Y054090D01*
X027505Y054090D01*
X027505Y054090D01*
X027505Y054090D01*
X027505Y054090D01*
X027525Y054060D01*
X027846Y053739D01*
X027876Y053719D01*
X027911Y053712D01*
X031716Y053712D01*
X031751Y053719D01*
X031781Y053739D01*
X031781Y053739D01*
X031781Y053739D01*
X031980Y053938D01*
X032681Y053938D01*
X032705Y053894D01*
X032694Y053877D01*
X032678Y053800D01*
X032690Y053740D01*
X032612Y053662D01*
X026637Y053662D01*
X026618Y053708D01*
X026931Y054021D01*
X026943Y054012D01*
X027043Y053971D01*
X027150Y053956D01*
X027257Y053971D01*
X027357Y054012D01*
X027442Y054078D01*
X027479Y054125D01*
X027486Y054125D01*
X027486Y054125D02*
G37*
G36*
X025740Y054650D02*
X025740Y053960D01*
X026545Y053960D01*
X026564Y053914D01*
X026432Y053782D01*
X023882Y053782D01*
X023863Y053828D01*
X024665Y054630D01*
X024685Y054660D01*
X024686Y054666D01*
X024692Y054695D01*
X024692Y055633D01*
X024738Y055652D01*
X025740Y054650D01*
X025740Y054650D02*
G37*
G36*
X012760Y054778D02*
X012693Y054769D01*
X012593Y054728D01*
X012508Y054662D01*
X012442Y054577D01*
X012401Y054477D01*
X012386Y054370D01*
X012401Y054263D01*
X012442Y054163D01*
X012508Y054078D01*
X012532Y054059D01*
X012516Y054012D01*
X012084Y054012D01*
X012068Y054059D01*
X012092Y054078D01*
X012158Y054163D01*
X012199Y054263D01*
X012214Y054370D01*
X012199Y054477D01*
X012158Y054577D01*
X012092Y054662D01*
X012007Y054728D01*
X011907Y054769D01*
X011840Y054778D01*
X011843Y054828D01*
X012757Y054828D01*
X012760Y054778D01*
X012760Y054778D02*
G37*
G36*
X027858Y055078D02*
X027943Y055012D01*
X028043Y054971D01*
X028150Y054956D01*
X028257Y054971D01*
X028357Y055012D01*
X028369Y055021D01*
X028645Y054745D01*
X028675Y054725D01*
X028710Y054718D01*
X028853Y054718D01*
X028869Y054671D01*
X028858Y054662D01*
X028792Y054577D01*
X028751Y054477D01*
X028736Y054370D01*
X028751Y054263D01*
X028792Y054163D01*
X028858Y054078D01*
X028877Y054063D01*
X028861Y054015D01*
X028439Y054015D01*
X028423Y054063D01*
X028442Y054078D01*
X028508Y054163D01*
X028549Y054263D01*
X028564Y054370D01*
X028549Y054477D01*
X028508Y054577D01*
X028442Y054662D01*
X028357Y054728D01*
X028257Y054769D01*
X028150Y054784D01*
X028043Y054769D01*
X027943Y054728D01*
X027858Y054662D01*
X027849Y054651D01*
X027802Y054667D01*
X027802Y055073D01*
X027849Y055089D01*
X027858Y055078D01*
X027858Y055078D02*
G37*
G36*
X014760Y054778D02*
X014693Y054769D01*
X014593Y054728D01*
X014508Y054662D01*
X014442Y054577D01*
X014401Y054477D01*
X014386Y054370D01*
X014401Y054263D01*
X014442Y054163D01*
X014508Y054078D01*
X014532Y054059D01*
X014516Y054012D01*
X014084Y054012D01*
X014068Y054059D01*
X014092Y054078D01*
X014158Y054163D01*
X014199Y054263D01*
X014214Y054370D01*
X014199Y054477D01*
X014158Y054577D01*
X014092Y054662D01*
X014007Y054728D01*
X013907Y054769D01*
X013840Y054778D01*
X013843Y054828D01*
X014757Y054828D01*
X014760Y054778D01*
X014760Y054778D02*
G37*
G36*
X013760Y054778D02*
X013693Y054769D01*
X013593Y054728D01*
X013508Y054662D01*
X013442Y054577D01*
X013401Y054477D01*
X013386Y054370D01*
X013401Y054263D01*
X013442Y054163D01*
X013508Y054078D01*
X013532Y054059D01*
X013516Y054012D01*
X013084Y054012D01*
X013068Y054059D01*
X013092Y054078D01*
X013158Y054163D01*
X013199Y054263D01*
X013214Y054370D01*
X013199Y054477D01*
X013158Y054577D01*
X013092Y054662D01*
X013007Y054728D01*
X012907Y054769D01*
X012840Y054778D01*
X012843Y054828D01*
X013757Y054828D01*
X013760Y054778D01*
X013760Y054778D02*
G37*
G36*
X039870Y055825D02*
X039848Y055781D01*
X039825Y055784D01*
X039718Y055769D01*
X039618Y055728D01*
X039533Y055662D01*
X039467Y055577D01*
X039426Y055477D01*
X039411Y055370D01*
X039421Y055300D01*
X039395Y055295D01*
X039365Y055275D01*
X039223Y055133D01*
X039183Y055163D01*
X039224Y055263D01*
X039239Y055370D01*
X039224Y055477D01*
X039183Y055577D01*
X039117Y055662D01*
X039032Y055728D01*
X038932Y055769D01*
X038825Y055784D01*
X038718Y055769D01*
X038618Y055728D01*
X038606Y055719D01*
X038443Y055882D01*
X038450Y055901D01*
X038469Y055928D01*
X039767Y055928D01*
X039870Y055825D01*
X039870Y055825D02*
G37*
G36*
X034413Y055745D02*
X034415Y055744D01*
X034415Y054960D01*
X035235Y054960D01*
X035235Y055140D01*
X035281Y055159D01*
X035492Y054948D01*
X035473Y054902D01*
X034313Y054902D01*
X033725Y055490D01*
X033695Y055510D01*
X033660Y055517D01*
X033187Y055517D01*
X033153Y055568D01*
X033087Y055611D01*
X033010Y055627D01*
X032933Y055611D01*
X032867Y055568D01*
X032824Y055502D01*
X032808Y055425D01*
X032824Y055348D01*
X032867Y055282D01*
X032933Y055239D01*
X033010Y055223D01*
X033087Y055239D01*
X033153Y055282D01*
X033187Y055333D01*
X033622Y055333D01*
X033933Y055022D01*
X033901Y054984D01*
X033882Y054996D01*
X033805Y055012D01*
X033728Y054996D01*
X033662Y054953D01*
X033628Y054902D01*
X031757Y054902D01*
X031738Y054948D01*
X032678Y055888D01*
X033683Y055888D01*
X033717Y055837D01*
X033783Y055794D01*
X033860Y055778D01*
X033937Y055794D01*
X034003Y055837D01*
X034046Y055903D01*
X034062Y055980D01*
X034050Y056041D01*
X034094Y056064D01*
X034413Y055745D01*
X034413Y055745D02*
G37*
G36*
X036769Y055955D02*
X036799Y055935D01*
X036834Y055928D01*
X037551Y055928D01*
X037570Y055901D01*
X037577Y055882D01*
X037241Y055546D01*
X037192Y055556D01*
X037183Y055577D01*
X037117Y055662D01*
X037032Y055728D01*
X036932Y055769D01*
X036825Y055784D01*
X036718Y055769D01*
X036618Y055728D01*
X036606Y055719D01*
X036363Y055962D01*
X036382Y056008D01*
X036716Y056008D01*
X036769Y055955D01*
X036769Y055955D02*
G37*
G36*
X040862Y055826D02*
X040840Y055782D01*
X040825Y055784D01*
X040718Y055769D01*
X040618Y055728D01*
X040606Y055719D01*
X039998Y056327D01*
X039968Y056347D01*
X039933Y056354D01*
X037430Y056354D01*
X037406Y056398D01*
X037416Y056413D01*
X037432Y056490D01*
X037416Y056567D01*
X037404Y056586D01*
X037427Y056630D01*
X040058Y056630D01*
X040862Y055826D01*
X040862Y055826D02*
G37*
G36*
X021218Y056701D02*
X021218Y056600D01*
X021172Y056581D01*
X018713Y059040D01*
X018683Y059060D01*
X018648Y059067D01*
X017247Y059067D01*
X017213Y059118D01*
X017164Y059150D01*
X017178Y059198D01*
X018721Y059198D01*
X021218Y056701D01*
X021218Y056701D02*
G37*
G36*
X035334Y056434D02*
X035323Y056418D01*
X035318Y056389D01*
X035307Y056382D01*
X035271Y056367D01*
X035212Y056406D01*
X035135Y056422D01*
X035058Y056406D01*
X034992Y056363D01*
X034949Y056297D01*
X034933Y056220D01*
X034949Y056143D01*
X034979Y056098D01*
X034955Y056054D01*
X034804Y056054D01*
X034464Y056394D01*
X034434Y056414D01*
X034399Y056421D01*
X029793Y056421D01*
X029787Y056436D01*
X029815Y056478D01*
X035310Y056478D01*
X035334Y056434D01*
X035334Y056434D02*
G37*
G36*
X022126Y055589D02*
X022117Y055577D01*
X022076Y055477D01*
X022061Y055370D01*
X022076Y055263D01*
X022117Y055163D01*
X022183Y055078D01*
X022194Y055069D01*
X022178Y055022D01*
X021772Y055022D01*
X021756Y055069D01*
X021767Y055078D01*
X021833Y055163D01*
X021874Y055263D01*
X021889Y055370D01*
X021874Y055477D01*
X021833Y055577D01*
X021767Y055662D01*
X021682Y055728D01*
X021582Y055769D01*
X021475Y055784D01*
X021368Y055769D01*
X021268Y055728D01*
X021183Y055662D01*
X021117Y055577D01*
X021076Y055477D01*
X021061Y055370D01*
X021076Y055263D01*
X021117Y055163D01*
X021183Y055078D01*
X021194Y055069D01*
X021178Y055022D01*
X020772Y055022D01*
X020756Y055069D01*
X020767Y055078D01*
X020833Y055163D01*
X020874Y055263D01*
X020889Y055370D01*
X020874Y055477D01*
X020833Y055577D01*
X020767Y055662D01*
X020682Y055728D01*
X020582Y055769D01*
X020475Y055784D01*
X020368Y055769D01*
X020268Y055728D01*
X020183Y055662D01*
X020117Y055577D01*
X020076Y055477D01*
X020061Y055370D01*
X020076Y055263D01*
X020117Y055163D01*
X020183Y055078D01*
X020194Y055069D01*
X020178Y055022D01*
X020035Y055022D01*
X020000Y055015D01*
X019970Y054995D01*
X019694Y054719D01*
X019682Y054728D01*
X019582Y054769D01*
X019475Y054784D01*
X019368Y054769D01*
X019268Y054728D01*
X019183Y054662D01*
X019167Y054642D01*
X019120Y054658D01*
X019120Y055082D01*
X019167Y055098D01*
X019183Y055078D01*
X019268Y055012D01*
X019368Y054971D01*
X019475Y054956D01*
X019582Y054971D01*
X019682Y055012D01*
X019767Y055078D01*
X019833Y055163D01*
X019874Y055263D01*
X019889Y055370D01*
X019874Y055477D01*
X019833Y055577D01*
X019767Y055662D01*
X019682Y055728D01*
X019582Y055769D01*
X019475Y055784D01*
X019453Y055781D01*
X019431Y055826D01*
X019634Y056028D01*
X021030Y056028D01*
X021065Y056035D01*
X021095Y056055D01*
X021095Y056055D01*
X021095Y056055D01*
X021236Y056197D01*
X021256Y056226D01*
X021257Y056232D01*
X021263Y056261D01*
X021263Y056387D01*
X021309Y056406D01*
X022126Y055589D01*
X022126Y055589D02*
G37*
G36*
X032612Y056066D02*
X032611Y056066D01*
X032605Y056065D01*
X032575Y056045D01*
X031552Y055022D01*
X031447Y055022D01*
X031431Y055069D01*
X031442Y055078D01*
X031508Y055163D01*
X031549Y055263D01*
X031564Y055370D01*
X031549Y055477D01*
X031508Y055577D01*
X031442Y055662D01*
X031357Y055728D01*
X031257Y055769D01*
X031150Y055784D01*
X031043Y055769D01*
X030943Y055728D01*
X030931Y055719D01*
X030580Y056070D01*
X030599Y056116D01*
X032608Y056116D01*
X032612Y056066D01*
X032612Y056066D02*
G37*
G36*
X030801Y055589D02*
X030792Y055577D01*
X030751Y055477D01*
X030736Y055370D01*
X030751Y055263D01*
X030792Y055163D01*
X030858Y055078D01*
X030869Y055069D01*
X030853Y055022D01*
X030447Y055022D01*
X030431Y055069D01*
X030442Y055078D01*
X030508Y055163D01*
X030549Y055263D01*
X030564Y055370D01*
X030549Y055477D01*
X030508Y055577D01*
X030442Y055662D01*
X030357Y055728D01*
X030257Y055769D01*
X030150Y055784D01*
X030043Y055769D01*
X029943Y055728D01*
X029858Y055662D01*
X029792Y055577D01*
X029751Y055477D01*
X029736Y055370D01*
X029751Y055263D01*
X029792Y055163D01*
X029858Y055078D01*
X029869Y055069D01*
X029853Y055022D01*
X029628Y055022D01*
X029499Y055151D01*
X029508Y055163D01*
X029549Y055263D01*
X029564Y055370D01*
X029549Y055477D01*
X029508Y055577D01*
X029442Y055662D01*
X029357Y055728D01*
X029257Y055769D01*
X029150Y055784D01*
X029043Y055769D01*
X028943Y055728D01*
X028858Y055662D01*
X028792Y055577D01*
X028751Y055477D01*
X028736Y055370D01*
X028751Y055263D01*
X028792Y055163D01*
X028858Y055078D01*
X028943Y055012D01*
X029043Y054971D01*
X029150Y054956D01*
X029257Y054971D01*
X029357Y055012D01*
X029369Y055021D01*
X029442Y054948D01*
X029423Y054902D01*
X028748Y054902D01*
X028499Y055151D01*
X028508Y055163D01*
X028549Y055263D01*
X028564Y055370D01*
X028549Y055477D01*
X028508Y055577D01*
X028442Y055662D01*
X028357Y055728D01*
X028257Y055769D01*
X028150Y055784D01*
X028043Y055769D01*
X027943Y055728D01*
X027858Y055662D01*
X027853Y055657D01*
X027800Y055646D01*
X027794Y055646D01*
X027775Y055675D01*
X027528Y055922D01*
X027547Y055968D01*
X030422Y055968D01*
X030801Y055589D01*
X030801Y055589D02*
G37*
G36*
X046539Y055826D02*
X046517Y055781D01*
X046500Y055784D01*
X046393Y055769D01*
X046293Y055728D01*
X046208Y055662D01*
X046142Y055577D01*
X046101Y055477D01*
X046086Y055370D01*
X046101Y055263D01*
X046142Y055163D01*
X046208Y055078D01*
X046293Y055012D01*
X046393Y054971D01*
X046500Y054956D01*
X046607Y054971D01*
X046707Y055012D01*
X046719Y055021D01*
X046995Y054745D01*
X047025Y054725D01*
X047060Y054718D01*
X047203Y054718D01*
X047219Y054671D01*
X047208Y054662D01*
X047142Y054577D01*
X047101Y054477D01*
X047086Y054370D01*
X047101Y054263D01*
X047142Y054163D01*
X047151Y054151D01*
X046722Y053722D01*
X043877Y053722D01*
X043858Y053768D01*
X044035Y053945D01*
X044055Y053975D01*
X044062Y054010D01*
X044062Y054228D01*
X044111Y054238D01*
X044142Y054163D01*
X044208Y054078D01*
X044293Y054012D01*
X044393Y053971D01*
X044500Y053956D01*
X044607Y053971D01*
X044707Y054012D01*
X044792Y054078D01*
X044858Y054163D01*
X044899Y054263D01*
X044914Y054370D01*
X044899Y054477D01*
X044858Y054577D01*
X044792Y054662D01*
X044707Y054728D01*
X044607Y054769D01*
X044500Y054784D01*
X044393Y054769D01*
X044293Y054728D01*
X044208Y054662D01*
X044142Y054577D01*
X044111Y054502D01*
X044062Y054512D01*
X044062Y054802D01*
X044281Y055021D01*
X044293Y055012D01*
X044393Y054971D01*
X044500Y054956D01*
X044607Y054971D01*
X044707Y055012D01*
X044792Y055078D01*
X044858Y055163D01*
X044899Y055263D01*
X044914Y055370D01*
X044899Y055477D01*
X044858Y055577D01*
X044792Y055662D01*
X044707Y055728D01*
X044607Y055769D01*
X044500Y055784D01*
X044393Y055769D01*
X044293Y055728D01*
X044208Y055662D01*
X044142Y055577D01*
X044101Y055477D01*
X044086Y055370D01*
X044101Y055263D01*
X044142Y055163D01*
X044151Y055151D01*
X043956Y054956D01*
X043945Y054961D01*
X043945Y054961D01*
X043910Y054975D01*
X043910Y055780D01*
X043090Y055780D01*
X043090Y054960D01*
X043895Y054960D01*
X043909Y054925D01*
X043909Y054925D01*
X043914Y054914D01*
X043905Y054905D01*
X043885Y054875D01*
X043878Y054840D01*
X043878Y054780D01*
X043090Y054780D01*
X043090Y053960D01*
X043725Y053960D01*
X043737Y053931D01*
X043709Y053890D01*
X041170Y053890D01*
X041151Y053936D01*
X041332Y054117D01*
X041351Y054147D01*
X041353Y054152D01*
X041358Y054182D01*
X041358Y055552D01*
X041353Y055581D01*
X041351Y055587D01*
X041332Y055617D01*
X040244Y056704D01*
X040263Y056750D01*
X043990Y056750D01*
X045151Y055589D01*
X045142Y055577D01*
X045101Y055477D01*
X045086Y055370D01*
X045101Y055263D01*
X045142Y055163D01*
X045208Y055078D01*
X045293Y055012D01*
X045393Y054971D01*
X045500Y054956D01*
X045607Y054971D01*
X045707Y055012D01*
X045792Y055078D01*
X045858Y055163D01*
X045899Y055263D01*
X045914Y055370D01*
X045899Y055477D01*
X045858Y055577D01*
X045792Y055662D01*
X045707Y055728D01*
X045607Y055769D01*
X045500Y055784D01*
X045393Y055769D01*
X045293Y055728D01*
X045281Y055719D01*
X044176Y056824D01*
X044195Y056870D01*
X045495Y056870D01*
X046539Y055826D01*
X046539Y055826D02*
G37*
G36*
X036476Y055589D02*
X036467Y055577D01*
X036426Y055477D01*
X036411Y055370D01*
X036426Y055263D01*
X036467Y055163D01*
X036533Y055078D01*
X036544Y055069D01*
X036528Y055022D01*
X036122Y055022D01*
X036106Y055069D01*
X036117Y055078D01*
X036183Y055163D01*
X036224Y055263D01*
X036239Y055370D01*
X036224Y055477D01*
X036183Y055577D01*
X036117Y055662D01*
X036032Y055728D01*
X035932Y055769D01*
X035825Y055784D01*
X035718Y055769D01*
X035618Y055728D01*
X035533Y055662D01*
X035467Y055577D01*
X035461Y055562D01*
X035412Y055572D01*
X035412Y055710D01*
X035406Y055739D01*
X035405Y055745D01*
X035385Y055775D01*
X035336Y055824D01*
X035355Y055870D01*
X036195Y055870D01*
X036476Y055589D01*
X036476Y055589D02*
G37*
G36*
X020755Y056225D02*
X020748Y056212D01*
X019596Y056212D01*
X019567Y056206D01*
X019561Y056205D01*
X019531Y056185D01*
X018963Y055617D01*
X018943Y055587D01*
X018936Y055552D01*
X018936Y055390D01*
X018886Y055387D01*
X018886Y055387D01*
X018886Y055387D01*
X018886Y055387D01*
X018886Y055387D01*
X018874Y055477D01*
X018833Y055577D01*
X018767Y055662D01*
X018682Y055728D01*
X018582Y055769D01*
X018475Y055784D01*
X018368Y055769D01*
X018268Y055728D01*
X018183Y055662D01*
X018117Y055577D01*
X018076Y055477D01*
X018061Y055370D01*
X018076Y055263D01*
X018117Y055163D01*
X018183Y055078D01*
X018268Y055012D01*
X018368Y054971D01*
X018475Y054956D01*
X018582Y054971D01*
X018682Y055012D01*
X018767Y055078D01*
X018833Y055163D01*
X018874Y055263D01*
X018886Y055353D01*
X018936Y055350D01*
X018936Y054390D01*
X018886Y054387D01*
X018886Y054387D01*
X018886Y054387D01*
X018886Y054387D01*
X018886Y054387D01*
X018874Y054477D01*
X018833Y054577D01*
X018767Y054662D01*
X018682Y054728D01*
X018582Y054769D01*
X018475Y054784D01*
X018368Y054769D01*
X018268Y054728D01*
X018183Y054662D01*
X018117Y054577D01*
X018076Y054477D01*
X018061Y054370D01*
X018076Y054263D01*
X018117Y054163D01*
X018183Y054078D01*
X018268Y054012D01*
X018368Y053971D01*
X018475Y053956D01*
X018582Y053971D01*
X018682Y054012D01*
X018767Y054078D01*
X018833Y054163D01*
X018874Y054263D01*
X018886Y054353D01*
X018936Y054350D01*
X018936Y054192D01*
X018936Y054192D01*
X018936Y054192D01*
X018943Y054157D01*
X018963Y054127D01*
X019382Y053708D01*
X019363Y053662D01*
X017485Y053662D01*
X017233Y053914D01*
X017252Y053960D01*
X017885Y053960D01*
X017885Y054780D01*
X017065Y054780D01*
X017065Y054147D01*
X017019Y054128D01*
X016402Y054745D01*
X016402Y055297D01*
X016395Y055332D01*
X016375Y055362D01*
X015572Y056165D01*
X015542Y056185D01*
X015507Y056192D01*
X015334Y056192D01*
X015316Y056225D01*
X015341Y056268D01*
X020730Y056268D01*
X020755Y056225D01*
X020755Y056225D02*
G37*
G36*
X040527Y055085D02*
X040533Y055078D01*
X040618Y055012D01*
X040718Y054971D01*
X040825Y054956D01*
X040932Y054971D01*
X041032Y055012D01*
X041117Y055078D01*
X041128Y055091D01*
X041175Y055075D01*
X041175Y054665D01*
X041128Y054649D01*
X041117Y054662D01*
X041032Y054728D01*
X040932Y054769D01*
X040825Y054784D01*
X040718Y054769D01*
X040618Y054728D01*
X040533Y054662D01*
X040467Y054577D01*
X040426Y054477D01*
X040411Y054370D01*
X040426Y054263D01*
X040467Y054163D01*
X040533Y054078D01*
X040557Y054059D01*
X040541Y054012D01*
X040313Y054012D01*
X040174Y054151D01*
X040183Y054163D01*
X040224Y054263D01*
X040239Y054370D01*
X040224Y054477D01*
X040183Y054577D01*
X040117Y054662D01*
X040070Y054699D01*
X040070Y054706D01*
X040105Y054725D01*
X040105Y054725D01*
X040105Y054725D01*
X040105Y054725D01*
X040105Y054725D01*
X040105Y054725D01*
X040135Y054745D01*
X040135Y054745D01*
X040135Y054745D01*
X040450Y055060D01*
X040470Y055090D01*
X040470Y055090D01*
X040470Y055090D01*
X040470Y055090D01*
X040471Y055096D01*
X040527Y055085D01*
X040527Y055085D02*
G37*
G36*
X048151Y055589D02*
X048142Y055577D01*
X048101Y055477D01*
X048086Y055370D01*
X048101Y055263D01*
X048142Y055163D01*
X048208Y055078D01*
X048219Y055069D01*
X048203Y055022D01*
X047797Y055022D01*
X047781Y055069D01*
X047792Y055078D01*
X047858Y055163D01*
X047899Y055263D01*
X047914Y055370D01*
X047899Y055477D01*
X047858Y055577D01*
X047792Y055662D01*
X047707Y055728D01*
X047607Y055769D01*
X047500Y055784D01*
X047393Y055769D01*
X047293Y055728D01*
X047281Y055719D01*
X045928Y057072D01*
X045947Y057118D01*
X046622Y057118D01*
X048151Y055589D01*
X048151Y055589D02*
G37*
G36*
X013721Y067627D02*
X013721Y067532D01*
X014467Y067532D01*
X014467Y067486D01*
X014486Y067440D01*
X014532Y067421D01*
X014728Y067421D01*
X014768Y067395D01*
X014768Y066699D01*
X014732Y066662D01*
X013475Y066662D01*
X013475Y066667D01*
X013475Y066777D01*
X013125Y066777D01*
X013125Y066877D01*
X013475Y066877D01*
X013475Y066987D01*
X013435Y066987D01*
X013435Y067203D01*
X013435Y067203D01*
X013435Y067203D01*
X013435Y067203D01*
X013435Y067218D01*
X013435Y067218D01*
X013435Y067336D01*
X013464Y067482D01*
X013507Y067491D01*
X013544Y067515D01*
X013675Y067646D01*
X013721Y067627D01*
X013721Y067627D02*
G37*
G36*
X042363Y067034D02*
X042440Y067018D01*
X042500Y067030D01*
X042753Y066778D01*
X042782Y066758D01*
X042788Y066757D01*
X042817Y066751D01*
X044695Y066751D01*
X044695Y066723D01*
X044695Y066723D01*
X044695Y066707D01*
X044695Y066707D01*
X044695Y066467D01*
X044695Y066467D01*
X044695Y066451D01*
X044695Y066451D01*
X044695Y066280D01*
X044649Y066261D01*
X044258Y066651D01*
X044229Y066671D01*
X044193Y066678D01*
X042345Y066678D01*
X042345Y066747D01*
X042305Y066747D01*
X042305Y066963D01*
X042305Y066963D01*
X042305Y066963D01*
X042305Y066963D01*
X042305Y066978D01*
X042305Y066978D01*
X042305Y067019D01*
X042349Y067043D01*
X042363Y067034D01*
X042363Y067034D02*
G37*
G36*
X041645Y066747D02*
X041645Y066747D01*
X041645Y066637D01*
X041995Y066637D01*
X041995Y066537D01*
X041645Y066537D01*
X041645Y066427D01*
X041645Y066381D01*
X042345Y066381D01*
X042345Y066427D01*
X042345Y066495D01*
X044155Y066495D01*
X044562Y066088D01*
X044543Y066042D01*
X037550Y066042D01*
X037469Y066026D01*
X037400Y065980D01*
X037354Y065911D01*
X037338Y065830D01*
X037354Y065749D01*
X037400Y065680D01*
X037469Y065634D01*
X037550Y065618D01*
X048550Y065618D01*
X048550Y065580D01*
X048550Y065580D01*
X048550Y065482D01*
X046140Y065482D01*
X046140Y065482D01*
X046097Y065474D01*
X046061Y065449D01*
X046061Y065449D01*
X045211Y064599D01*
X045186Y064563D01*
X045178Y064520D01*
X045178Y064520D01*
X045178Y063990D01*
X045178Y063990D01*
X045186Y063947D01*
X045186Y063947D01*
X045150Y063932D01*
X045150Y063932D01*
X045150Y063932D01*
X045073Y063916D01*
X045007Y063873D01*
X044964Y063807D01*
X044948Y063730D01*
X044964Y063653D01*
X045007Y063587D01*
X045073Y063544D01*
X045148Y063529D01*
X045162Y063481D01*
X044766Y063084D01*
X033890Y063084D01*
X033867Y063128D01*
X033876Y063143D01*
X033892Y063220D01*
X033884Y063259D01*
X033892Y063301D01*
X033970Y063316D01*
X034002Y063338D01*
X041073Y063338D01*
X041107Y063287D01*
X041173Y063244D01*
X041250Y063228D01*
X041327Y063244D01*
X041393Y063287D01*
X041436Y063353D01*
X041452Y063430D01*
X041436Y063507D01*
X041393Y063573D01*
X041327Y063616D01*
X041250Y063632D01*
X041173Y063616D01*
X041107Y063573D01*
X041073Y063522D01*
X034090Y063522D01*
X034079Y063580D01*
X034035Y063645D01*
X033970Y063689D01*
X033892Y063704D01*
X033815Y063689D01*
X033798Y063677D01*
X033753Y063701D01*
X033753Y063908D01*
X033796Y063936D01*
X033798Y063937D01*
X033863Y063894D01*
X033940Y063878D01*
X034017Y063894D01*
X034083Y063937D01*
X034117Y063988D01*
X037000Y063988D01*
X037035Y063995D01*
X037065Y064015D01*
X037065Y064015D01*
X037065Y064015D01*
X037320Y064270D01*
X037380Y064258D01*
X037457Y064274D01*
X037523Y064317D01*
X037566Y064383D01*
X037582Y064460D01*
X037566Y064537D01*
X037523Y064603D01*
X037457Y064646D01*
X037380Y064662D01*
X037303Y064646D01*
X037237Y064603D01*
X037194Y064537D01*
X037178Y064460D01*
X037190Y064400D01*
X036962Y064172D01*
X036582Y064172D01*
X036582Y064412D01*
X037320Y065150D01*
X037380Y065138D01*
X037457Y065154D01*
X037523Y065197D01*
X037566Y065263D01*
X037582Y065340D01*
X037566Y065417D01*
X037523Y065483D01*
X037457Y065526D01*
X037380Y065542D01*
X037303Y065526D01*
X037237Y065483D01*
X037194Y065417D01*
X037178Y065340D01*
X037190Y065280D01*
X036425Y064515D01*
X036405Y064485D01*
X036398Y064450D01*
X036398Y064172D01*
X034117Y064172D01*
X034083Y064223D01*
X034017Y064266D01*
X033996Y064271D01*
X033982Y064318D01*
X035831Y066168D01*
X040300Y066168D01*
X040335Y066175D01*
X040365Y066195D01*
X040365Y066195D01*
X040365Y066195D01*
X040535Y066365D01*
X040555Y066395D01*
X040556Y066401D01*
X040562Y066430D01*
X040562Y066751D01*
X041645Y066751D01*
X041645Y066747D01*
X041645Y066747D02*
G37*
G36*
X012815Y067218D02*
X012815Y067218D01*
X012815Y067203D01*
X012815Y067203D01*
X012815Y067157D01*
X012765Y067154D01*
X012750Y067150D01*
X012735Y067147D01*
X012733Y067146D01*
X012730Y067145D01*
X012718Y067136D01*
X012705Y067127D01*
X012704Y067125D01*
X012702Y067124D01*
X012694Y067110D01*
X012685Y067098D01*
X012685Y067095D01*
X012683Y067093D01*
X012681Y067078D01*
X012678Y067063D01*
X012678Y066483D01*
X012678Y066483D01*
X012678Y066483D01*
X012685Y066447D01*
X012705Y066418D01*
X013221Y065901D01*
X013251Y065882D01*
X013286Y065875D01*
X033136Y065875D01*
X033171Y065882D01*
X033201Y065901D01*
X033201Y065901D01*
X033201Y065901D01*
X034051Y066751D01*
X039952Y066751D01*
X039957Y066701D01*
X039883Y066686D01*
X039817Y066643D01*
X039783Y066592D01*
X035720Y066592D01*
X035691Y066586D01*
X035685Y066585D01*
X035655Y066565D01*
X034247Y065157D01*
X028332Y065157D01*
X028298Y065208D01*
X028232Y065251D01*
X028155Y065267D01*
X028078Y065251D01*
X028012Y065208D01*
X027969Y065142D01*
X027953Y065065D01*
X027969Y064988D01*
X028012Y064922D01*
X028078Y064879D01*
X028155Y064863D01*
X028232Y064879D01*
X028298Y064922D01*
X028332Y064973D01*
X034285Y064973D01*
X034315Y064979D01*
X034339Y064935D01*
X033597Y064193D01*
X033577Y064163D01*
X033570Y064128D01*
X033570Y063442D01*
X033522Y063427D01*
X033519Y063432D01*
X033519Y063432D01*
X032232Y064719D01*
X032196Y064743D01*
X032153Y064752D01*
X032153Y064752D01*
X030028Y064752D01*
X030028Y064752D01*
X029985Y064743D01*
X029949Y064719D01*
X029949Y064719D01*
X029559Y064329D01*
X029509Y064329D01*
X029209Y064629D01*
X029173Y064654D01*
X029130Y064662D01*
X029130Y064662D01*
X020924Y064662D01*
X020924Y064662D01*
X020881Y064654D01*
X020845Y064629D01*
X020746Y064530D01*
X019505Y064530D01*
X019493Y064558D01*
X019521Y064600D01*
X019580Y064600D01*
X019580Y064800D01*
X019380Y064800D01*
X019380Y064730D01*
X019342Y064692D01*
X019290Y064692D01*
X019290Y065060D01*
X019000Y065060D01*
X018746Y065313D01*
X018762Y065390D01*
X018746Y065467D01*
X018703Y065533D01*
X018637Y065576D01*
X018560Y065592D01*
X018483Y065576D01*
X018417Y065533D01*
X018374Y065467D01*
X018358Y065390D01*
X018374Y065313D01*
X018417Y065247D01*
X018483Y065204D01*
X018560Y065188D01*
X018603Y065197D01*
X018870Y064930D01*
X018870Y064692D01*
X016430Y064692D01*
X016395Y064685D01*
X016365Y064665D01*
X015576Y063876D01*
X015530Y063895D01*
X015530Y064570D01*
X014710Y064570D01*
X014710Y063802D01*
X014508Y063802D01*
X014473Y063795D01*
X014443Y063775D01*
X014287Y063619D01*
X014267Y063589D01*
X014260Y063554D01*
X014260Y063491D01*
X014089Y063320D01*
X013325Y064085D01*
X013295Y064105D01*
X013260Y064112D01*
X005580Y064112D01*
X005551Y064106D01*
X005545Y064105D01*
X005515Y064085D01*
X005160Y063730D01*
X005090Y063730D01*
X005090Y063530D01*
X005290Y063530D01*
X005290Y063600D01*
X005334Y063644D01*
X005380Y063625D01*
X005380Y063270D01*
X005478Y063270D01*
X005486Y063227D01*
X005511Y063191D01*
X007380Y061321D01*
X007380Y061219D01*
X006041Y059879D01*
X006016Y059843D01*
X006008Y059800D01*
X006008Y059800D01*
X006008Y057645D01*
X005989Y057637D01*
X005935Y057595D01*
X005893Y057541D01*
X005867Y057478D01*
X005858Y057410D01*
X005867Y057342D01*
X005893Y057279D01*
X005935Y057225D01*
X005950Y057212D01*
X005925Y057169D01*
X005873Y057191D01*
X005805Y057200D01*
X005737Y057191D01*
X005685Y057169D01*
X005660Y057212D01*
X005676Y057225D01*
X005717Y057279D01*
X005743Y057342D01*
X005752Y057410D01*
X005743Y057478D01*
X005717Y057541D01*
X005676Y057595D01*
X005621Y057637D01*
X005558Y057663D01*
X005490Y057672D01*
X005422Y057663D01*
X005359Y057637D01*
X005305Y057595D01*
X005263Y057541D01*
X005237Y057478D01*
X005228Y057410D01*
X005237Y057342D01*
X005263Y057279D01*
X005305Y057225D01*
X005320Y057212D01*
X005295Y057169D01*
X005243Y057191D01*
X005175Y057200D01*
X005107Y057191D01*
X005055Y057169D01*
X005030Y057212D01*
X005046Y057225D01*
X005087Y057279D01*
X005113Y057342D01*
X005122Y057410D01*
X005113Y057478D01*
X005087Y057541D01*
X005046Y057595D01*
X004991Y057637D01*
X004928Y057663D01*
X004860Y057672D01*
X004792Y057663D01*
X004729Y057637D01*
X004675Y057595D01*
X004633Y057541D01*
X004607Y057478D01*
X004598Y057410D01*
X004607Y057342D01*
X004633Y057279D01*
X004675Y057225D01*
X004729Y057183D01*
X004792Y057157D01*
X004860Y057148D01*
X004928Y057157D01*
X004980Y057178D01*
X005005Y057135D01*
X004990Y057123D01*
X004948Y057069D01*
X004922Y057005D01*
X004918Y056973D01*
X004870Y056957D01*
X002714Y059113D01*
X002714Y063794D01*
X002758Y063817D01*
X002773Y063807D01*
X002850Y063792D01*
X002927Y063807D01*
X002964Y063832D01*
X003024Y063832D01*
X003085Y063844D01*
X003138Y063879D01*
X003298Y064040D01*
X003490Y064040D01*
X003490Y064460D01*
X003070Y064460D01*
X003070Y064268D01*
X002960Y064158D01*
X002927Y064180D01*
X002850Y064195D01*
X002773Y064180D01*
X002758Y064170D01*
X002714Y064194D01*
X002714Y067173D01*
X002788Y067247D01*
X012815Y067247D01*
X012815Y067218D01*
X012815Y067218D02*
G37*
G36*
X014768Y067592D02*
X014728Y067592D01*
X014728Y067486D01*
X014532Y067486D01*
X014532Y067592D01*
X014492Y067592D01*
X014492Y067632D01*
X014768Y067632D01*
X014768Y067592D01*
X014768Y067592D02*
G37*
G36*
X026499Y067444D02*
X026498Y067440D01*
X026514Y067363D01*
X026538Y067326D01*
X026515Y067282D01*
X018368Y067282D01*
X018246Y067403D01*
X018217Y067423D01*
X018182Y067430D01*
X016445Y067430D01*
X016445Y067458D01*
X016445Y067458D01*
X016445Y067474D01*
X016445Y067474D01*
X016445Y067482D01*
X026467Y067482D01*
X026499Y067444D01*
X026499Y067444D02*
G37*
G36*
X043638Y067352D02*
X043598Y067352D01*
X043598Y067246D01*
X043402Y067246D01*
X043402Y067352D01*
X043362Y067352D01*
X043362Y067392D01*
X043638Y067392D01*
X043638Y067352D01*
X043638Y067352D02*
G37*
G36*
X049100Y065580D02*
X049100Y065580D01*
X049100Y065160D01*
X049390Y065160D01*
X049578Y064972D01*
X049578Y063926D01*
X049310Y063926D01*
X049310Y062876D01*
X049264Y062857D01*
X049246Y062875D01*
X049216Y062895D01*
X049181Y062902D01*
X048728Y062902D01*
X048720Y062910D01*
X048720Y063316D01*
X047920Y063316D01*
X047920Y062782D01*
X045247Y062782D01*
X045228Y062828D01*
X045875Y063475D01*
X045895Y063505D01*
X045902Y063540D01*
X045902Y063540D01*
X045902Y063540D01*
X045902Y063540D01*
X045902Y064020D01*
X045896Y064049D01*
X045895Y064055D01*
X045875Y064085D01*
X045828Y064132D01*
X045847Y064178D01*
X048137Y064178D01*
X048228Y064087D01*
X048228Y063966D01*
X047920Y063966D01*
X047920Y063416D01*
X048720Y063416D01*
X048720Y063966D01*
X048412Y063966D01*
X048412Y064125D01*
X048405Y064160D01*
X048385Y064190D01*
X048240Y064335D01*
X048210Y064355D01*
X048175Y064362D01*
X045810Y064362D01*
X045810Y064520D01*
X045610Y064520D01*
X045610Y064270D01*
X045510Y064270D01*
X045510Y064530D01*
X045495Y064566D01*
X046186Y065258D01*
X048550Y065258D01*
X048550Y065160D01*
X048970Y065160D01*
X048970Y065580D01*
X048970Y065580D01*
X048970Y065583D01*
X049005Y065618D01*
X049100Y065618D01*
X049100Y065580D01*
X049100Y065580D02*
G37*
G36*
X054386Y065407D02*
X054353Y065364D01*
X054323Y065292D01*
X054313Y065214D01*
X054313Y064632D01*
X053480Y064632D01*
X053480Y064632D01*
X053437Y064624D01*
X053401Y064599D01*
X053401Y064599D01*
X053193Y064392D01*
X053143Y064394D01*
X053124Y064418D01*
X053129Y064428D01*
X053139Y064506D01*
X053139Y065214D01*
X053129Y065292D01*
X053099Y065364D01*
X053066Y065407D01*
X053088Y065451D01*
X054364Y065451D01*
X054386Y065407D01*
X054386Y065407D02*
G37*
G36*
X021214Y064002D02*
X021219Y063978D01*
X021262Y063912D01*
X021328Y063869D01*
X021405Y063853D01*
X021482Y063869D01*
X021548Y063912D01*
X021582Y063963D01*
X027655Y063963D01*
X027800Y063818D01*
X027781Y063772D01*
X021137Y063772D01*
X021103Y063823D01*
X021037Y063866D01*
X020960Y063882D01*
X020883Y063866D01*
X020817Y063823D01*
X020774Y063757D01*
X020758Y063680D01*
X020774Y063603D01*
X020785Y063586D01*
X020761Y063542D01*
X020045Y063542D01*
X020022Y063570D01*
X020006Y063647D01*
X019963Y063713D01*
X019897Y063756D01*
X019820Y063772D01*
X019743Y063756D01*
X019677Y063713D01*
X019634Y063647D01*
X019618Y063570D01*
X019634Y063493D01*
X019651Y063466D01*
X019628Y063422D01*
X019460Y063422D01*
X019460Y063422D01*
X019417Y063414D01*
X019381Y063389D01*
X019301Y063309D01*
X019276Y063273D01*
X019274Y063260D01*
X019202Y063260D01*
X019202Y063712D01*
X019438Y063948D01*
X021059Y063948D01*
X021095Y063955D01*
X021124Y063975D01*
X021124Y063975D01*
X021124Y063975D01*
X021166Y064017D01*
X021214Y064002D01*
X021214Y064002D02*
G37*
G36*
X017490Y066330D02*
X017478Y066270D01*
X017494Y066193D01*
X017537Y066127D01*
X017570Y066106D01*
X017555Y066058D01*
X017066Y066058D01*
X017043Y066102D01*
X017056Y066123D01*
X017072Y066200D01*
X017056Y066277D01*
X017013Y066343D01*
X016947Y066386D01*
X016870Y066402D01*
X016834Y066395D01*
X016579Y066650D01*
X016542Y066674D01*
X016499Y066683D01*
X016499Y066683D01*
X016445Y066683D01*
X016445Y066691D01*
X016445Y066691D01*
X016445Y066707D01*
X016445Y066716D01*
X016445Y066726D01*
X016445Y066726D01*
X016445Y066726D01*
X016445Y066735D01*
X017085Y066735D01*
X017490Y066330D01*
X017490Y066330D02*
G37*
G36*
X049080Y066380D02*
X049068Y066320D01*
X049084Y066243D01*
X049095Y066226D01*
X049071Y066182D01*
X048081Y066182D01*
X048058Y066226D01*
X048076Y066254D01*
X048092Y066331D01*
X048076Y066408D01*
X048048Y066451D01*
X048071Y066495D01*
X048965Y066495D01*
X049080Y066380D01*
X049080Y066380D02*
G37*
G36*
X018265Y067125D02*
X018295Y067105D01*
X018301Y067104D01*
X018330Y067098D01*
X041540Y067098D01*
X041605Y067034D01*
X041635Y067014D01*
X041670Y067007D01*
X041685Y067007D01*
X041685Y066978D01*
X041685Y066978D01*
X041685Y066963D01*
X041685Y066963D01*
X041685Y066934D01*
X034013Y066934D01*
X033983Y066928D01*
X033977Y066927D01*
X033948Y066907D01*
X033098Y066058D01*
X018385Y066058D01*
X018370Y066106D01*
X018403Y066127D01*
X018446Y066193D01*
X018462Y066270D01*
X018446Y066347D01*
X018403Y066413D01*
X018337Y066456D01*
X018260Y066472D01*
X018200Y066460D01*
X017512Y067147D01*
X017483Y067167D01*
X017448Y067174D01*
X016445Y067174D01*
X016445Y067183D01*
X016445Y067183D01*
X016445Y067183D01*
X016445Y067183D01*
X016445Y067183D01*
X016445Y067183D01*
X016445Y067183D01*
X016445Y067203D01*
X016445Y067204D01*
X016445Y067210D01*
X016445Y067218D01*
X016445Y067238D01*
X016445Y067238D01*
X016445Y067238D01*
X016445Y067247D01*
X018144Y067247D01*
X018265Y067125D01*
X018265Y067125D02*
G37*
G36*
X018070Y066330D02*
X018058Y066270D01*
X018074Y066193D01*
X018117Y066127D01*
X018150Y066106D01*
X018135Y066058D01*
X017805Y066058D01*
X017790Y066106D01*
X017823Y066127D01*
X017866Y066193D01*
X017882Y066270D01*
X017866Y066347D01*
X017823Y066413D01*
X017757Y066456D01*
X017680Y066472D01*
X017620Y066460D01*
X017188Y066891D01*
X017159Y066911D01*
X017123Y066918D01*
X016445Y066918D01*
X016445Y066927D01*
X016445Y066927D01*
X016445Y066927D01*
X016445Y066927D01*
X016445Y066927D01*
X016445Y066927D01*
X016445Y066927D01*
X016445Y066947D01*
X016445Y066948D01*
X016445Y066955D01*
X016445Y066962D01*
X016445Y066982D01*
X016445Y066982D01*
X016445Y066982D01*
X016445Y066991D01*
X017409Y066991D01*
X018070Y066330D01*
X018070Y066330D02*
G37*
G36*
X004099Y070816D02*
X004071Y070811D01*
X004041Y070791D01*
X003002Y069752D01*
X002920Y069752D01*
X002826Y069906D01*
X002688Y070068D01*
X002682Y070072D01*
X002670Y070167D01*
X002629Y070264D01*
X002565Y070348D01*
X002522Y070381D01*
X002323Y070038D01*
X002237Y070088D01*
X002435Y070431D01*
X002384Y070452D01*
X002280Y070466D01*
X002176Y070452D01*
X002082Y070414D01*
X001942Y070448D01*
X001780Y070460D01*
X001780Y069110D01*
X001780Y067760D01*
X001942Y067772D01*
X002082Y067806D01*
X002176Y067768D01*
X002280Y067754D01*
X002384Y067768D01*
X002435Y067789D01*
X002237Y068132D01*
X002323Y068182D01*
X002522Y067839D01*
X002565Y067872D01*
X002629Y067956D01*
X002670Y068053D01*
X002682Y068148D01*
X002688Y068152D01*
X002826Y068314D01*
X002937Y068495D01*
X003018Y068692D01*
X003035Y068763D01*
X003115Y068825D01*
X003179Y068908D01*
X003220Y069006D01*
X003227Y069060D01*
X002830Y069060D01*
X002830Y069160D01*
X003227Y069160D01*
X003220Y069214D01*
X003179Y069312D01*
X003115Y069395D01*
X003035Y069457D01*
X003018Y069527D01*
X003045Y069569D01*
X003075Y069575D01*
X003105Y069595D01*
X004144Y070634D01*
X012658Y070634D01*
X012681Y070590D01*
X012659Y070557D01*
X012651Y070515D01*
X012651Y070515D01*
X012651Y069905D01*
X012651Y069905D01*
X012659Y069862D01*
X012684Y069825D01*
X012691Y069818D01*
X012691Y069818D01*
X012716Y069802D01*
X012701Y069754D01*
X011154Y069754D01*
X010914Y069994D01*
X010921Y070030D01*
X010906Y070107D01*
X010862Y070173D01*
X010796Y070216D01*
X010719Y070232D01*
X010642Y070216D01*
X010577Y070173D01*
X010533Y070107D01*
X010518Y070030D01*
X010533Y069953D01*
X010577Y069887D01*
X010642Y069844D01*
X010719Y069828D01*
X010755Y069835D01*
X011028Y069562D01*
X011028Y069562D01*
X011065Y069538D01*
X011065Y069538D01*
X011065Y069538D01*
X011065Y069538D01*
X011065Y069538D01*
X011065Y069538D01*
X011108Y069529D01*
X011108Y069529D01*
X012177Y069529D01*
X012191Y069482D01*
X012166Y069465D01*
X012166Y069465D01*
X011426Y068725D01*
X011390Y068732D01*
X011313Y068716D01*
X011247Y068673D01*
X011204Y068607D01*
X011188Y068530D01*
X011204Y068453D01*
X011217Y068433D01*
X011193Y068389D01*
X010729Y068389D01*
X009935Y069184D01*
X009942Y069220D01*
X009926Y069297D01*
X009883Y069363D01*
X009817Y069406D01*
X009740Y069422D01*
X009663Y069406D01*
X009597Y069363D01*
X009554Y069297D01*
X009538Y069220D01*
X009554Y069143D01*
X009597Y069077D01*
X009663Y069034D01*
X009740Y069018D01*
X009776Y069025D01*
X010537Y068264D01*
X010518Y068218D01*
X006075Y068218D01*
X004300Y069994D01*
X004307Y070030D01*
X004291Y070107D01*
X004248Y070173D01*
X004182Y070216D01*
X004105Y070232D01*
X004028Y070216D01*
X003963Y070173D01*
X003919Y070107D01*
X003903Y070030D01*
X003919Y069953D01*
X003963Y069887D01*
X004028Y069844D01*
X004105Y069828D01*
X004141Y069835D01*
X005950Y068027D01*
X005950Y068027D01*
X005975Y068010D01*
X005960Y067962D01*
X005806Y067962D01*
X005235Y068534D01*
X005242Y068570D01*
X005226Y068647D01*
X005183Y068713D01*
X005117Y068756D01*
X005040Y068772D01*
X004963Y068756D01*
X004897Y068713D01*
X004854Y068647D01*
X004838Y068570D01*
X004854Y068493D01*
X004897Y068427D01*
X004963Y068384D01*
X005040Y068368D01*
X005076Y068375D01*
X005680Y067771D01*
X005680Y067771D01*
X005717Y067747D01*
X005717Y067747D01*
X005717Y067747D01*
X005717Y067747D01*
X005717Y067747D01*
X005717Y067747D01*
X005760Y067738D01*
X005760Y067738D01*
X012815Y067738D01*
X012815Y067730D01*
X012815Y067730D01*
X012815Y067730D01*
X012815Y067730D01*
X012815Y067730D01*
X012815Y067714D01*
X012815Y067695D01*
X012815Y067695D01*
X012815Y067695D01*
X012815Y067474D01*
X012815Y067474D01*
X012815Y067458D01*
X012815Y067458D01*
X012815Y067430D01*
X002750Y067430D01*
X002715Y067423D01*
X002685Y067403D01*
X002557Y067275D01*
X002537Y067246D01*
X002530Y067211D01*
X002530Y059075D01*
X002530Y059075D01*
X002530Y059075D01*
X002537Y059040D01*
X002557Y059011D01*
X005433Y056135D01*
X005463Y056115D01*
X005468Y056114D01*
X005498Y056108D01*
X014128Y056108D01*
X014152Y056064D01*
X014134Y056037D01*
X014118Y055960D01*
X014134Y055883D01*
X014177Y055817D01*
X014243Y055774D01*
X014320Y055758D01*
X014397Y055774D01*
X014463Y055817D01*
X014497Y055868D01*
X015432Y055868D01*
X016010Y055291D01*
X015986Y055247D01*
X015935Y055257D01*
X015858Y055241D01*
X015792Y055198D01*
X015749Y055132D01*
X015733Y055055D01*
X015734Y055050D01*
X015703Y055012D01*
X015084Y055012D01*
X015068Y055059D01*
X015092Y055078D01*
X015158Y055163D01*
X015199Y055263D01*
X015214Y055370D01*
X015199Y055477D01*
X015158Y055577D01*
X015092Y055662D01*
X015007Y055728D01*
X014907Y055769D01*
X014800Y055784D01*
X014693Y055769D01*
X014593Y055728D01*
X014508Y055662D01*
X014442Y055577D01*
X014401Y055477D01*
X014386Y055370D01*
X014401Y055263D01*
X014442Y055163D01*
X014508Y055078D01*
X014532Y055059D01*
X014516Y055012D01*
X014084Y055012D01*
X014068Y055059D01*
X014092Y055078D01*
X014158Y055163D01*
X014199Y055263D01*
X014214Y055370D01*
X014199Y055477D01*
X014158Y055577D01*
X014092Y055662D01*
X014007Y055728D01*
X013907Y055769D01*
X013800Y055784D01*
X013693Y055769D01*
X013593Y055728D01*
X013508Y055662D01*
X013442Y055577D01*
X013401Y055477D01*
X013386Y055370D01*
X013401Y055263D01*
X013442Y055163D01*
X013508Y055078D01*
X013532Y055059D01*
X013516Y055012D01*
X013084Y055012D01*
X013068Y055059D01*
X013092Y055078D01*
X013158Y055163D01*
X013199Y055263D01*
X013214Y055370D01*
X013199Y055477D01*
X013158Y055577D01*
X013092Y055662D01*
X013007Y055728D01*
X012907Y055769D01*
X012800Y055784D01*
X012693Y055769D01*
X012593Y055728D01*
X012508Y055662D01*
X012442Y055577D01*
X012401Y055477D01*
X012386Y055370D01*
X012401Y055263D01*
X012442Y055163D01*
X012508Y055078D01*
X012532Y055059D01*
X012516Y055012D01*
X012084Y055012D01*
X012068Y055059D01*
X012092Y055078D01*
X012158Y055163D01*
X012199Y055263D01*
X012214Y055370D01*
X012199Y055477D01*
X012158Y055577D01*
X012092Y055662D01*
X012007Y055728D01*
X011907Y055769D01*
X011800Y055784D01*
X011693Y055769D01*
X011593Y055728D01*
X011508Y055662D01*
X011442Y055577D01*
X011401Y055477D01*
X011386Y055370D01*
X011401Y055263D01*
X011442Y055163D01*
X011508Y055078D01*
X011532Y055059D01*
X011516Y055012D01*
X011084Y055012D01*
X011068Y055059D01*
X011092Y055078D01*
X011158Y055163D01*
X011199Y055263D01*
X011214Y055370D01*
X011199Y055477D01*
X011158Y055577D01*
X011092Y055662D01*
X011007Y055728D01*
X010907Y055769D01*
X010800Y055784D01*
X010693Y055769D01*
X010593Y055728D01*
X010508Y055662D01*
X010442Y055577D01*
X010401Y055477D01*
X010386Y055370D01*
X010401Y055263D01*
X010442Y055163D01*
X010508Y055078D01*
X010532Y055059D01*
X010516Y055012D01*
X010084Y055012D01*
X010068Y055059D01*
X010092Y055078D01*
X010158Y055163D01*
X010199Y055263D01*
X010214Y055370D01*
X010199Y055477D01*
X010158Y055577D01*
X010092Y055662D01*
X010007Y055728D01*
X009907Y055769D01*
X009800Y055784D01*
X009693Y055769D01*
X009593Y055728D01*
X009508Y055662D01*
X009442Y055577D01*
X009401Y055477D01*
X009386Y055370D01*
X009401Y055263D01*
X009442Y055163D01*
X009508Y055078D01*
X009532Y055059D01*
X009516Y055012D01*
X009288Y055012D01*
X009210Y055090D01*
X009210Y055780D01*
X008390Y055780D01*
X008390Y054960D01*
X009080Y054960D01*
X009185Y054855D01*
X009215Y054835D01*
X009221Y054834D01*
X009250Y054828D01*
X009757Y054828D01*
X009760Y054778D01*
X009693Y054769D01*
X009593Y054728D01*
X009508Y054662D01*
X009442Y054577D01*
X009401Y054477D01*
X009386Y054370D01*
X009401Y054263D01*
X009442Y054163D01*
X009508Y054078D01*
X009593Y054012D01*
X009693Y053971D01*
X009800Y053956D01*
X009907Y053971D01*
X010007Y054012D01*
X010092Y054078D01*
X010158Y054163D01*
X010199Y054263D01*
X010214Y054370D01*
X010199Y054477D01*
X010158Y054577D01*
X010092Y054662D01*
X010007Y054728D01*
X009907Y054769D01*
X009840Y054778D01*
X009843Y054828D01*
X010757Y054828D01*
X010760Y054778D01*
X010693Y054769D01*
X010593Y054728D01*
X010508Y054662D01*
X010442Y054577D01*
X010401Y054477D01*
X010386Y054370D01*
X010401Y054263D01*
X010442Y054163D01*
X010508Y054078D01*
X010593Y054012D01*
X010693Y053971D01*
X010800Y053956D01*
X010907Y053971D01*
X011007Y054012D01*
X011019Y054021D01*
X011185Y053855D01*
X011215Y053835D01*
X011221Y053834D01*
X011250Y053828D01*
X015753Y053828D01*
X015787Y053777D01*
X015853Y053734D01*
X015930Y053718D01*
X016007Y053734D01*
X016073Y053777D01*
X016116Y053843D01*
X016132Y053920D01*
X016116Y053997D01*
X016073Y054063D01*
X016007Y054106D01*
X015930Y054122D01*
X015853Y054106D01*
X015787Y054063D01*
X015753Y054012D01*
X015084Y054012D01*
X015068Y054059D01*
X015092Y054078D01*
X015158Y054163D01*
X015199Y054263D01*
X015201Y054278D01*
X016040Y054278D01*
X016075Y054285D01*
X016105Y054305D01*
X016105Y054305D01*
X016105Y054305D01*
X016232Y054432D01*
X016252Y054462D01*
X016259Y054497D01*
X016259Y054497D01*
X016259Y054497D01*
X016259Y054497D01*
X016259Y054563D01*
X016305Y054582D01*
X017382Y053505D01*
X017412Y053485D01*
X017439Y053480D01*
X017434Y053430D01*
X000000Y053430D01*
X000000Y070866D01*
X004094Y070866D01*
X004099Y070816D01*
X004099Y070816D02*
G37*
G36*
X014728Y069388D02*
X014768Y069388D01*
X014768Y069348D01*
X014492Y069348D01*
X014492Y069388D01*
X014532Y069388D01*
X014532Y069494D01*
X014728Y069494D01*
X014728Y069388D01*
X014728Y069388D02*
G37*
G36*
X012815Y069266D02*
X012815Y069266D01*
X012815Y069250D01*
X012815Y069250D01*
X012815Y069010D01*
X012815Y069010D01*
X012815Y068994D01*
X012815Y068994D01*
X012815Y068754D01*
X012815Y068754D01*
X012815Y068738D01*
X012815Y068738D01*
X012815Y068730D01*
X012025Y068730D01*
X012005Y068761D01*
X011939Y068804D01*
X011894Y068813D01*
X011880Y068861D01*
X012292Y069274D01*
X012815Y069274D01*
X012815Y069266D01*
X012815Y069266D02*
G37*
G36*
X056039Y069503D02*
X056031Y069493D01*
X055991Y069396D01*
X055983Y069341D01*
X056380Y069341D01*
X056380Y069241D01*
X055983Y069241D01*
X055991Y069187D01*
X056031Y069090D01*
X056095Y069006D01*
X056175Y068945D01*
X056192Y068873D01*
X056274Y068677D01*
X056385Y068495D01*
X056523Y068334D01*
X056528Y068329D01*
X056541Y068234D01*
X056581Y068137D01*
X056589Y068127D01*
X054644Y066182D01*
X049469Y066182D01*
X049445Y066226D01*
X049456Y066243D01*
X049472Y066320D01*
X049456Y066397D01*
X049413Y066463D01*
X049347Y066506D01*
X049270Y066522D01*
X049210Y066510D01*
X049068Y066651D01*
X049039Y066671D01*
X049003Y066678D01*
X045315Y066678D01*
X045315Y066707D01*
X045315Y066707D01*
X045315Y066723D01*
X045315Y066723D01*
X045315Y066943D01*
X045315Y066943D01*
X045315Y066943D01*
X045315Y066943D01*
X045315Y066963D01*
X045315Y066964D01*
X045315Y066970D01*
X045315Y066978D01*
X045315Y066998D01*
X045315Y066998D01*
X045315Y066998D01*
X045315Y067199D01*
X045315Y067199D01*
X045315Y067199D01*
X045315Y067199D01*
X045315Y067218D01*
X045315Y067234D01*
X045315Y067234D01*
X045315Y067234D01*
X045315Y067234D01*
X045315Y067234D01*
X045315Y067235D01*
X045315Y067242D01*
X050462Y067242D01*
X050462Y067242D01*
X050504Y067251D01*
X050541Y067275D01*
X050869Y067603D01*
X050869Y067603D01*
X050894Y067640D01*
X050894Y067640D01*
X050894Y067640D01*
X050902Y067683D01*
X050902Y067683D01*
X050902Y067781D01*
X050946Y067805D01*
X050993Y067774D01*
X051070Y067758D01*
X051106Y067765D01*
X052065Y066806D01*
X052066Y066806D01*
X052102Y066782D01*
X052102Y066782D01*
X052102Y066782D01*
X052102Y066782D01*
X052102Y066782D01*
X052102Y066782D01*
X052145Y066773D01*
X052145Y066773D01*
X054046Y066773D01*
X054046Y066773D01*
X054089Y066782D01*
X054126Y066806D01*
X055405Y068085D01*
X055405Y068085D01*
X055429Y068122D01*
X055429Y068122D01*
X055429Y068122D01*
X055438Y068164D01*
X055438Y068164D01*
X055438Y068724D01*
X055438Y068724D01*
X055429Y068767D01*
X055405Y068804D01*
X055405Y068804D01*
X055249Y068959D01*
X055213Y068984D01*
X055170Y068992D01*
X055170Y068992D01*
X050056Y068992D01*
X050037Y069038D01*
X050834Y069835D01*
X050870Y069828D01*
X050947Y069844D01*
X051013Y069887D01*
X051056Y069953D01*
X051072Y070030D01*
X051056Y070107D01*
X051013Y070173D01*
X050947Y070216D01*
X050870Y070232D01*
X050793Y070216D01*
X050727Y070173D01*
X050684Y070107D01*
X050668Y070030D01*
X050675Y069994D01*
X049176Y068494D01*
X047160Y068494D01*
X047137Y068538D01*
X047146Y068553D01*
X047162Y068630D01*
X047146Y068707D01*
X047103Y068773D01*
X047037Y068816D01*
X046960Y068832D01*
X046924Y068825D01*
X046524Y069225D01*
X046499Y069242D01*
X046513Y069289D01*
X047402Y069289D01*
X047402Y069289D01*
X047445Y069298D01*
X047481Y069322D01*
X047994Y069835D01*
X048030Y069828D01*
X048107Y069844D01*
X048173Y069887D01*
X048216Y069953D01*
X048232Y070030D01*
X048216Y070107D01*
X048173Y070173D01*
X048107Y070216D01*
X048030Y070232D01*
X047953Y070216D01*
X047887Y070173D01*
X047844Y070107D01*
X047828Y070030D01*
X047835Y069994D01*
X047355Y069514D01*
X045315Y069514D01*
X045315Y069522D01*
X045315Y069522D01*
X045315Y069538D01*
X045315Y069552D01*
X045315Y069557D01*
X045315Y069557D01*
X045315Y069557D01*
X045315Y069778D01*
X045315Y069778D01*
X045315Y069778D01*
X045315Y069778D01*
X045315Y069793D01*
X045315Y069793D01*
X045315Y070014D01*
X045315Y070014D01*
X045315Y070014D01*
X045315Y070014D01*
X045315Y070033D01*
X045315Y070035D01*
X045315Y070041D01*
X045315Y070049D01*
X045315Y070069D01*
X045315Y070069D01*
X045315Y070069D01*
X045315Y070289D01*
X045242Y070289D01*
X045242Y070356D01*
X045272Y070377D01*
X045316Y070442D01*
X045331Y070519D01*
X045316Y070597D01*
X045306Y070611D01*
X045329Y070655D01*
X054886Y070655D01*
X056039Y069503D01*
X056039Y069503D02*
G37*
G36*
X014891Y070066D02*
X014884Y070030D01*
X014899Y069953D01*
X014943Y069887D01*
X015008Y069844D01*
X015086Y069828D01*
X015163Y069844D01*
X015179Y069855D01*
X015223Y069831D01*
X015223Y069448D01*
X014793Y069448D01*
X014793Y069494D01*
X014774Y069540D01*
X014728Y069559D01*
X014532Y069559D01*
X014486Y069540D01*
X014467Y069494D01*
X014467Y069448D01*
X013803Y069448D01*
X013803Y069587D01*
X013834Y069607D01*
X013877Y069673D01*
X013879Y069679D01*
X013930Y069730D01*
X013931Y069730D01*
X013967Y069706D01*
X014010Y069698D01*
X014230Y069698D01*
X014237Y069687D01*
X014303Y069644D01*
X014380Y069628D01*
X014457Y069644D01*
X014523Y069687D01*
X014566Y069753D01*
X014582Y069830D01*
X014566Y069907D01*
X014523Y069973D01*
X014457Y070016D01*
X014380Y070032D01*
X014303Y070016D01*
X014237Y069973D01*
X014204Y069922D01*
X014056Y069922D01*
X013942Y070036D01*
X013966Y070080D01*
X014026Y070068D01*
X014104Y070084D01*
X014169Y070127D01*
X014213Y070193D01*
X014228Y070270D01*
X014213Y070347D01*
X014169Y070413D01*
X014158Y070420D01*
X014172Y070468D01*
X014489Y070468D01*
X014891Y070066D01*
X014891Y070066D02*
G37*
G36*
X044953Y070611D02*
X044943Y070597D01*
X044928Y070519D01*
X044943Y070442D01*
X044987Y070377D01*
X045017Y070356D01*
X045017Y070289D01*
X044695Y070289D01*
X044695Y070069D01*
X044695Y070069D01*
X044695Y070069D01*
X044695Y070049D01*
X044695Y070033D01*
X044695Y070033D01*
X044695Y070026D01*
X044622Y070026D01*
X044602Y070056D01*
X044537Y070100D01*
X044459Y070115D01*
X044382Y070100D01*
X044317Y070056D01*
X044273Y069991D01*
X044258Y069913D01*
X044273Y069836D01*
X044288Y069814D01*
X044268Y069777D01*
X044219Y069770D01*
X044130Y069859D01*
X044116Y069927D01*
X044073Y069993D01*
X044007Y070036D01*
X043930Y070052D01*
X043853Y070036D01*
X043787Y069993D01*
X043744Y069927D01*
X043728Y069850D01*
X043744Y069773D01*
X043787Y069707D01*
X043853Y069664D01*
X043930Y069648D01*
X044007Y069664D01*
X044007Y069664D01*
X044093Y069578D01*
X044093Y069578D01*
X044130Y069554D01*
X044130Y069554D01*
X044130Y069554D01*
X044130Y069554D01*
X044130Y069554D01*
X044130Y069554D01*
X044172Y069545D01*
X044172Y069545D01*
X044695Y069545D01*
X044695Y069538D01*
X044695Y069538D01*
X044695Y069522D01*
X044695Y069502D01*
X044695Y069502D01*
X044695Y069502D01*
X044695Y069301D01*
X044695Y069301D01*
X044695Y069301D01*
X044695Y069282D01*
X044695Y069274D01*
X044695Y069266D01*
X044695Y069246D01*
X044695Y069246D01*
X044695Y069246D01*
X044695Y069026D01*
X044695Y069026D01*
X044695Y069010D01*
X044695Y069010D01*
X044695Y068770D01*
X044695Y068770D01*
X044695Y068754D01*
X044695Y068754D01*
X044695Y068514D01*
X044695Y068514D01*
X044695Y068498D01*
X044695Y068498D01*
X044695Y068258D01*
X044695Y068258D01*
X044695Y068242D01*
X044695Y068242D01*
X044695Y068002D01*
X044695Y068002D01*
X044695Y067986D01*
X044695Y067986D01*
X044695Y067746D01*
X044695Y067746D01*
X044695Y067730D01*
X044695Y067730D01*
X044695Y067490D01*
X044695Y067490D01*
X044695Y067474D01*
X044695Y067474D01*
X044695Y067254D01*
X044695Y067254D01*
X044695Y067254D01*
X044695Y067234D01*
X044695Y067226D01*
X044695Y067218D01*
X044695Y067199D01*
X044695Y067199D01*
X044695Y067199D01*
X044695Y066998D01*
X044695Y066998D01*
X044695Y066998D01*
X044695Y066978D01*
X044695Y066970D01*
X044695Y066963D01*
X044695Y066963D01*
X044695Y066943D01*
X044695Y066943D01*
X044695Y066943D01*
X044695Y066934D01*
X042855Y066934D01*
X042630Y067160D01*
X042642Y067220D01*
X042635Y067253D01*
X042667Y067292D01*
X043337Y067292D01*
X043337Y067246D01*
X043356Y067200D01*
X043402Y067181D01*
X043598Y067181D01*
X043644Y067200D01*
X043663Y067246D01*
X043663Y067292D01*
X044409Y067292D01*
X044409Y068200D01*
X042591Y068200D01*
X042591Y067410D01*
X042547Y067386D01*
X042517Y067406D01*
X042440Y067422D01*
X042363Y067406D01*
X042349Y067397D01*
X042305Y067421D01*
X042305Y067474D01*
X042305Y067474D01*
X042305Y067474D01*
X042305Y067474D01*
X042305Y067490D01*
X042305Y067490D01*
X042305Y067730D01*
X042305Y067730D01*
X042305Y067730D01*
X042305Y067730D01*
X042305Y067746D01*
X042305Y067746D01*
X042305Y067986D01*
X042305Y067986D01*
X042305Y067986D01*
X042305Y067986D01*
X042305Y068002D01*
X042305Y068002D01*
X042305Y068242D01*
X042305Y068242D01*
X042305Y068242D01*
X042305Y068242D01*
X042305Y068258D01*
X042305Y068258D01*
X042305Y068266D01*
X042400Y068266D01*
X042400Y068266D01*
X042443Y068274D01*
X042479Y068299D01*
X042545Y068364D01*
X042591Y068345D01*
X042591Y068300D01*
X044409Y068300D01*
X044409Y069208D01*
X043663Y069208D01*
X043663Y069254D01*
X043644Y069300D01*
X043598Y069319D01*
X043592Y069319D01*
X043592Y069882D01*
X044365Y070655D01*
X044929Y070655D01*
X044953Y070611D01*
X044953Y070611D02*
G37*
G36*
X020509Y070270D02*
X020498Y070263D01*
X020454Y070197D01*
X020439Y070120D01*
X020446Y070084D01*
X019604Y069242D01*
X017235Y069242D01*
X017220Y069290D01*
X017245Y069306D01*
X017544Y069605D01*
X017580Y069598D01*
X017657Y069614D01*
X017723Y069657D01*
X017766Y069723D01*
X017782Y069800D01*
X017766Y069877D01*
X017755Y069894D01*
X017779Y069938D01*
X018251Y069938D01*
X018251Y069938D01*
X018294Y069946D01*
X018331Y069971D01*
X018678Y070318D01*
X020494Y070318D01*
X020509Y070270D01*
X020509Y070270D02*
G37*
G36*
X040143Y068393D02*
X040153Y068378D01*
X040251Y068280D01*
X040231Y068234D01*
X035611Y068234D01*
X035591Y068265D01*
X035525Y068308D01*
X035448Y068324D01*
X035371Y068308D01*
X035305Y068265D01*
X035262Y068199D01*
X035246Y068122D01*
X035262Y068045D01*
X035277Y068022D01*
X035253Y067978D01*
X034638Y067978D01*
X034277Y068339D01*
X034241Y068363D01*
X034198Y068372D01*
X034198Y068372D01*
X034109Y068372D01*
X034104Y068421D01*
X034122Y068425D01*
X034188Y068469D01*
X034208Y068499D01*
X040037Y068499D01*
X040143Y068393D01*
X040143Y068393D02*
G37*
G36*
X059055Y070831D02*
X059000Y053430D01*
X032663Y053430D01*
X032658Y053480D01*
X032685Y053485D01*
X032715Y053505D01*
X032715Y053505D01*
X032715Y053505D01*
X032820Y053610D01*
X032880Y053598D01*
X032957Y053614D01*
X033023Y053657D01*
X033066Y053723D01*
X033070Y053743D01*
X033118Y053757D01*
X033136Y053739D01*
X033166Y053719D01*
X033201Y053712D01*
X037884Y053712D01*
X037919Y053719D01*
X037949Y053739D01*
X037949Y053739D01*
X037949Y053739D01*
X038345Y054135D01*
X038365Y054165D01*
X038372Y054200D01*
X038372Y054200D01*
X038372Y054200D01*
X038372Y054200D01*
X038372Y054289D01*
X038422Y054293D01*
X038426Y054263D01*
X038467Y054163D01*
X038533Y054078D01*
X038618Y054012D01*
X038718Y053971D01*
X038825Y053956D01*
X038932Y053971D01*
X039032Y054012D01*
X039117Y054078D01*
X039122Y054083D01*
X039175Y054094D01*
X039181Y054094D01*
X039200Y054065D01*
X039700Y053565D01*
X039730Y053545D01*
X039765Y053538D01*
X046760Y053538D01*
X046795Y053545D01*
X046825Y053565D01*
X046825Y053565D01*
X046825Y053565D01*
X047281Y054021D01*
X047293Y054012D01*
X047393Y053971D01*
X047500Y053956D01*
X047607Y053971D01*
X047707Y054012D01*
X047792Y054078D01*
X047858Y054163D01*
X047899Y054263D01*
X047908Y054331D01*
X047958Y054327D01*
X047958Y054190D01*
X047958Y054190D01*
X047958Y054190D01*
X047965Y054155D01*
X047985Y054125D01*
X048247Y053863D01*
X048277Y053843D01*
X048283Y053842D01*
X048312Y053836D01*
X049688Y053836D01*
X049723Y053843D01*
X049753Y053863D01*
X049753Y053863D01*
X049753Y053863D01*
X050008Y054118D01*
X050027Y054148D01*
X050034Y054183D01*
X050034Y054183D01*
X050034Y054183D01*
X050034Y054183D01*
X050034Y054553D01*
X050027Y054588D01*
X050008Y054618D01*
X049672Y054953D01*
X049682Y055002D01*
X049707Y055012D01*
X049792Y055078D01*
X049858Y055163D01*
X049899Y055263D01*
X049901Y055278D01*
X053720Y055278D01*
X053755Y055285D01*
X053785Y055305D01*
X053919Y055439D01*
X053939Y055469D01*
X053946Y055504D01*
X053946Y059190D01*
X053960Y059190D01*
X053960Y059190D01*
X054360Y059190D01*
X054360Y059640D01*
X054360Y060090D01*
X054090Y060090D01*
X053905Y060275D01*
X053875Y060295D01*
X053840Y060302D01*
X052175Y060302D01*
X052146Y060296D01*
X052140Y060295D01*
X052110Y060275D01*
X051785Y059950D01*
X051765Y059920D01*
X051765Y059920D01*
X051765Y059920D01*
X051765Y059920D01*
X051765Y059920D01*
X051765Y059920D01*
X051746Y059885D01*
X051739Y059885D01*
X051702Y059932D01*
X051622Y059994D01*
X051622Y063530D01*
X051720Y063530D01*
X051720Y063780D01*
X051720Y064030D01*
X051680Y064030D01*
X051661Y064076D01*
X051703Y064118D01*
X051770Y064118D01*
X051779Y064120D01*
X051980Y064120D01*
X051980Y064298D01*
X052626Y064298D01*
X052629Y064294D01*
X052691Y064247D01*
X052763Y064217D01*
X052840Y064207D01*
X052917Y064217D01*
X052984Y064245D01*
X053003Y064230D01*
X053021Y064205D01*
X053018Y064190D01*
X053034Y064113D01*
X053077Y064047D01*
X053143Y064004D01*
X053220Y063988D01*
X053297Y064004D01*
X053363Y064047D01*
X053406Y064113D01*
X053422Y064190D01*
X053406Y064267D01*
X053398Y064279D01*
X053526Y064408D01*
X054332Y064408D01*
X054353Y064356D01*
X054400Y064294D01*
X054462Y064247D01*
X054534Y064217D01*
X054612Y064207D01*
X054689Y064217D01*
X054761Y064247D01*
X054823Y064294D01*
X054870Y064356D01*
X054900Y064428D01*
X054910Y064506D01*
X054910Y065214D01*
X054900Y065292D01*
X054870Y065364D01*
X054837Y065407D01*
X054860Y065451D01*
X055290Y065451D01*
X057395Y063346D01*
X057376Y063300D01*
X057140Y063300D01*
X057140Y063142D01*
X055910Y063142D01*
X055910Y063250D01*
X055710Y063250D01*
X055710Y063000D01*
X055710Y062750D01*
X055910Y062750D01*
X055910Y062958D01*
X057140Y062958D01*
X057140Y062800D01*
X057325Y062800D01*
X057344Y062754D01*
X057301Y062710D01*
X057180Y062710D01*
X057180Y062509D01*
X057178Y062500D01*
X057180Y062491D01*
X057180Y062342D01*
X055870Y062342D01*
X055870Y062660D01*
X055502Y062660D01*
X055502Y062712D01*
X055540Y062750D01*
X055610Y062750D01*
X055610Y062950D01*
X055410Y062950D01*
X055410Y062880D01*
X055345Y062815D01*
X055325Y062785D01*
X055318Y062750D01*
X055318Y060678D01*
X054730Y060090D01*
X054460Y060090D01*
X054460Y059690D01*
X054860Y059690D01*
X054860Y059960D01*
X055475Y060575D01*
X055495Y060605D01*
X055502Y060640D01*
X055502Y060640D01*
X055502Y060640D01*
X055502Y060640D01*
X055502Y062056D01*
X055534Y062078D01*
X055548Y062084D01*
X055566Y062066D01*
X055618Y062031D01*
X055628Y062029D01*
X055680Y062018D01*
X057865Y062018D01*
X057927Y062031D01*
X057979Y062066D01*
X058736Y062822D01*
X058771Y062875D01*
X058783Y062937D01*
X058783Y062937D01*
X058783Y062937D01*
X058783Y062937D01*
X058783Y063248D01*
X058773Y063300D01*
X058771Y063310D01*
X058736Y063363D01*
X057870Y064228D01*
X057818Y064263D01*
X057756Y064276D01*
X057614Y064276D01*
X057577Y064301D01*
X057500Y064316D01*
X057423Y064301D01*
X057357Y064257D01*
X057314Y064191D01*
X057298Y064114D01*
X057300Y064108D01*
X057256Y064084D01*
X055527Y065813D01*
X055458Y065859D01*
X055377Y065875D01*
X052953Y065875D01*
X052900Y065864D01*
X052812Y065952D01*
X052832Y065998D01*
X054682Y065998D01*
X054717Y066005D01*
X054747Y066025D01*
X054747Y066025D01*
X054747Y066025D01*
X056718Y067997D01*
X056729Y067989D01*
X056826Y067949D01*
X056930Y067935D01*
X057035Y067949D01*
X057128Y067988D01*
X057268Y067954D01*
X057430Y067941D01*
X057430Y069291D01*
X057430Y070642D01*
X057268Y070629D01*
X057128Y070595D01*
X057035Y070634D01*
X056930Y070647D01*
X056826Y070634D01*
X056775Y070613D01*
X056974Y070269D01*
X056887Y070219D01*
X056689Y070563D01*
X056645Y070529D01*
X056581Y070446D01*
X056541Y070348D01*
X056528Y070253D01*
X056523Y070249D01*
X056385Y070087D01*
X056274Y069906D01*
X056192Y069710D01*
X056185Y069678D01*
X056137Y069665D01*
X054989Y070812D01*
X054980Y070818D01*
X054995Y070866D01*
X059020Y070866D01*
X059055Y070831D01*
X059055Y070831D02*
G37*
G36*
X054908Y068225D02*
X054974Y068181D01*
X055051Y068166D01*
X055113Y068179D01*
X055137Y068135D01*
X054000Y066997D01*
X052191Y066997D01*
X051265Y067924D01*
X051272Y067960D01*
X051256Y068037D01*
X051247Y068052D01*
X051270Y068096D01*
X053075Y068096D01*
X053201Y067970D01*
X053194Y067934D01*
X053209Y067857D01*
X053253Y067791D01*
X053318Y067748D01*
X053395Y067732D01*
X053473Y067748D01*
X053538Y067791D01*
X053582Y067857D01*
X053597Y067934D01*
X053582Y068011D01*
X053538Y068077D01*
X053473Y068120D01*
X053395Y068136D01*
X053359Y068128D01*
X053278Y068209D01*
X053298Y068256D01*
X054888Y068256D01*
X054908Y068225D01*
X054908Y068225D02*
G37*
G36*
X046765Y068666D02*
X046758Y068630D01*
X046774Y068553D01*
X046780Y068543D01*
X046741Y068512D01*
X046546Y068707D01*
X046528Y068719D01*
X046510Y068731D01*
X046510Y068731D01*
X046510Y068731D01*
X046488Y068736D01*
X046467Y068740D01*
X046467Y068740D01*
X046467Y068740D01*
X046467Y068740D01*
X045743Y068743D01*
X045719Y068787D01*
X045736Y068813D01*
X045751Y068890D01*
X045736Y068967D01*
X045721Y068989D01*
X045745Y069034D01*
X046398Y069034D01*
X046765Y068666D01*
X046765Y068666D02*
G37*
G36*
X044272Y070818D02*
X044262Y070812D01*
X043435Y069985D01*
X043415Y069955D01*
X043408Y069920D01*
X043408Y069319D01*
X043402Y069319D01*
X043356Y069300D01*
X043337Y069254D01*
X043337Y069208D01*
X042787Y069208D01*
X042768Y069254D01*
X042914Y069400D01*
X042914Y069400D01*
X042938Y069437D01*
X042947Y069480D01*
X042947Y069880D01*
X042947Y069880D01*
X042938Y069922D01*
X042914Y069959D01*
X042370Y070502D01*
X042334Y070527D01*
X042291Y070535D01*
X042291Y070535D01*
X034651Y070535D01*
X034651Y070535D01*
X034608Y070527D01*
X034575Y070504D01*
X034538Y070512D01*
X034461Y070496D01*
X034396Y070453D01*
X034352Y070387D01*
X034337Y070310D01*
X034352Y070233D01*
X034396Y070167D01*
X034461Y070124D01*
X034538Y070108D01*
X034615Y070124D01*
X034681Y070167D01*
X034725Y070233D01*
X034740Y070310D01*
X034741Y070311D01*
X036980Y070311D01*
X037003Y070267D01*
X036990Y070247D01*
X036974Y070169D01*
X036990Y070092D01*
X037033Y070027D01*
X037099Y069983D01*
X037176Y069968D01*
X037253Y069983D01*
X037319Y070027D01*
X037339Y070057D01*
X037650Y070057D01*
X037674Y070013D01*
X037659Y069991D01*
X037644Y069913D01*
X037659Y069836D01*
X037703Y069771D01*
X037768Y069727D01*
X037845Y069712D01*
X037922Y069727D01*
X037988Y069771D01*
X038008Y069801D01*
X039950Y069801D01*
X039974Y069757D01*
X039934Y069697D01*
X039918Y069620D01*
X039934Y069543D01*
X039977Y069477D01*
X040043Y069434D01*
X040120Y069418D01*
X040197Y069434D01*
X040263Y069477D01*
X040306Y069543D01*
X040307Y069545D01*
X041176Y069545D01*
X041190Y069498D01*
X041165Y069481D01*
X041165Y069481D01*
X040438Y068753D01*
X040403Y068746D01*
X040337Y068703D01*
X040294Y068637D01*
X040291Y068624D01*
X040243Y068610D01*
X040163Y068690D01*
X040126Y068715D01*
X040084Y068723D01*
X040084Y068723D01*
X034208Y068723D01*
X034188Y068754D01*
X034122Y068797D01*
X034045Y068813D01*
X033968Y068797D01*
X033902Y068754D01*
X033859Y068688D01*
X033848Y068633D01*
X033800Y068618D01*
X033800Y068618D01*
X033800Y068618D01*
X033800Y068618D01*
X033800Y068618D01*
X033800Y068618D01*
X032309Y070109D01*
X032272Y070134D01*
X032229Y070142D01*
X032229Y070142D01*
X031083Y070142D01*
X031063Y070173D01*
X030997Y070216D01*
X030920Y070232D01*
X030843Y070216D01*
X030777Y070173D01*
X030734Y070107D01*
X030718Y070030D01*
X030734Y069953D01*
X030777Y069887D01*
X030843Y069844D01*
X030920Y069828D01*
X030997Y069844D01*
X031063Y069887D01*
X031083Y069918D01*
X032183Y069918D01*
X033868Y068233D01*
X033863Y068183D01*
X033817Y068153D01*
X033774Y068087D01*
X033758Y068010D01*
X033703Y067999D01*
X032698Y069004D01*
X032705Y069040D01*
X032690Y069117D01*
X032646Y069183D01*
X032581Y069226D01*
X032504Y069242D01*
X032426Y069226D01*
X032361Y069183D01*
X032317Y069117D01*
X032302Y069040D01*
X032317Y068963D01*
X032361Y068897D01*
X032426Y068854D01*
X032504Y068838D01*
X032539Y068845D01*
X034057Y067328D01*
X034038Y067282D01*
X026885Y067282D01*
X026862Y067326D01*
X026886Y067363D01*
X026902Y067440D01*
X026886Y067517D01*
X026843Y067583D01*
X026777Y067626D01*
X026700Y067642D01*
X026664Y067635D01*
X026625Y067674D01*
X026600Y067690D01*
X026615Y067738D01*
X027520Y067738D01*
X027541Y067708D01*
X027606Y067664D01*
X027683Y067649D01*
X027760Y067664D01*
X027826Y067708D01*
X027870Y067773D01*
X027885Y067850D01*
X027870Y067927D01*
X027855Y067950D01*
X027878Y067994D01*
X028430Y067994D01*
X028430Y067994D01*
X028473Y068003D01*
X028509Y068027D01*
X028558Y068075D01*
X028594Y068068D01*
X028671Y068084D01*
X028737Y068127D01*
X028780Y068193D01*
X028796Y068270D01*
X028780Y068347D01*
X028737Y068413D01*
X028671Y068456D01*
X028594Y068472D01*
X028517Y068456D01*
X028451Y068413D01*
X028408Y068347D01*
X028392Y068270D01*
X028395Y068257D01*
X028363Y068218D01*
X023779Y068218D01*
X023764Y068266D01*
X023789Y068283D01*
X023912Y068405D01*
X023948Y068398D01*
X024025Y068414D01*
X024090Y068457D01*
X024134Y068523D01*
X024149Y068600D01*
X024134Y068677D01*
X024090Y068743D01*
X024025Y068786D01*
X023948Y068802D01*
X023870Y068786D01*
X023805Y068743D01*
X023761Y068677D01*
X023746Y068600D01*
X023753Y068564D01*
X023663Y068474D01*
X022867Y068474D01*
X022852Y068522D01*
X022877Y068539D01*
X024174Y069835D01*
X024210Y069828D01*
X024287Y069844D01*
X024353Y069887D01*
X024396Y069953D01*
X024412Y070030D01*
X024396Y070107D01*
X024353Y070173D01*
X024287Y070216D01*
X024210Y070232D01*
X024133Y070216D01*
X024067Y070173D01*
X024024Y070107D01*
X024008Y070030D01*
X024015Y069994D01*
X022752Y068730D01*
X021713Y068730D01*
X021698Y068778D01*
X021723Y068795D01*
X023216Y070288D01*
X024917Y070288D01*
X024937Y070257D01*
X025003Y070214D01*
X025080Y070198D01*
X025157Y070214D01*
X025223Y070257D01*
X025266Y070323D01*
X025282Y070400D01*
X025266Y070477D01*
X025223Y070543D01*
X025157Y070586D01*
X025080Y070602D01*
X025003Y070586D01*
X024937Y070543D01*
X024917Y070512D01*
X023170Y070512D01*
X023170Y070512D01*
X023127Y070504D01*
X023091Y070479D01*
X023091Y070479D01*
X021597Y068986D01*
X019719Y068986D01*
X019705Y069034D01*
X019730Y069050D01*
X020605Y069925D01*
X020641Y069918D01*
X020718Y069934D01*
X020783Y069977D01*
X020827Y070043D01*
X020842Y070120D01*
X020827Y070197D01*
X020783Y070263D01*
X020772Y070270D01*
X020787Y070318D01*
X021817Y070318D01*
X021837Y070287D01*
X021903Y070244D01*
X021980Y070228D01*
X022057Y070244D01*
X022122Y070287D01*
X022166Y070353D01*
X022182Y070430D01*
X022166Y070507D01*
X022122Y070573D01*
X022057Y070616D01*
X021980Y070632D01*
X021903Y070616D01*
X021837Y070573D01*
X021817Y070542D01*
X018631Y070542D01*
X018631Y070542D01*
X018588Y070534D01*
X018552Y070509D01*
X018552Y070509D01*
X018205Y070162D01*
X018096Y070162D01*
X018082Y070210D01*
X018145Y070252D01*
X018189Y070318D01*
X018204Y070395D01*
X018189Y070472D01*
X018145Y070538D01*
X018080Y070581D01*
X018003Y070597D01*
X017926Y070581D01*
X017860Y070538D01*
X017816Y070472D01*
X017801Y070395D01*
X017791Y070382D01*
X016899Y070382D01*
X016856Y070374D01*
X016820Y070350D01*
X016820Y070350D01*
X016736Y070266D01*
X016445Y070266D01*
X016445Y070273D01*
X016445Y070273D01*
X016445Y070289D01*
X016445Y070303D01*
X016445Y070309D01*
X016445Y070309D01*
X016445Y070309D01*
X016445Y070529D01*
X015825Y070529D01*
X015825Y070521D01*
X015790Y070521D01*
X015763Y070563D01*
X015697Y070606D01*
X015620Y070622D01*
X015543Y070606D01*
X015477Y070563D01*
X015434Y070497D01*
X015418Y070420D01*
X015434Y070343D01*
X015477Y070277D01*
X015543Y070234D01*
X015620Y070218D01*
X015697Y070234D01*
X015763Y070277D01*
X015776Y070297D01*
X015825Y070297D01*
X015825Y070289D01*
X015825Y070289D01*
X015825Y070273D01*
X015825Y070254D01*
X015825Y070254D01*
X015825Y070254D01*
X015825Y070033D01*
X015825Y070033D01*
X015825Y070017D01*
X015825Y070017D01*
X015825Y069777D01*
X015825Y069777D01*
X015825Y069762D01*
X015825Y069762D01*
X015825Y069522D01*
X015825Y069522D01*
X015825Y069506D01*
X015825Y069506D01*
X015825Y069266D01*
X015825Y069266D01*
X015825Y069250D01*
X015825Y069250D01*
X015825Y069029D01*
X015825Y069029D01*
X015825Y069029D01*
X015825Y069010D01*
X015825Y069002D01*
X015825Y068994D01*
X015825Y068974D01*
X015825Y068974D01*
X015825Y068974D01*
X015825Y068773D01*
X015825Y068773D01*
X015825Y068773D01*
X015825Y068754D01*
X015825Y068746D01*
X015825Y068738D01*
X015825Y068719D01*
X015825Y068719D01*
X015825Y068719D01*
X015825Y068517D01*
X015825Y068517D01*
X015825Y068517D01*
X015825Y068498D01*
X015825Y068490D01*
X015825Y068482D01*
X015825Y068463D01*
X015825Y068463D01*
X015825Y068463D01*
X015825Y068261D01*
X015825Y068261D01*
X015825Y068261D01*
X015825Y068242D01*
X015825Y068234D01*
X015825Y068226D01*
X015825Y068207D01*
X015825Y068207D01*
X015825Y068207D01*
X015825Y067986D01*
X015825Y067986D01*
X015825Y067970D01*
X015825Y067970D01*
X015825Y067750D01*
X015825Y067750D01*
X015825Y067750D01*
X015825Y067730D01*
X015825Y067722D01*
X015825Y067714D01*
X015825Y067695D01*
X015825Y067695D01*
X015825Y067695D01*
X015825Y067474D01*
X015825Y067474D01*
X015825Y067458D01*
X015825Y067458D01*
X015825Y067238D01*
X015825Y067238D01*
X015825Y067238D01*
X015825Y067218D01*
X015825Y067210D01*
X015825Y067203D01*
X015825Y067183D01*
X015825Y067183D01*
X015825Y067183D01*
X015825Y066982D01*
X015825Y066982D01*
X015825Y066982D01*
X015825Y066962D01*
X015825Y066955D01*
X015825Y066947D01*
X015825Y066927D01*
X015825Y066927D01*
X015825Y066927D01*
X015825Y066726D01*
X015825Y066726D01*
X015825Y066726D01*
X015825Y066707D01*
X015825Y066699D01*
X015825Y066691D01*
X015825Y066671D01*
X015825Y066671D01*
X015825Y066671D01*
X015825Y066451D01*
X016445Y066451D01*
X016445Y066451D01*
X016461Y066451D01*
X016675Y066236D01*
X016668Y066200D01*
X016684Y066123D01*
X016697Y066102D01*
X016674Y066058D01*
X013324Y066058D01*
X013018Y066364D01*
X013037Y066411D01*
X013075Y066411D01*
X013075Y066571D01*
X013175Y066571D01*
X013175Y066411D01*
X013475Y066411D01*
X013475Y066479D01*
X014770Y066479D01*
X014805Y066486D01*
X014835Y066506D01*
X014835Y066506D01*
X014835Y066506D01*
X014925Y066596D01*
X014945Y066626D01*
X014952Y066661D01*
X014952Y066661D01*
X014952Y066661D01*
X014952Y066661D01*
X014952Y067532D01*
X015539Y067532D01*
X015539Y068440D01*
X014630Y068440D01*
X014630Y068540D01*
X015539Y068540D01*
X015539Y069448D01*
X015407Y069448D01*
X015407Y070125D01*
X015401Y070154D01*
X015400Y070160D01*
X015380Y070190D01*
X014779Y070791D01*
X014749Y070811D01*
X014721Y070816D01*
X014726Y070866D01*
X044257Y070866D01*
X044272Y070818D01*
X044272Y070818D02*
G37*
G36*
X043598Y069148D02*
X043638Y069148D01*
X043638Y069108D01*
X043362Y069108D01*
X043362Y069148D01*
X043402Y069148D01*
X043402Y069254D01*
X043598Y069254D01*
X043598Y069148D01*
X043598Y069148D02*
G37*
G36*
X055213Y068678D02*
X055213Y068550D01*
X055169Y068526D01*
X055128Y068554D01*
X055051Y068569D01*
X054974Y068554D01*
X054908Y068510D01*
X054888Y068480D01*
X050791Y068480D01*
X050791Y068480D01*
X050748Y068471D01*
X050712Y068447D01*
X050712Y068447D01*
X050575Y068310D01*
X050521Y068310D01*
X050506Y068358D01*
X050547Y068385D01*
X050591Y068451D01*
X050606Y068528D01*
X050591Y068605D01*
X050547Y068670D01*
X050482Y068714D01*
X050462Y068718D01*
X050466Y068768D01*
X055124Y068768D01*
X055213Y068678D01*
X055213Y068678D02*
G37*
G36*
X010784Y062863D02*
X011052Y062863D01*
X011052Y061430D01*
X010951Y061430D01*
X010927Y061474D01*
X010946Y061503D01*
X010962Y061580D01*
X010946Y061657D01*
X010903Y061723D01*
X010837Y061767D01*
X010760Y061782D01*
X010683Y061767D01*
X010617Y061723D01*
X010574Y061657D01*
X010558Y061580D01*
X010574Y061503D01*
X010593Y061474D01*
X010569Y061430D01*
X010250Y061430D01*
X010250Y061170D01*
X007748Y058686D01*
X007702Y058705D01*
X007702Y061060D01*
X007788Y061060D01*
X007888Y060960D01*
X007888Y060960D01*
X007888Y060960D01*
X007888Y060960D01*
X007888Y060960D01*
X007888Y060960D01*
X007888Y060960D01*
X007888Y060960D01*
X007888Y060960D01*
X007888Y060960D01*
X007888Y060960D01*
X007888Y060960D01*
X007918Y060940D01*
X007953Y060933D01*
X009090Y060933D01*
X009125Y060940D01*
X009154Y060960D01*
X009355Y061160D01*
X009375Y061190D01*
X009382Y061225D01*
X009382Y062183D01*
X009433Y062217D01*
X009476Y062283D01*
X009492Y062360D01*
X009476Y062437D01*
X009433Y062503D01*
X009394Y062528D01*
X009394Y062578D01*
X009438Y062607D01*
X009472Y062658D01*
X009669Y062658D01*
X009704Y062665D01*
X009733Y062685D01*
X009733Y062685D01*
X009733Y062685D01*
X009858Y062810D01*
X009878Y062840D01*
X009883Y062863D01*
X010154Y062863D01*
X010154Y063928D01*
X010784Y063928D01*
X010784Y062863D01*
X010784Y062863D02*
G37*
G36*
X029490Y063270D02*
X029478Y063210D01*
X029494Y063133D01*
X029537Y063067D01*
X029601Y063025D01*
X029611Y062976D01*
X029595Y062952D01*
X029580Y062875D01*
X029595Y062798D01*
X029639Y062732D01*
X029704Y062689D01*
X029761Y062677D01*
X029771Y062628D01*
X029717Y062593D01*
X029674Y062527D01*
X029658Y062450D01*
X029674Y062373D01*
X029717Y062307D01*
X029783Y062264D01*
X029860Y062248D01*
X029937Y062264D01*
X030003Y062307D01*
X030047Y062277D01*
X030047Y061895D01*
X030001Y061876D01*
X027758Y064120D01*
X027728Y064140D01*
X027720Y064141D01*
X027725Y064191D01*
X028569Y064191D01*
X029490Y063270D01*
X029490Y063270D02*
G37*
G36*
X017133Y064262D02*
X017124Y064247D01*
X017108Y064170D01*
X017124Y064093D01*
X017167Y064027D01*
X017233Y063984D01*
X017310Y063968D01*
X017387Y063984D01*
X017453Y064027D01*
X017487Y064078D01*
X019243Y064078D01*
X019262Y064032D01*
X019045Y063815D01*
X019025Y063785D01*
X019018Y063750D01*
X019018Y063260D01*
X018900Y063260D01*
X018900Y062902D01*
X015536Y062902D01*
X015480Y062958D01*
X015519Y063053D01*
X015534Y063160D01*
X015519Y063267D01*
X015480Y063362D01*
X015555Y063436D01*
X015731Y063436D01*
X015731Y063436D01*
X015774Y063445D01*
X015811Y063469D01*
X016647Y064306D01*
X017110Y064306D01*
X017133Y064262D01*
X017133Y064262D02*
G37*
G36*
X021114Y062727D02*
X021126Y062706D01*
X021125Y062705D01*
X021124Y062701D01*
X021123Y062698D01*
X021121Y062684D01*
X021118Y062670D01*
X021118Y061010D01*
X021052Y061010D01*
X021052Y061020D01*
X021046Y061049D01*
X021045Y061055D01*
X021025Y061085D01*
X020925Y061185D01*
X020895Y061205D01*
X020860Y061212D01*
X018157Y061212D01*
X018123Y061263D01*
X018057Y061306D01*
X017980Y061322D01*
X017903Y061306D01*
X017837Y061263D01*
X017830Y061252D01*
X017782Y061266D01*
X017782Y061714D01*
X017824Y061755D01*
X017860Y061748D01*
X017937Y061764D01*
X018003Y061807D01*
X018046Y061873D01*
X018062Y061950D01*
X018046Y062027D01*
X018028Y062054D01*
X018052Y062098D01*
X020310Y062098D01*
X020345Y062105D01*
X020375Y062125D01*
X020375Y062125D01*
X020375Y062125D01*
X021000Y062750D01*
X021073Y062750D01*
X021114Y062727D01*
X021114Y062727D02*
G37*
G36*
X048060Y062287D02*
X048046Y062252D01*
X033040Y062252D01*
X033040Y062328D01*
X048033Y062328D01*
X048060Y062287D01*
X048060Y062287D02*
G37*
G36*
X030905Y063195D02*
X030905Y063195D01*
X030925Y063165D01*
X031482Y062608D01*
X031463Y062562D01*
X031138Y062562D01*
X031010Y062690D01*
X031022Y062750D01*
X031006Y062827D01*
X030963Y062893D01*
X030897Y062936D01*
X030820Y062952D01*
X030800Y062948D01*
X030772Y062989D01*
X030776Y062996D01*
X030792Y063073D01*
X030776Y063150D01*
X030733Y063216D01*
X030667Y063259D01*
X030590Y063275D01*
X030513Y063259D01*
X030486Y063241D01*
X030442Y063265D01*
X030442Y063548D01*
X030552Y063548D01*
X030905Y063195D01*
X030905Y063195D02*
G37*
G36*
X031819Y064362D02*
X031809Y064347D01*
X031793Y064270D01*
X031809Y064193D01*
X031852Y064127D01*
X031918Y064084D01*
X031972Y064073D01*
X033367Y062678D01*
X033348Y062632D01*
X033100Y062632D01*
X032707Y063025D01*
X032677Y063045D01*
X032642Y063052D01*
X032027Y063052D01*
X031993Y063103D01*
X031927Y063146D01*
X031850Y063162D01*
X031773Y063146D01*
X031707Y063103D01*
X031664Y063037D01*
X031659Y063013D01*
X031611Y062999D01*
X031457Y063153D01*
X031476Y063183D01*
X031492Y063260D01*
X031476Y063337D01*
X031433Y063403D01*
X031367Y063446D01*
X031290Y063462D01*
X031213Y063446D01*
X031147Y063403D01*
X031104Y063337D01*
X031101Y063322D01*
X031053Y063307D01*
X030655Y063705D01*
X030625Y063725D01*
X030590Y063732D01*
X030442Y063732D01*
X030442Y063880D01*
X030435Y063915D01*
X030415Y063945D01*
X030290Y064070D01*
X030290Y064140D01*
X030040Y064140D01*
X030040Y064240D01*
X030290Y064240D01*
X030290Y064310D01*
X030386Y064406D01*
X031795Y064406D01*
X031819Y064362D01*
X031819Y064362D02*
G37*
G36*
X041722Y062024D02*
X041704Y061997D01*
X041688Y061920D01*
X041700Y061860D01*
X041654Y061814D01*
X033472Y061814D01*
X033449Y061857D01*
X033458Y061900D01*
X033225Y061900D01*
X033225Y062000D01*
X033458Y062000D01*
X033452Y062030D01*
X033483Y062068D01*
X041698Y062068D01*
X041722Y062024D01*
X041722Y062024D02*
G37*
G36*
X020870Y063050D02*
X021120Y063050D01*
X021120Y062950D01*
X020870Y062950D01*
X020870Y062880D01*
X020272Y062282D01*
X017770Y062282D01*
X017741Y062276D01*
X017735Y062275D01*
X017705Y062255D01*
X017702Y062252D01*
X015562Y062252D01*
X015558Y062277D01*
X015513Y062387D01*
X015441Y062481D01*
X015405Y062508D01*
X015421Y062556D01*
X019497Y062556D01*
X019532Y062563D01*
X019562Y062582D01*
X019562Y062582D01*
X019562Y062582D01*
X019725Y062745D01*
X019745Y062775D01*
X019752Y062810D01*
X019752Y062810D01*
X019752Y062810D01*
X019812Y062840D01*
X019870Y062840D01*
X019870Y063198D01*
X020870Y063198D01*
X020870Y063050D01*
X020870Y063050D02*
G37*
G36*
X058460Y063181D02*
X058460Y063004D01*
X057798Y062342D01*
X057600Y062342D01*
X057600Y062411D01*
X057677Y062488D01*
X057711Y062494D01*
X057780Y062540D01*
X057900Y062661D01*
X057946Y062729D01*
X057962Y062810D01*
X057962Y062810D01*
X057962Y063290D01*
X057946Y063371D01*
X057900Y063440D01*
X057470Y063870D01*
X057494Y063914D01*
X057500Y063913D01*
X057577Y063928D01*
X057614Y063953D01*
X057689Y063953D01*
X058460Y063181D01*
X058460Y063181D02*
G37*
G36*
X021558Y060970D02*
X021550Y060970D01*
X021550Y060615D01*
X021504Y060596D01*
X021460Y060640D01*
X021460Y060710D01*
X021260Y060710D01*
X021260Y060510D01*
X021330Y060510D01*
X021698Y060142D01*
X021698Y059340D01*
X021632Y059340D01*
X021632Y059650D01*
X021625Y059685D01*
X021605Y059715D01*
X021052Y060268D01*
X021052Y060510D01*
X021160Y060510D01*
X021160Y060760D01*
X021210Y060760D01*
X021210Y060810D01*
X021460Y060810D01*
X021460Y061010D01*
X021302Y061010D01*
X021302Y062636D01*
X021390Y062741D01*
X021397Y062753D01*
X021405Y062765D01*
X021406Y062769D01*
X021407Y062772D01*
X021409Y062786D01*
X021410Y062790D01*
X021460Y062790D01*
X021460Y062790D01*
X021460Y062790D01*
X021558Y062790D01*
X021558Y060970D01*
X021558Y060970D02*
G37*
G36*
X029710Y061395D02*
X029698Y061335D01*
X029714Y061258D01*
X029757Y061192D01*
X029823Y061149D01*
X029900Y061133D01*
X029977Y061149D01*
X029992Y061159D01*
X030008Y061150D01*
X030005Y061152D01*
X030012Y061102D01*
X029794Y060884D01*
X029774Y060854D01*
X029767Y060819D01*
X029767Y059443D01*
X029767Y059443D01*
X029767Y059443D01*
X029774Y059408D01*
X029794Y059378D01*
X030358Y058814D01*
X030388Y058795D01*
X030393Y058793D01*
X030423Y058788D01*
X030510Y058788D01*
X030510Y058662D01*
X029178Y058662D01*
X028870Y058970D01*
X028870Y059040D01*
X028370Y059040D01*
X028370Y059014D01*
X028324Y058995D01*
X027639Y059679D01*
X027603Y059704D01*
X027560Y059712D01*
X027560Y059712D01*
X027531Y059712D01*
X027503Y059754D01*
X027514Y059780D01*
X027530Y059780D01*
X027530Y060135D01*
X027576Y060154D01*
X028328Y059402D01*
X028328Y059290D01*
X028328Y059290D01*
X028328Y059290D01*
X028335Y059255D01*
X028355Y059225D01*
X028370Y059210D01*
X028370Y059140D01*
X028570Y059140D01*
X028570Y059340D01*
X028512Y059340D01*
X028512Y059440D01*
X028505Y059475D01*
X028485Y059505D01*
X027595Y060395D01*
X027595Y060425D01*
X027602Y060450D01*
X027630Y060455D01*
X027660Y060475D01*
X027995Y060811D01*
X028073Y060826D01*
X028151Y060879D01*
X028204Y060957D01*
X028213Y061000D01*
X027747Y061000D01*
X027756Y060957D01*
X027807Y060881D01*
X027668Y060743D01*
X027622Y060762D01*
X027622Y062470D01*
X027616Y062499D01*
X027615Y062505D01*
X027595Y062535D01*
X027540Y062590D01*
X027540Y062660D01*
X027340Y062660D01*
X027340Y062460D01*
X027410Y062460D01*
X027438Y062432D01*
X027438Y062370D01*
X027080Y062370D01*
X027080Y062109D01*
X026981Y062009D01*
X026956Y061973D01*
X026948Y061930D01*
X026948Y061930D01*
X026948Y060842D01*
X026687Y060842D01*
X026686Y060845D01*
X026642Y060910D01*
X026577Y060954D01*
X026500Y060969D01*
X026423Y060954D01*
X026357Y060910D01*
X026313Y060845D01*
X026313Y060842D01*
X025977Y060842D01*
X025958Y060888D01*
X026200Y061130D01*
X026260Y061118D01*
X026337Y061134D01*
X026403Y061177D01*
X026446Y061243D01*
X026462Y061320D01*
X026446Y061397D01*
X026403Y061463D01*
X026337Y061506D01*
X026260Y061522D01*
X026183Y061506D01*
X026117Y061463D01*
X026074Y061397D01*
X026058Y061320D01*
X026070Y061260D01*
X025781Y060970D01*
X023488Y060970D01*
X023464Y061014D01*
X023476Y061033D01*
X023492Y061110D01*
X023480Y061170D01*
X025278Y062968D01*
X027040Y062968D01*
X027040Y062960D01*
X027040Y062960D01*
X027040Y062760D01*
X027540Y062760D01*
X027540Y062960D01*
X027540Y062960D01*
X027540Y062960D01*
X027548Y062968D01*
X028137Y062968D01*
X029710Y061395D01*
X029710Y061395D02*
G37*
G36*
X009434Y062949D02*
X009390Y062925D01*
X009373Y062936D01*
X009295Y062952D01*
X009218Y062936D01*
X009153Y062893D01*
X009109Y062827D01*
X009094Y062750D01*
X009109Y062673D01*
X009153Y062607D01*
X009191Y062582D01*
X009191Y062532D01*
X009147Y062503D01*
X009104Y062437D01*
X009088Y062360D01*
X009104Y062283D01*
X009147Y062217D01*
X009198Y062183D01*
X009198Y061263D01*
X009052Y061116D01*
X008350Y061116D01*
X008350Y061350D01*
X008453Y061453D01*
X008472Y061483D01*
X008474Y061488D01*
X008479Y061518D01*
X008479Y062863D01*
X008748Y062863D01*
X008748Y063928D01*
X009434Y063928D01*
X009434Y062949D01*
X009434Y062949D02*
G37*
%LPC*%
G36*
X017885Y055780D02*
X017065Y055780D01*
X017065Y054960D01*
X017885Y054960D01*
X017885Y055780D01*
X017885Y055780D02*
G37*
G36*
X054947Y063335D02*
X052504Y063335D01*
X052504Y060656D01*
X054947Y060656D01*
X054947Y063335D01*
X054947Y063335D02*
G37*
G36*
X027240Y062660D02*
X027040Y062660D01*
X027040Y062460D01*
X027240Y062460D01*
X027240Y062660D01*
X027240Y062660D02*
G37*
G36*
X046500Y054784D02*
X046393Y054769D01*
X046293Y054728D01*
X046208Y054662D01*
X046142Y054577D01*
X046101Y054477D01*
X046086Y054370D01*
X046101Y054263D01*
X046142Y054163D01*
X046208Y054078D01*
X046293Y054012D01*
X046393Y053971D01*
X046500Y053956D01*
X046607Y053971D01*
X046707Y054012D01*
X046792Y054078D01*
X046858Y054163D01*
X046899Y054263D01*
X046914Y054370D01*
X046899Y054477D01*
X046858Y054577D01*
X046792Y054662D01*
X046707Y054728D01*
X046607Y054769D01*
X046500Y054784D01*
X046500Y054784D02*
G37*
G36*
X009210Y054780D02*
X008390Y054780D01*
X008390Y053960D01*
X009210Y053960D01*
X009210Y054780D01*
X009210Y054780D02*
G37*
G36*
X058030Y070647D02*
X057926Y070634D01*
X057833Y070595D01*
X057692Y070629D01*
X057530Y070642D01*
X057530Y069291D01*
X057530Y067941D01*
X057692Y067954D01*
X057833Y067988D01*
X057926Y067949D01*
X058030Y067935D01*
X058135Y067949D01*
X058185Y067970D01*
X057987Y068314D01*
X058074Y068364D01*
X058272Y068020D01*
X058316Y068053D01*
X058380Y068137D01*
X058420Y068234D01*
X058433Y068329D01*
X058438Y068334D01*
X058576Y068495D01*
X058687Y068677D01*
X058768Y068873D01*
X058785Y068945D01*
X058866Y069006D01*
X058930Y069090D01*
X058970Y069187D01*
X058977Y069241D01*
X058580Y069241D01*
X058580Y069341D01*
X058977Y069341D01*
X058970Y069396D01*
X058930Y069493D01*
X058866Y069577D01*
X058785Y069638D01*
X058768Y069710D01*
X058687Y069906D01*
X058576Y070087D01*
X058438Y070249D01*
X058433Y070253D01*
X058420Y070348D01*
X058380Y070446D01*
X058316Y070529D01*
X058272Y070563D01*
X058074Y070219D01*
X057987Y070269D01*
X058185Y070613D01*
X058135Y070634D01*
X058030Y070647D01*
X058030Y070647D02*
G37*
G36*
X045500Y054784D02*
X045393Y054769D01*
X045293Y054728D01*
X045208Y054662D01*
X045142Y054577D01*
X045101Y054477D01*
X045086Y054370D01*
X045101Y054263D01*
X045142Y054163D01*
X045208Y054078D01*
X045293Y054012D01*
X045393Y053971D01*
X045500Y053956D01*
X045607Y053971D01*
X045707Y054012D01*
X045792Y054078D01*
X045858Y054163D01*
X045899Y054263D01*
X045914Y054370D01*
X045899Y054477D01*
X045858Y054577D01*
X045792Y054662D01*
X045707Y054728D01*
X045607Y054769D01*
X045500Y054784D01*
X045500Y054784D02*
G37*
G36*
X001180Y070466D02*
X001076Y070452D01*
X001025Y070431D01*
X001223Y070088D01*
X001137Y070038D01*
X000938Y070381D01*
X000895Y070348D01*
X000831Y070264D01*
X000790Y070167D01*
X000778Y070072D01*
X000772Y070068D01*
X000634Y069906D01*
X000523Y069725D01*
X000442Y069528D01*
X000425Y069457D01*
X000345Y069395D01*
X000281Y069312D01*
X000240Y069214D01*
X000233Y069160D01*
X000630Y069160D01*
X000630Y069060D01*
X000233Y069060D01*
X000240Y069006D01*
X000281Y068908D01*
X000345Y068825D01*
X000425Y068763D01*
X000442Y068692D01*
X000523Y068495D01*
X000634Y068314D01*
X000772Y068152D01*
X000778Y068148D01*
X000790Y068053D01*
X000831Y067956D01*
X000895Y067872D01*
X000938Y067839D01*
X001137Y068182D01*
X001223Y068132D01*
X001025Y067789D01*
X001076Y067768D01*
X001180Y067754D01*
X001284Y067768D01*
X001378Y067806D01*
X001518Y067772D01*
X001680Y067760D01*
X001680Y069110D01*
X001680Y070460D01*
X001518Y070448D01*
X001378Y070414D01*
X001284Y070452D01*
X001180Y070466D01*
X001180Y070466D02*
G37*
G36*
X028030Y061283D02*
X028030Y061100D01*
X028213Y061100D01*
X028204Y061143D01*
X028151Y061221D01*
X028073Y061274D01*
X028030Y061283D01*
X028030Y061283D02*
G37*
G36*
X027930Y061283D02*
X027887Y061274D01*
X027809Y061221D01*
X027756Y061143D01*
X027747Y061100D01*
X027930Y061100D01*
X027930Y061283D01*
X027930Y061283D02*
G37*
G36*
X000980Y062944D02*
X000873Y062929D01*
X000773Y062888D01*
X000688Y062822D01*
X000622Y062737D01*
X000581Y062637D01*
X000566Y062530D01*
X000581Y062423D01*
X000622Y062323D01*
X000688Y062238D01*
X000773Y062172D01*
X000873Y062131D01*
X000980Y062116D01*
X001087Y062131D01*
X001187Y062172D01*
X001272Y062238D01*
X001338Y062323D01*
X001379Y062423D01*
X001394Y062530D01*
X001379Y062637D01*
X001338Y062737D01*
X001272Y062822D01*
X001187Y062888D01*
X001087Y062929D01*
X000980Y062944D01*
X000980Y062944D02*
G37*
G36*
X000980Y061944D02*
X000873Y061929D01*
X000773Y061888D01*
X000688Y061822D01*
X000622Y061737D01*
X000581Y061637D01*
X000566Y061530D01*
X000581Y061423D01*
X000622Y061323D01*
X000688Y061238D01*
X000773Y061172D01*
X000873Y061131D01*
X000980Y061116D01*
X001087Y061131D01*
X001187Y061172D01*
X001272Y061238D01*
X001338Y061323D01*
X001379Y061423D01*
X001394Y061530D01*
X001379Y061637D01*
X001338Y061737D01*
X001272Y061822D01*
X001187Y061888D01*
X001087Y061929D01*
X000980Y061944D01*
X000980Y061944D02*
G37*
G36*
X005290Y063430D02*
X005090Y063430D01*
X005090Y063230D01*
X005290Y063230D01*
X005290Y063430D01*
X005290Y063430D02*
G37*
G36*
X019880Y065100D02*
X019680Y065100D01*
X019680Y064900D01*
X019880Y064900D01*
X019880Y065100D01*
X019880Y065100D02*
G37*
G36*
X028870Y059340D02*
X028670Y059340D01*
X028670Y059140D01*
X028870Y059140D01*
X028870Y059340D01*
X028870Y059340D02*
G37*
G36*
X054860Y059590D02*
X054460Y059590D01*
X054460Y059190D01*
X054730Y059190D01*
X054828Y059092D01*
X054828Y058953D01*
X054835Y058918D01*
X054855Y058888D01*
X057078Y056665D01*
X057078Y056547D01*
X056958Y056537D01*
X056818Y056504D01*
X056724Y056542D01*
X056620Y056556D01*
X056516Y056542D01*
X056465Y056521D01*
X056663Y056178D01*
X056577Y056128D01*
X056378Y056471D01*
X056335Y056438D01*
X056271Y056354D01*
X056230Y056257D01*
X056218Y056162D01*
X056212Y056158D01*
X056074Y055996D01*
X055963Y055815D01*
X055882Y055618D01*
X055865Y055547D01*
X055785Y055485D01*
X055721Y055402D01*
X055680Y055304D01*
X055673Y055250D01*
X056070Y055250D01*
X056070Y055150D01*
X055673Y055150D01*
X055680Y055096D01*
X055721Y054998D01*
X055785Y054915D01*
X055865Y054853D01*
X055882Y054782D01*
X055963Y054585D01*
X056074Y054404D01*
X056212Y054242D01*
X056218Y054238D01*
X056230Y054143D01*
X056271Y054046D01*
X056335Y053962D01*
X056378Y053929D01*
X056577Y054272D01*
X056663Y054222D01*
X056465Y053879D01*
X056516Y053858D01*
X056620Y053844D01*
X056724Y053858D01*
X056818Y053896D01*
X056958Y053863D01*
X057120Y053850D01*
X057120Y055200D01*
X057220Y055200D01*
X057220Y053850D01*
X057382Y053863D01*
X057522Y053896D01*
X057616Y053858D01*
X057720Y053844D01*
X057824Y053858D01*
X057875Y053879D01*
X057677Y054222D01*
X057763Y054272D01*
X057962Y053929D01*
X058005Y053962D01*
X058069Y054046D01*
X058110Y054143D01*
X058122Y054238D01*
X058128Y054242D01*
X058266Y054404D01*
X058377Y054585D01*
X058458Y054782D01*
X058475Y054853D01*
X058555Y054915D01*
X058619Y054998D01*
X058660Y055096D01*
X058667Y055150D01*
X058270Y055150D01*
X058270Y055250D01*
X058667Y055250D01*
X058660Y055304D01*
X058619Y055402D01*
X058555Y055485D01*
X058475Y055547D01*
X058458Y055618D01*
X058377Y055815D01*
X058266Y055996D01*
X058128Y056158D01*
X058122Y056162D01*
X058110Y056257D01*
X058069Y056354D01*
X058005Y056438D01*
X057962Y056471D01*
X057763Y056128D01*
X057677Y056178D01*
X057875Y056521D01*
X057824Y056542D01*
X057720Y056556D01*
X057616Y056542D01*
X057522Y056504D01*
X057382Y056537D01*
X057262Y056547D01*
X057262Y056703D01*
X057255Y056738D01*
X057235Y056768D01*
X055012Y058991D01*
X055012Y059130D01*
X055005Y059165D01*
X054985Y059195D01*
X054860Y059320D01*
X054860Y059590D01*
X054860Y059590D02*
G37*
G36*
X002310Y056586D02*
X002206Y056572D01*
X002112Y056534D01*
X001972Y056568D01*
X001810Y056580D01*
X001810Y055230D01*
X001810Y053880D01*
X001972Y053892D01*
X002112Y053926D01*
X002206Y053888D01*
X002310Y053874D01*
X002414Y053888D01*
X002465Y053909D01*
X002267Y054252D01*
X002353Y054302D01*
X002552Y053959D01*
X002595Y053992D01*
X002659Y054076D01*
X002700Y054173D01*
X002712Y054268D01*
X002718Y054272D01*
X002856Y054434D01*
X002967Y054615D01*
X003048Y054812D01*
X003065Y054883D01*
X003145Y054945D01*
X003209Y055028D01*
X003250Y055126D01*
X003257Y055180D01*
X002860Y055180D01*
X002860Y055280D01*
X003257Y055280D01*
X003250Y055334D01*
X003209Y055432D01*
X003145Y055515D01*
X003065Y055577D01*
X003048Y055648D01*
X002967Y055845D01*
X002856Y056026D01*
X002718Y056188D01*
X002712Y056192D01*
X002700Y056287D01*
X002659Y056384D01*
X002595Y056468D01*
X002552Y056501D01*
X002353Y056158D01*
X002267Y056208D01*
X002465Y056551D01*
X002414Y056572D01*
X002310Y056586D01*
X002310Y056586D02*
G37*
G36*
X019880Y064800D02*
X019680Y064800D01*
X019680Y064600D01*
X019880Y064600D01*
X019880Y064800D01*
X019880Y064800D02*
G37*
G36*
X003230Y064750D02*
X003030Y064750D01*
X003030Y064550D01*
X003230Y064550D01*
X003230Y064750D01*
X003230Y064750D02*
G37*
G36*
X003530Y065050D02*
X003330Y065050D01*
X003330Y064800D01*
X003330Y064550D01*
X003530Y064550D01*
X003530Y064708D01*
X003682Y064708D01*
X004790Y063600D01*
X004790Y063530D01*
X004990Y063530D01*
X004990Y063730D01*
X004920Y063730D01*
X003785Y064865D01*
X003755Y064885D01*
X003720Y064892D01*
X003530Y064892D01*
X003530Y065050D01*
X003530Y065050D02*
G37*
G36*
X019580Y065100D02*
X019380Y065100D01*
X019380Y064900D01*
X019580Y064900D01*
X019580Y065100D01*
X019580Y065100D02*
G37*
G36*
X003230Y065050D02*
X003030Y065050D01*
X003030Y064850D01*
X003230Y064850D01*
X003230Y065050D01*
X003230Y065050D02*
G37*
G36*
X052020Y064030D02*
X051820Y064030D01*
X051820Y063780D01*
X051820Y063530D01*
X052020Y063530D01*
X052020Y063688D01*
X054842Y063688D01*
X055410Y063120D01*
X055410Y063050D01*
X055610Y063050D01*
X055610Y063250D01*
X055540Y063250D01*
X054945Y063845D01*
X054915Y063865D01*
X054880Y063872D01*
X052020Y063872D01*
X052020Y064030D01*
X052020Y064030D02*
G37*
G36*
X013550Y059780D02*
X013350Y059780D01*
X013350Y059580D01*
X013550Y059580D01*
X013550Y059780D01*
X013550Y059780D02*
G37*
G36*
X006937Y055985D02*
X006843Y055973D01*
X006755Y055936D01*
X006680Y055879D01*
X006622Y055803D01*
X006586Y055716D01*
X006574Y055622D01*
X006574Y055514D01*
X005492Y055514D01*
X005483Y055512D01*
X004406Y055512D01*
X004406Y055622D01*
X004394Y055716D01*
X004358Y055803D01*
X004300Y055879D01*
X004225Y055936D01*
X004137Y055973D01*
X004043Y055985D01*
X003949Y055973D01*
X003862Y055936D01*
X003786Y055879D01*
X003729Y055803D01*
X003692Y055716D01*
X003680Y055622D01*
X003680Y055222D01*
X003692Y055128D01*
X003729Y055040D01*
X003786Y054965D01*
X003862Y054907D01*
X003949Y054871D01*
X004043Y054859D01*
X004137Y054871D01*
X004225Y054907D01*
X004300Y054965D01*
X004358Y055040D01*
X004394Y055128D01*
X004406Y055222D01*
X004406Y055328D01*
X005490Y055328D01*
X005499Y055330D01*
X006574Y055330D01*
X006574Y055222D01*
X006586Y055128D01*
X006622Y055040D01*
X006680Y054965D01*
X006755Y054907D01*
X006843Y054871D01*
X006937Y054859D01*
X007031Y054871D01*
X007118Y054907D01*
X007194Y054965D01*
X007251Y055040D01*
X007288Y055128D01*
X007300Y055222D01*
X007300Y055622D01*
X007288Y055716D01*
X007251Y055803D01*
X007194Y055879D01*
X007118Y055936D01*
X007031Y055973D01*
X006937Y055985D01*
X006937Y055985D02*
G37*
G36*
X001390Y060940D02*
X000570Y060940D01*
X000570Y060120D01*
X001390Y060120D01*
X001390Y060940D01*
X001390Y060940D02*
G37*
G36*
X026700Y060377D02*
X026623Y060361D01*
X026557Y060318D01*
X026514Y060252D01*
X026498Y060175D01*
X026510Y060115D01*
X026187Y059792D01*
X022467Y059792D01*
X022433Y059843D01*
X022367Y059886D01*
X022290Y059902D01*
X022213Y059886D01*
X022147Y059843D01*
X022104Y059777D01*
X022088Y059700D01*
X022104Y059623D01*
X022147Y059557D01*
X022213Y059514D01*
X022290Y059498D01*
X022367Y059514D01*
X022433Y059557D01*
X022467Y059608D01*
X026225Y059608D01*
X026260Y059615D01*
X026290Y059635D01*
X026290Y059635D01*
X026290Y059635D01*
X026640Y059985D01*
X026700Y059973D01*
X026777Y059989D01*
X026843Y060032D01*
X026886Y060098D01*
X026902Y060175D01*
X026886Y060252D01*
X026843Y060318D01*
X026777Y060361D01*
X026700Y060377D01*
X026700Y060377D02*
G37*
G36*
X001210Y056586D02*
X001106Y056572D01*
X001055Y056551D01*
X001253Y056208D01*
X001167Y056158D01*
X000968Y056501D01*
X000925Y056468D01*
X000861Y056384D01*
X000820Y056287D01*
X000808Y056192D01*
X000802Y056188D01*
X000664Y056026D01*
X000553Y055845D01*
X000472Y055648D01*
X000455Y055577D01*
X000375Y055515D01*
X000311Y055432D01*
X000270Y055334D01*
X000263Y055280D01*
X000660Y055280D01*
X000660Y055180D01*
X000263Y055180D01*
X000270Y055126D01*
X000311Y055028D01*
X000375Y054945D01*
X000455Y054883D01*
X000472Y054812D01*
X000553Y054615D01*
X000664Y054434D01*
X000802Y054272D01*
X000808Y054268D01*
X000820Y054173D01*
X000861Y054076D01*
X000925Y053992D01*
X000968Y053959D01*
X001167Y054302D01*
X001253Y054252D01*
X001055Y053909D01*
X001106Y053888D01*
X001210Y053874D01*
X001314Y053888D01*
X001408Y053926D01*
X001548Y053892D01*
X001710Y053880D01*
X001710Y055230D01*
X001710Y056580D01*
X001548Y056568D01*
X001408Y056534D01*
X001314Y056572D01*
X001210Y056586D01*
X001210Y056586D02*
G37*
G36*
X004990Y063430D02*
X004790Y063430D01*
X004790Y063230D01*
X004990Y063230D01*
X004990Y063430D01*
X004990Y063430D02*
G37*
G36*
X041945Y066281D02*
X041645Y066281D01*
X041645Y066171D01*
X041945Y066171D01*
X041945Y066281D01*
X041945Y066281D02*
G37*
G36*
X000980Y063944D02*
X000873Y063929D01*
X000773Y063888D01*
X000688Y063822D01*
X000622Y063737D01*
X000581Y063637D01*
X000566Y063530D01*
X000581Y063423D01*
X000622Y063323D01*
X000688Y063238D01*
X000773Y063172D01*
X000873Y063131D01*
X000980Y063116D01*
X001087Y063131D01*
X001187Y063172D01*
X001272Y063238D01*
X001338Y063323D01*
X001379Y063423D01*
X001394Y063530D01*
X001379Y063637D01*
X001338Y063737D01*
X001272Y063822D01*
X001187Y063888D01*
X001087Y063929D01*
X000980Y063944D01*
X000980Y063944D02*
G37*
G36*
X042345Y066281D02*
X042045Y066281D01*
X042045Y066171D01*
X042345Y066171D01*
X042345Y066281D01*
X042345Y066281D02*
G37*
%LPD*%
D10*
X021120Y063000D02*
D03*
X021670Y063000D02*
D03*
X019630Y064850D02*
D03*
X019080Y064850D02*
D03*
X019790Y060710D02*
D03*
X019240Y060710D02*
D03*
X016190Y059290D02*
D03*
X016740Y059290D02*
D03*
X021760Y060760D02*
D03*
X021210Y060760D02*
D03*
X005590Y063480D02*
D03*
X005040Y063480D02*
D03*
X032790Y062160D02*
D03*
X032240Y062160D02*
D03*
X049310Y065370D02*
D03*
X048760Y065370D02*
D03*
X007590Y061270D02*
D03*
X008140Y061270D02*
D03*
X019110Y063050D02*
D03*
X019660Y063050D02*
D03*
X010460Y061220D02*
D03*
X011010Y061220D02*
D03*
X021790Y059090D02*
D03*
X021240Y059090D02*
D03*
D11*
X027320Y059990D02*
D03*
X027320Y060540D02*
D03*
X030760Y059120D02*
D03*
X030760Y058570D02*
D03*
X045560Y063720D02*
D03*
X045560Y064270D02*
D03*
X030040Y063640D02*
D03*
X030040Y064190D02*
D03*
X027290Y062160D02*
D03*
X027290Y062710D02*
D03*
X028620Y058540D02*
D03*
X028620Y059090D02*
D03*
X013300Y059830D02*
D03*
X013300Y059280D02*
D03*
X013170Y062880D02*
D03*
X013170Y062330D02*
D03*
X057390Y063050D02*
D03*
X057390Y062500D02*
D03*
X055660Y063000D02*
D03*
X055660Y062450D02*
D03*
X003280Y064800D02*
D03*
X003280Y064250D02*
D03*
X051770Y063780D02*
D03*
X051770Y064330D02*
D03*
D16*
X054612Y064860D02*
D03*
X052840Y064860D02*
D03*
D17*
X053726Y061996D02*
D03*
D19*
X012920Y062630D02*
X013170Y062880D01*
X012920Y059660D02*
X013300Y059280D01*
X011250Y053920D02*
X015930Y053920D01*
X010800Y054370D02*
X011250Y053920D01*
X031543Y062114D02*
X032055Y061602D01*
X042688Y061602D01*
X043730Y060560D01*
X031150Y054370D02*
X034010Y054370D01*
X034220Y054580D01*
X033272Y061238D02*
X034110Y060400D01*
X031352Y061238D02*
X033272Y061238D01*
X031350Y061240D02*
X031352Y061238D01*
X032640Y055980D02*
X033860Y055980D01*
X031590Y054930D02*
X032640Y055980D01*
X029590Y054930D02*
X031590Y054930D01*
X029150Y055370D02*
X029590Y054930D01*
X030460Y056060D02*
X031150Y055370D01*
X026260Y056060D02*
X030460Y056060D01*
X025920Y056400D02*
X026260Y056060D01*
X026225Y059700D02*
X026700Y060175D01*
X022290Y059700D02*
X026225Y059700D01*
X021310Y056535D02*
X022475Y055370D01*
X021310Y056535D02*
X021310Y056739D01*
X018759Y059290D02*
X021310Y056739D01*
X016740Y059290D02*
X018759Y059290D01*
X020630Y058215D02*
X023475Y055370D01*
X020630Y058215D02*
X020630Y059870D01*
X019790Y060710D02*
X020630Y059870D01*
X009794Y062875D02*
X009794Y063423D01*
X009669Y062750D02*
X009794Y062875D01*
X009295Y062750D02*
X009669Y062750D01*
X008140Y061270D02*
X008388Y061518D01*
X008388Y063423D01*
X011010Y061220D02*
X011144Y061220D01*
X049310Y065370D02*
X049670Y065010D01*
X049670Y063366D02*
X049670Y065010D01*
X049670Y060610D02*
X049670Y061250D01*
X003720Y064800D02*
X005040Y063480D01*
X003280Y064800D02*
X003720Y064800D01*
X013300Y060340D02*
X015120Y062160D01*
X013300Y059830D02*
X013300Y060340D01*
X020310Y062190D02*
X021120Y063000D01*
X017770Y062190D02*
X020310Y062190D01*
X017740Y062160D02*
X017770Y062190D01*
X015120Y062160D02*
X017740Y062160D01*
X000630Y069110D02*
X001730Y069110D01*
X002830Y069110D01*
X001180Y070063D02*
X002280Y070063D01*
X013120Y066571D02*
X013125Y066571D01*
X013120Y066827D02*
X013125Y066827D01*
X001760Y055230D02*
X002860Y055230D01*
X000660Y055230D02*
X001760Y055230D01*
X001210Y056183D02*
X002310Y056183D01*
X028420Y059290D02*
X028620Y059090D01*
X028420Y059290D02*
X028420Y059440D01*
X027320Y060540D02*
X028420Y059440D01*
X032790Y062160D02*
X033000Y061950D01*
X033225Y061950D01*
X028620Y059090D02*
X029140Y058570D01*
X027320Y060540D02*
X027595Y060540D01*
X027980Y060925D01*
X027980Y061050D01*
X027320Y060540D02*
X027530Y060750D01*
X027530Y062470D01*
X027290Y062710D02*
X027530Y062470D01*
X028845Y058300D02*
X029115Y058570D01*
X027360Y058300D02*
X028845Y058300D01*
X026570Y059090D02*
X027360Y058300D01*
X021790Y059090D02*
X026570Y059090D01*
X021790Y059090D02*
X021790Y060180D01*
X021210Y060760D02*
X021790Y060180D01*
X021210Y060760D02*
X021210Y062670D01*
X021320Y062800D01*
X021120Y063000D02*
X021320Y062800D01*
X048320Y060610D02*
X048320Y062000D01*
X048160Y062160D02*
X048320Y062000D01*
X032790Y062160D02*
X048160Y062160D01*
X045560Y064270D02*
X048175Y064270D01*
X048320Y064125D01*
X048320Y063366D02*
X048320Y064125D01*
X054880Y063780D02*
X055660Y063000D01*
X051770Y063780D02*
X054880Y063780D01*
X044200Y058570D02*
X044775Y058560D01*
X044200Y058570D02*
X044200Y060435D01*
X044375Y060610D01*
X048320Y060610D01*
X045875Y057560D02*
X046665Y057560D01*
X045720Y057715D02*
X045875Y057560D01*
X045720Y057715D02*
X045720Y058375D01*
X045535Y058560D02*
X045720Y058375D01*
X044775Y058560D02*
X045535Y058560D01*
X055660Y063000D02*
X055660Y063050D01*
X054410Y059640D02*
X054920Y059130D01*
X054920Y058953D02*
X054920Y059130D01*
X041990Y066587D02*
X041995Y066587D01*
X041990Y066331D02*
X041995Y066331D01*
X054682Y066090D02*
X056930Y068339D01*
X044690Y066090D02*
X054682Y066090D01*
X044193Y066587D02*
X044690Y066090D01*
X041995Y066587D02*
X044193Y066587D01*
X043500Y068250D02*
X043500Y069920D01*
X056620Y054247D02*
X057720Y054247D01*
X057170Y055200D02*
X058270Y055200D01*
X056070Y055200D02*
X057170Y055200D01*
X056380Y069291D02*
X057480Y069291D01*
X058580Y069291D01*
X056930Y068339D02*
X058030Y068339D01*
X004043Y055420D02*
X004043Y055422D01*
X005490Y055420D02*
X005492Y055422D01*
X006937Y055422D01*
X052410Y058720D02*
X052410Y059640D01*
X052250Y058560D02*
X052410Y058720D01*
X046665Y058560D02*
X052250Y058560D01*
X019110Y063050D02*
X019110Y063750D01*
X019400Y064040D01*
X021059Y064040D01*
X021302Y064283D01*
X028607Y064283D01*
X029680Y063210D01*
X016135Y066827D02*
X017123Y066827D01*
X017680Y066270D01*
X018560Y065370D02*
X018560Y065390D01*
X018560Y065370D02*
X019080Y064850D01*
X045005Y066587D02*
X049003Y066587D01*
X049270Y066320D01*
X041670Y067098D02*
X041995Y067098D01*
X041578Y067190D02*
X041670Y067098D01*
X018330Y067190D02*
X041578Y067190D01*
X018182Y067338D02*
X018330Y067190D01*
X016135Y067338D02*
X018182Y067338D01*
X016135Y067083D02*
X017448Y067083D01*
X018260Y066270D01*
X036385Y054810D02*
X036825Y054370D01*
X034275Y054810D02*
X036385Y054810D01*
X033660Y055425D02*
X034275Y054810D01*
X033010Y055425D02*
X033660Y055425D01*
X030648Y062446D02*
X030753Y062342D01*
X032058Y062342D01*
X032240Y062160D01*
X015570Y060710D02*
X019240Y060710D01*
X015120Y061160D02*
X015570Y060710D01*
X015120Y060160D02*
X015990Y059290D01*
X016190Y059290D01*
X055410Y062750D02*
X055660Y063000D01*
X055410Y060640D02*
X055410Y062750D01*
X054410Y059640D02*
X055410Y060640D01*
X015155Y056360D02*
X020940Y056360D01*
X021405Y064055D02*
X027693Y064055D01*
X030250Y061498D01*
X030250Y060810D02*
X030250Y061498D01*
X017980Y061120D02*
X020860Y061120D01*
X020960Y061020D01*
X020960Y060230D02*
X020960Y061020D01*
X020960Y060230D02*
X021540Y059650D01*
X021540Y058910D02*
X021540Y059650D01*
X021540Y058910D02*
X021610Y058840D01*
X026540Y058840D01*
X027206Y058174D01*
X029144Y058174D01*
X029300Y058330D01*
X030950Y058330D01*
X031470Y058850D01*
X031470Y059210D01*
X014320Y055960D02*
X015470Y055960D01*
X016167Y055263D01*
X016167Y054497D02*
X016167Y055263D01*
X016040Y054370D02*
X016167Y054497D01*
X014800Y054370D02*
X016040Y054370D01*
X038527Y061358D02*
X041285Y058600D01*
X031681Y061358D02*
X038527Y061358D01*
X031551Y061487D02*
X031681Y061358D01*
X031096Y061487D02*
X031551Y061487D01*
X030590Y062719D02*
X030590Y063073D01*
X030420Y062549D02*
X030590Y062719D01*
X030420Y062349D02*
X030420Y062549D01*
X030420Y062349D02*
X030590Y062180D01*
X031145Y062180D01*
X031848Y061478D01*
X038741Y061478D01*
X041630Y058589D01*
X041692Y061722D02*
X041890Y061920D01*
X032798Y061722D02*
X041692Y061722D01*
X032500Y062020D02*
X032798Y061722D01*
X032500Y062020D02*
X032500Y062330D01*
X032360Y062470D02*
X032500Y062330D01*
X031100Y062470D02*
X032360Y062470D01*
X030820Y062750D02*
X031100Y062470D01*
X035400Y057210D02*
X035970Y057210D01*
X036338Y056842D01*
X044028Y056842D01*
X045500Y055370D01*
X046660Y057210D02*
X048500Y055370D01*
X036721Y057210D02*
X046660Y057210D01*
X036051Y057880D02*
X036721Y057210D01*
X034873Y057880D02*
X036051Y057880D01*
X034870Y057883D02*
X034873Y057880D01*
X025185Y057630D02*
X025560Y057630D01*
X024909Y057354D02*
X025185Y057630D01*
X024909Y056123D02*
X024909Y057354D01*
X024909Y056123D02*
X025662Y055370D01*
X026150Y055370D01*
X028710Y054810D02*
X033805Y054810D01*
X028150Y055370D02*
X028710Y054810D01*
X019380Y064600D02*
X019630Y064850D01*
X016430Y064600D02*
X019380Y064600D01*
X015540Y063710D02*
X016430Y064600D01*
X005040Y063480D02*
X005580Y064020D01*
X013260Y064020D01*
X015120Y062160D01*
X013125Y066571D02*
X014770Y066571D01*
X014860Y066661D01*
X014630Y068490D02*
X014860Y068490D01*
X030300Y062670D02*
X030350Y062720D01*
X030300Y062295D02*
X030300Y062670D01*
X030300Y062295D02*
X030625Y061970D01*
X030905Y061970D01*
X030930Y061945D01*
X030990Y063230D02*
X030990Y063240D01*
X030990Y063230D02*
X031622Y062598D01*
X032567Y062598D01*
X032790Y062375D01*
X032790Y062160D02*
X032790Y062375D01*
X047550Y058060D02*
X048610Y057000D01*
X046665Y058060D02*
X047550Y058060D01*
X029782Y062875D02*
X029920Y063013D01*
X029920Y063293D01*
X028810Y064403D02*
X029920Y063293D01*
X021058Y064403D02*
X028810Y064403D01*
X020824Y064170D02*
X021058Y064403D01*
X017310Y064170D02*
X020824Y064170D01*
X036941Y057560D02*
X044775Y057560D01*
X036262Y058239D02*
X036941Y057560D01*
X031410Y058239D02*
X036262Y058239D01*
X031148Y057977D02*
X031410Y058239D01*
X012770Y067063D02*
X013125Y067083D01*
X012770Y066483D02*
X012770Y067063D01*
X012770Y066483D02*
X013286Y065966D01*
X033136Y065966D01*
X034013Y066843D01*
X025788Y056898D02*
X026087Y056898D01*
X026663Y056322D01*
X029739Y056322D01*
X029746Y056329D01*
X034399Y056329D01*
X034766Y055962D01*
X036233Y055962D01*
X036825Y055370D01*
X038375Y055820D02*
X038825Y055370D01*
X037645Y055820D02*
X038375Y055820D01*
X037270Y055445D02*
X037645Y055820D01*
X037270Y055185D02*
X037270Y055445D01*
X037015Y054930D02*
X037270Y055185D01*
X035640Y054930D02*
X037015Y054930D01*
X035320Y055250D02*
X035640Y054930D01*
X035320Y055250D02*
X035320Y055710D01*
X035220Y055810D02*
X035320Y055710D01*
X034478Y055810D02*
X035220Y055810D01*
X034080Y056208D02*
X034478Y055810D01*
X029865Y056208D02*
X034080Y056208D01*
X029858Y056201D02*
X029865Y056208D01*
X026565Y056201D02*
X029858Y056201D01*
X026136Y056630D02*
X026565Y056201D01*
X025500Y056630D02*
X026136Y056630D01*
X025365Y056765D02*
X025500Y056630D01*
X025538Y057244D02*
X026160Y057244D01*
X026962Y056442D01*
X029619Y056442D01*
X029747Y056569D01*
X035651Y056569D01*
X035780Y056440D01*
X036824Y056440D01*
X037002Y056262D01*
X033892Y063503D02*
X033965Y063430D01*
X041250Y063430D01*
X012920Y062145D02*
X012920Y062630D01*
X012920Y062145D02*
X012977Y062088D01*
X013357Y062088D01*
X013585Y062317D01*
X013585Y063127D01*
X013429Y063282D02*
X013585Y063127D01*
X012909Y063282D02*
X013429Y063282D01*
X012000Y062373D02*
X012909Y063282D01*
X012000Y061780D02*
X012000Y062373D01*
X011200Y060980D02*
X012000Y061780D01*
X010820Y060980D02*
X011200Y060980D01*
X010760Y061040D02*
X010820Y060980D01*
X010760Y061040D02*
X010760Y061580D01*
X008800Y055370D02*
X009250Y054920D01*
X015800Y054920D01*
X015935Y055055D01*
X048940Y054930D02*
X049500Y054370D01*
X047315Y054930D02*
X048940Y054930D01*
X047040Y055205D02*
X047315Y054930D01*
X047040Y055205D02*
X047040Y055455D01*
X045533Y056962D02*
X047040Y055455D01*
X036520Y056962D02*
X045533Y056962D01*
X035957Y057525D02*
X036520Y056962D01*
X035220Y057525D02*
X035957Y057525D01*
X050770Y059070D02*
X050850Y058990D01*
X031995Y064180D02*
X033485Y062690D01*
X031995Y064180D02*
X031995Y064270D01*
X046760Y053630D02*
X047500Y054370D01*
X039765Y053630D02*
X046760Y053630D01*
X039265Y054130D02*
X039765Y053630D01*
X039265Y054130D02*
X039265Y054610D01*
X039585Y054930D01*
X040015Y054930D01*
X040265Y055180D01*
X040265Y055560D01*
X039805Y056020D02*
X040265Y055560D01*
X036834Y056020D02*
X039805Y056020D01*
X036754Y056100D02*
X036834Y056020D01*
X035255Y056100D02*
X036754Y056100D01*
X035135Y056220D02*
X035255Y056100D01*
X035509Y056341D02*
X035563Y056287D01*
X036737Y056287D01*
X036882Y056142D01*
X039858Y056142D01*
X040385Y055615D01*
X040385Y055125D02*
X040385Y055615D01*
X040070Y054810D02*
X040385Y055125D01*
X039640Y054810D02*
X040070Y054810D01*
X039385Y054555D02*
X039640Y054810D01*
X039385Y054185D02*
X039385Y054555D01*
X039385Y054185D02*
X039772Y053798D01*
X043758Y053798D01*
X043970Y054010D01*
X043970Y054840D01*
X044500Y055370D01*
X046500Y055370D02*
X047060Y054810D01*
X047690Y054810D01*
X048050Y054450D01*
X048050Y054190D02*
X048050Y054450D01*
X048050Y054190D02*
X048312Y053928D01*
X049688Y053928D01*
X049943Y054183D01*
X049943Y054553D01*
X049575Y054920D02*
X049943Y054553D01*
X049325Y054920D02*
X049575Y054920D01*
X049050Y055195D02*
X049325Y054920D01*
X049050Y055195D02*
X049050Y056890D01*
X047600Y058340D02*
X049050Y056890D01*
X046270Y058340D02*
X047600Y058340D01*
X046136Y058474D02*
X046270Y058340D01*
X046136Y058474D02*
X046136Y059144D01*
X046991Y060000D01*
X048641Y060000D01*
X048712Y060071D01*
X048712Y061781D01*
X048073Y062420D02*
X048712Y061781D01*
X032960Y062420D02*
X048073Y062420D01*
X032650Y062730D02*
X032960Y062420D01*
X031750Y062730D02*
X032650Y062730D01*
X031290Y063190D02*
X031750Y062730D01*
X031290Y063190D02*
X031290Y063260D01*
X026470Y053690D02*
X027150Y054370D01*
X019530Y053690D02*
X026470Y053690D01*
X019028Y054192D02*
X019530Y053690D01*
X019028Y054192D02*
X019028Y055552D01*
X019596Y056120D01*
X021030Y056120D01*
X021171Y056261D01*
X021171Y056451D01*
X018648Y058975D02*
X021171Y056451D01*
X017070Y058975D02*
X018648Y058975D01*
X020475Y054370D02*
X021035Y053810D01*
X023715Y053810D01*
X024600Y054695D01*
X024600Y057386D01*
X025197Y057983D01*
X025837Y057983D01*
X027031Y056790D01*
X029300Y056790D01*
X007953Y061025D02*
X009090Y061025D01*
X007840Y061138D02*
X007953Y061025D01*
X007840Y061138D02*
X007840Y061698D01*
X007038Y062500D02*
X007840Y061698D01*
X007038Y062500D02*
X007038Y063423D01*
X053840Y060210D02*
X054410Y059640D01*
X052175Y060210D02*
X053840Y060210D01*
X051850Y059885D02*
X052175Y060210D01*
X051850Y059455D02*
X051850Y059885D01*
X051588Y059193D02*
X051850Y059455D01*
X051228Y059193D02*
X051588Y059193D01*
X050890Y059532D02*
X051228Y059193D01*
X050890Y059532D02*
X050890Y061101D01*
X030040Y064190D02*
X030348Y064498D01*
X032093Y064498D01*
X032240Y064351D01*
X032240Y064111D02*
X032240Y064351D01*
X032240Y064111D02*
X033525Y062826D01*
X045096Y062826D01*
X045810Y063540D01*
X045810Y064020D01*
X045560Y064270D02*
X045810Y064020D01*
X030693Y057720D02*
X031920Y057720D01*
X032316Y058116D01*
X036117Y058116D01*
X036887Y057347D01*
X047067Y057347D01*
X047194Y057474D01*
X047194Y057644D01*
X047038Y057800D02*
X047194Y057644D01*
X046310Y057800D02*
X047038Y057800D01*
X045910Y058200D02*
X046310Y057800D01*
X045910Y058200D02*
X045910Y058900D01*
X045750Y059060D02*
X045910Y058900D01*
X044775Y059060D02*
X045750Y059060D01*
X035793Y066260D02*
X040300Y066260D01*
X033662Y064128D02*
X035793Y066260D01*
X033662Y063248D02*
X033662Y064128D01*
X033662Y063248D02*
X033690Y063220D01*
X032650Y053570D02*
X032880Y053800D01*
X017447Y053570D02*
X032650Y053570D01*
X016310Y054707D02*
X017447Y053570D01*
X016310Y054707D02*
X016310Y055297D01*
X015507Y056100D02*
X016310Y055297D01*
X014537Y056100D02*
X015507Y056100D01*
X014437Y056200D02*
X014537Y056100D01*
X005498Y056200D02*
X014437Y056200D01*
X002750Y067338D02*
X013125Y067338D01*
X025500Y056400D02*
X025960Y055940D01*
X027380Y055940D01*
X027710Y055610D01*
X027710Y054180D02*
X027710Y055610D01*
X027710Y054180D02*
X027966Y053924D01*
X031584Y053924D01*
X031810Y054150D01*
X033627Y054150D01*
X033853Y053924D01*
X037009Y053924D01*
X037380Y054295D01*
X037380Y054925D01*
X037825Y055370D01*
X039665Y055210D02*
X039825Y055370D01*
X039430Y055210D02*
X039665Y055210D01*
X039090Y054870D02*
X039430Y055210D01*
X038700Y054870D02*
X039090Y054870D01*
X038280Y054450D02*
X038700Y054870D01*
X038280Y054200D02*
X038280Y054450D01*
X037884Y053804D02*
X038280Y054200D01*
X033201Y053804D02*
X037884Y053804D01*
X032975Y054030D02*
X033201Y053804D01*
X031942Y054030D02*
X032975Y054030D01*
X031716Y053804D02*
X031942Y054030D01*
X027911Y053804D02*
X031716Y053804D01*
X027590Y054125D02*
X027911Y053804D01*
X027590Y054125D02*
X027590Y055555D01*
X027325Y055820D02*
X027590Y055555D01*
X025756Y055820D02*
X027325Y055820D01*
X025133Y056443D02*
X025756Y055820D01*
X025133Y056443D02*
X025133Y057193D01*
X025140Y057200D01*
X022475Y054370D02*
X022915Y053930D01*
X023665Y053930D01*
X024440Y054705D01*
X024440Y057398D01*
X025147Y058105D01*
X026101Y058105D01*
X027153Y057054D01*
X029529Y057054D01*
X030370Y057895D01*
X014714Y070726D02*
X015315Y070125D01*
X004106Y070726D02*
X014714Y070726D01*
X031720Y056980D02*
X035768Y056980D01*
X036025Y056722D01*
X040096Y056722D01*
X041267Y055552D01*
X041267Y054182D02*
X041267Y055552D01*
X041005Y053920D02*
X041267Y054182D01*
X040275Y053920D02*
X041005Y053920D01*
X039825Y054370D02*
X040275Y053920D01*
X030700Y059470D02*
X030880Y059470D01*
X031001Y059349D01*
X029859Y060819D02*
X030128Y061088D01*
X030128Y061438D01*
X027886Y063680D02*
X030128Y061438D01*
X020960Y063680D02*
X027886Y063680D01*
X035290Y059550D02*
X036840Y061100D01*
X028155Y065065D02*
X034285Y065065D01*
X035720Y066500D01*
X039960Y066500D01*
X045788Y057082D02*
X047500Y055370D01*
X036676Y057082D02*
X045788Y057082D01*
X036001Y057757D02*
X036676Y057082D01*
X035124Y057757D02*
X036001Y057757D01*
X034742Y057375D02*
X035124Y057757D01*
X031850Y062960D02*
X032642Y062960D01*
X033062Y062540D01*
X050560Y058950D02*
X050751Y058759D01*
X051331Y058759D01*
X051970Y059398D01*
X051970Y059828D01*
X052225Y060083D01*
X053595Y060083D01*
X053854Y059823D01*
X053854Y055504D02*
X053854Y059823D01*
X053720Y055370D02*
X053854Y055504D01*
X049500Y055370D02*
X053720Y055370D01*
X024730Y055790D02*
X026150Y054370D01*
X024730Y055790D02*
X024730Y057346D01*
X025246Y057862D01*
X025755Y057862D01*
X027055Y056562D01*
X029499Y056562D01*
X029631Y056694D01*
X035782Y056694D01*
X035888Y056587D01*
X037133Y056587D01*
X037230Y056490D01*
X028175Y063060D02*
X029900Y061335D01*
X025240Y063060D02*
X028175Y063060D01*
X023290Y061110D02*
X025240Y063060D01*
X021475Y054370D02*
X021915Y054810D01*
X023715Y054810D01*
X024190Y055285D01*
X024190Y057323D01*
X025095Y058228D01*
X026243Y058228D01*
X027188Y057282D01*
X029072Y057282D01*
X019475Y054370D02*
X020035Y054930D01*
X023660Y054930D01*
X023920Y055190D01*
X023920Y057230D01*
X025039Y058349D01*
X026389Y058349D01*
X027103Y057635D01*
X028597Y057635D01*
X030800Y061815D02*
X030930Y061945D01*
X030800Y060520D02*
X030800Y061815D01*
X030680Y060400D02*
X030800Y060520D01*
X019820Y063570D02*
X019940Y063450D01*
X021650Y063450D01*
X023050Y062050D01*
X023050Y061020D02*
X023050Y062050D01*
X023050Y061020D02*
X023191Y060879D01*
X025819Y060879D01*
X026260Y061320D01*
X037000Y064080D02*
X037380Y064460D01*
X042440Y067220D02*
X042817Y066843D01*
X045005Y066843D01*
X019660Y062810D02*
X019660Y063050D01*
X019497Y062647D02*
X019660Y062810D01*
X015003Y062647D02*
X019497Y062647D01*
X012920Y059660D02*
X012920Y062145D01*
X011144Y061220D02*
X011144Y063423D01*
X001210Y054277D02*
X002310Y054277D01*
X029115Y058570D02*
X029140Y058570D01*
X030760Y058570D01*
X001180Y068157D02*
X002280Y068157D01*
X013120Y066571D02*
X013120Y066827D01*
X014860Y066661D02*
X014860Y068490D01*
X041990Y066331D02*
X041990Y066587D01*
X055660Y063050D02*
X057390Y063050D01*
X056930Y070244D02*
X058030Y070244D01*
X004043Y055420D02*
X005490Y055420D01*
X033940Y064080D02*
X036490Y064080D01*
X009290Y062360D02*
X009358Y062360D01*
X009090Y061025D02*
X009290Y061225D01*
X009290Y062292D01*
X009358Y062360D01*
X037002Y056262D02*
X039933Y056262D01*
X040825Y055370D01*
X036490Y064450D02*
X037380Y065340D01*
X036490Y064080D02*
X036490Y064450D01*
X036490Y064080D02*
X037000Y064080D01*
X040470Y066843D02*
X041995Y066843D01*
X034013Y066843D02*
X040470Y066843D01*
X040470Y066430D02*
X040470Y066843D01*
X040300Y066260D02*
X040470Y066430D01*
X049181Y062810D02*
X050890Y061101D01*
X048690Y062810D02*
X049181Y062810D01*
X048320Y063180D02*
X048690Y062810D01*
X048320Y063180D02*
X048320Y063366D01*
X030040Y064190D02*
X030350Y063880D01*
X030590Y063640D02*
X030990Y063240D01*
X030350Y063640D02*
X030590Y063640D01*
X030350Y062720D02*
X030350Y063640D01*
X030350Y063880D01*
X030952Y058879D02*
X031001Y058929D01*
X031001Y059349D01*
X030760Y058570D02*
X030970Y058570D01*
X031130Y058730D01*
X029859Y059443D02*
X030423Y058879D01*
X029859Y059443D02*
X029859Y060819D01*
X030423Y058879D02*
X030952Y058879D01*
X031130Y059672D02*
X031366Y059908D01*
X032464Y059908D01*
X031430Y059650D02*
X031460Y059680D01*
X031130Y058730D02*
X031130Y059672D01*
X032464Y059908D02*
X032701Y059671D01*
X031830Y059550D02*
X035290Y059550D01*
X031730Y059650D02*
X031830Y059550D01*
X031430Y059650D02*
X031730Y059650D01*
X014630Y068490D02*
X015315Y069175D01*
X015315Y070125D01*
X031190Y060541D02*
X032616Y060541D01*
X033318Y059816D02*
X033318Y060004D01*
X033184Y060138D02*
X033318Y060004D01*
X033019Y060138D02*
X033184Y060138D01*
X032616Y060541D02*
X033019Y060138D01*
X033173Y059671D02*
X033318Y059816D01*
X032701Y059671D02*
X033173Y059671D01*
X014580Y063070D02*
X014580Y063460D01*
X014089Y063191D02*
X014352Y063453D01*
X014352Y063554D01*
X014508Y063710D01*
X015540Y063710D01*
X014580Y063070D02*
X015003Y062647D01*
X002622Y059075D02*
X002622Y067211D01*
X002622Y059075D02*
X005498Y056200D01*
X002622Y067211D02*
X002750Y067338D01*
X044327Y070747D02*
X054924Y070747D01*
X043500Y069920D02*
X044327Y070747D01*
X054924Y070747D02*
X056380Y069291D01*
X049710Y061290D02*
X049710Y061360D01*
X048872Y062690D02*
X050770Y060792D01*
X048852Y062540D02*
X050560Y060832D01*
X049670Y061250D02*
X049710Y061290D01*
X033062Y062540D02*
X048852Y062540D01*
X050560Y058950D02*
X050560Y060832D01*
X033485Y062690D02*
X048872Y062690D01*
X050770Y059070D02*
X050770Y060792D01*
X002280Y069660D02*
X002280Y070063D01*
X002280Y069660D02*
X003040Y069660D01*
X004106Y070726D01*
X056620Y056153D02*
X056903Y056153D01*
X057170Y056420D01*
X057170Y056703D01*
X054920Y058953D02*
X057170Y056703D01*
D20*
X044775Y058060D02*
X045320Y058060D01*
X045330Y058070D01*
X045330Y058280D01*
X005590Y063270D02*
X007590Y061270D01*
X005590Y063270D02*
X005590Y063480D01*
X006120Y057410D02*
X006120Y059800D01*
X007590Y061270D01*
X034360Y067610D02*
X041995Y067610D01*
X033960Y068010D02*
X034360Y067610D01*
X034591Y067866D02*
X041995Y067866D01*
X034198Y068259D02*
X034591Y067866D01*
X034000Y068259D02*
X034198Y068259D01*
X032229Y070030D02*
X034000Y068259D01*
X030920Y070030D02*
X032229Y070030D01*
X046444Y069146D02*
X046960Y068630D01*
X045005Y069146D02*
X046444Y069146D01*
X041343Y069146D02*
X041995Y069146D01*
X040870Y068672D02*
X041343Y069146D01*
X041245Y069402D02*
X041995Y069402D01*
X044459Y069913D02*
X045005Y069913D01*
X037845Y069913D02*
X041995Y069913D01*
X037176Y070169D02*
X041995Y070169D01*
X016135Y067850D02*
X027683Y067850D01*
X016135Y067594D02*
X026546Y067594D01*
X026700Y067440D01*
X005760Y067850D02*
X013125Y067850D01*
X005040Y068570D02*
X005760Y067850D01*
X004105Y070030D02*
X006029Y068106D01*
X013125Y068106D01*
X023710Y068362D02*
X023948Y068600D01*
X016135Y068362D02*
X023710Y068362D01*
X011390Y068530D02*
X012246Y069386D01*
X013125Y069386D01*
X010719Y070030D02*
X011108Y069642D01*
X013125Y069642D01*
X017878Y070270D02*
X018003Y070395D01*
X016899Y070270D02*
X017878Y070270D01*
X016782Y070153D02*
X016899Y070270D01*
X016135Y070153D02*
X016782Y070153D01*
X017009Y069897D02*
X017043Y069932D01*
X016135Y069897D02*
X017009Y069897D01*
X013125Y070153D02*
X013667Y070153D01*
X013887Y070409D02*
X014026Y070270D01*
X013125Y070409D02*
X013887Y070409D01*
X027560Y059600D02*
X028620Y058540D01*
X027470Y059600D02*
X027560Y059600D01*
X027320Y059750D02*
X027470Y059600D01*
X027320Y059750D02*
X027320Y059990D01*
X045150Y063730D02*
X045160Y063720D01*
X045560Y063720D01*
X027060Y061930D02*
X027290Y062160D01*
X027060Y060250D02*
X027320Y059990D01*
X030040Y063640D02*
X030160Y063450D01*
X030160Y062754D02*
X030160Y063450D01*
X021670Y060760D02*
X021760Y060760D01*
X020924Y064550D02*
X029130Y064550D01*
X020792Y064418D02*
X020924Y064550D01*
X016601Y064418D02*
X020792Y064418D01*
X015731Y063549D02*
X016601Y064418D01*
X015509Y063549D02*
X015731Y063549D01*
X015120Y063160D02*
X015509Y063549D01*
X045290Y063990D02*
X045560Y063720D01*
X045290Y063990D02*
X045290Y064520D01*
X046140Y065370D01*
X048760Y065370D01*
X013691Y069441D02*
X013691Y069750D01*
X013380Y069130D02*
X013691Y069441D01*
X013125Y069130D02*
X013380Y069130D01*
X013125Y067594D02*
X013464Y067594D01*
X013620Y067750D01*
X013620Y068270D01*
X028430Y068106D02*
X028594Y068270D01*
X016135Y068106D02*
X028430Y068106D01*
X041995Y068890D02*
X042250Y068890D01*
X042375Y069015D01*
X042375Y069390D01*
X042500Y069515D01*
X045005Y069402D02*
X047402Y069402D01*
X048030Y070030D01*
X035448Y068122D02*
X041995Y068122D01*
X049222Y068382D02*
X050870Y070030D01*
X046712Y068382D02*
X049222Y068382D01*
X046467Y068628D02*
X046712Y068382D01*
X045012Y068634D02*
X046467Y068628D01*
X045005Y068634D02*
X045012Y068634D01*
X034189Y067354D02*
X041995Y067354D01*
X032504Y069040D02*
X034189Y067354D01*
X050791Y068368D02*
X055051Y068368D01*
X050621Y068198D02*
X050791Y068368D01*
X050289Y068198D02*
X050621Y068198D01*
X049957Y067866D02*
X050289Y068198D01*
X045005Y067866D02*
X049957Y067866D01*
X045005Y068890D02*
X045550Y068890D01*
X016135Y068618D02*
X022798Y068618D01*
X024210Y070030D01*
X022922Y060760D02*
X022952Y060730D01*
X021760Y060760D02*
X022922Y060760D01*
X026500Y060768D02*
X026580Y060730D01*
X023170Y070400D02*
X025080Y070400D01*
X021644Y068874D02*
X023170Y070400D01*
X016135Y068874D02*
X021644Y068874D01*
X040120Y069620D02*
X040158Y069658D01*
X041995Y069658D01*
X007710Y058490D02*
X010460Y061220D01*
X007590Y058610D02*
X007710Y058490D01*
X007590Y058610D02*
X007590Y061270D01*
X019650Y069130D02*
X020641Y070120D01*
X016135Y069130D02*
X019650Y069130D01*
X045005Y066331D02*
X047890Y066331D01*
X054612Y064520D02*
X054612Y064860D01*
X013170Y062330D02*
X013440Y062600D01*
X013440Y063070D01*
X013369Y063141D02*
X013440Y063070D01*
X012969Y063141D02*
X013369Y063141D01*
X012290Y062461D02*
X012969Y063141D01*
X012290Y061871D02*
X012290Y062461D01*
X016135Y066571D02*
X016499Y066571D01*
X016870Y066200D01*
X017670Y061760D02*
X017860Y061950D01*
X017670Y061070D02*
X017670Y061760D01*
X017670Y061070D02*
X017869Y060871D01*
X018881Y060871D01*
X018980Y060970D01*
X019990Y060970D02*
X020800Y060160D01*
X020800Y059530D02*
X020800Y060160D01*
X020800Y059530D02*
X021240Y059090D01*
X011120Y060690D02*
X013140Y058670D01*
X016250Y058670D01*
X016460Y058880D01*
X016475Y059560D01*
X018955Y059560D01*
X019510Y060115D01*
X019520Y060970D01*
X053121Y068208D02*
X053395Y067934D01*
X050965Y068208D02*
X053121Y068208D01*
X050790Y068033D02*
X050965Y068208D01*
X050790Y067683D02*
X050790Y068033D01*
X050462Y067354D02*
X050790Y067683D01*
X045005Y067354D02*
X050462Y067354D01*
X050168Y068528D02*
X050404Y068528D01*
X049699Y068058D02*
X050168Y068528D01*
X046407Y068058D02*
X049699Y068058D01*
X046343Y068122D02*
X046407Y068058D01*
X045005Y068122D02*
X046343Y068122D01*
X041330Y068634D02*
X041995Y068634D01*
X041088Y068392D02*
X041330Y068634D01*
X034045Y068611D02*
X040084Y068611D01*
X017166Y069386D02*
X017580Y069800D01*
X016135Y069386D02*
X017166Y069386D01*
X015120Y063160D02*
X015490Y062790D01*
X019310Y062790D01*
X019380Y062860D01*
X019380Y063230D01*
X019460Y063310D01*
X021360Y063310D01*
X021670Y063000D01*
X030942Y060650D02*
X031192Y060900D01*
X032980Y060900D01*
X033090Y061010D01*
X030160Y061851D02*
X030501Y061510D01*
X030501Y060662D02*
X030501Y061510D01*
X030430Y060592D02*
X030501Y060662D01*
X018631Y070430D02*
X021980Y070430D01*
X018251Y070050D02*
X018631Y070430D01*
X017475Y070050D02*
X018251Y070050D01*
X017332Y069907D02*
X017475Y070050D01*
X017332Y069857D02*
X017332Y069907D01*
X017117Y069642D02*
X017332Y069857D01*
X016135Y069642D02*
X017117Y069642D01*
X021240Y058815D02*
X021240Y059090D01*
X021240Y058815D02*
X021385Y058670D01*
X026480Y058670D01*
X027118Y058032D01*
X029922Y058032D01*
X030070Y058180D01*
X030998Y058180D01*
X031203Y058385D01*
X039715Y058385D01*
X040040Y058060D01*
X044775Y058060D01*
X011862Y068618D02*
X013125Y068618D01*
X029554Y064126D02*
X029554Y064166D01*
X030028Y064640D01*
X032153Y064640D01*
X033440Y063352D01*
X033440Y063112D02*
X033440Y063352D01*
X033440Y063112D02*
X033580Y062972D01*
X044812Y062972D01*
X045560Y063720D01*
X014536Y070580D02*
X015086Y070030D01*
X012828Y070580D02*
X014536Y070580D01*
X012763Y070515D02*
X012828Y070580D01*
X012763Y069905D02*
X012763Y070515D01*
X012763Y069905D02*
X012770Y069897D01*
X013125Y069897D01*
X011637Y068362D02*
X013125Y068362D01*
X011552Y068277D02*
X011637Y068362D01*
X010683Y068277D02*
X011552Y068277D01*
X009740Y069220D02*
X010683Y068277D01*
X050220Y067610D02*
X050540Y067930D01*
X045005Y067610D02*
X050220Y067610D01*
X051070Y067960D02*
X052145Y066885D01*
X054046Y066885D01*
X055326Y068164D01*
X055326Y068724D01*
X055170Y068880D02*
X055326Y068724D01*
X049970Y068880D02*
X055170Y068880D01*
X049312Y068222D02*
X049970Y068880D01*
X046560Y068222D02*
X049312Y068222D01*
X046404Y068378D02*
X046560Y068222D01*
X045005Y068378D02*
X046404Y068378D01*
X034538Y070310D02*
X034651Y070423D01*
X042291Y070423D01*
X042835Y069880D01*
X042835Y069480D02*
X042835Y069880D01*
X042580Y069225D02*
X042835Y069480D01*
X042580Y068558D02*
X042580Y069225D01*
X042400Y068378D02*
X042580Y068558D01*
X041995Y068378D02*
X042400Y068378D01*
X013610Y068630D02*
X013610Y068864D01*
X013600Y068874D02*
X013610Y068864D01*
X013125Y068874D02*
X013600Y068874D01*
X018980Y060970D02*
X019520Y060970D01*
X019990Y060970D01*
X022952Y060730D02*
X026580Y060730D01*
X021670Y060760D02*
X021670Y063000D01*
X030160Y062753D02*
X030160Y062754D01*
X029130Y064550D02*
X029554Y064126D01*
X030040Y063640D01*
X030160Y062753D02*
X030160Y063450D01*
X030160Y063450D01*
X053480Y064520D02*
X054612Y064520D01*
X053220Y064190D02*
X053220Y064260D01*
X053480Y064520D01*
X010728Y060690D02*
X011109Y060690D01*
X012290Y061871D01*
X010460Y060958D02*
X010460Y061220D01*
X010460Y060958D02*
X010728Y060690D01*
X030160Y063450D02*
X030195Y063485D01*
X030040Y063640D02*
X030195Y063485D01*
X029860Y062450D02*
X030150Y062450D01*
X030160Y061851D02*
X030160Y062753D01*
X014380Y069810D02*
X014380Y069830D01*
X013667Y070153D02*
X014010Y069810D01*
X014380Y069810D01*
X026580Y060730D02*
X027060Y060730D01*
X027060Y061930D01*
X027060Y060250D02*
X027060Y060730D01*
X030942Y060070D02*
X030942Y060650D01*
X030912Y060040D02*
X030942Y060070D01*
X030430Y059940D02*
X030430Y060592D01*
X030430Y060040D02*
X030912Y060040D01*
X030090Y059612D02*
X030424Y059946D01*
X030430Y059940D01*
X030090Y059410D02*
X030090Y059612D01*
X030090Y059410D02*
X030380Y059120D01*
X030760Y059120D01*
X030912Y060040D02*
X030920Y060048D01*
X032782Y060048D01*
X032930Y059900D01*
X032940Y059910D01*
X033090Y059910D01*
X043930Y069770D02*
X043930Y069850D01*
X043930Y069770D02*
X043995Y069835D01*
X044172Y069658D01*
X045005Y069658D01*
X040480Y068560D02*
X040480Y068637D01*
X040084Y068611D02*
X040232Y068462D01*
X040232Y068457D02*
X040232Y068462D01*
X040232Y068457D02*
X040377Y068312D01*
X040583Y068312D01*
X040662Y068392D01*
X041088Y068392D01*
X040480Y068637D02*
X041245Y069402D01*
X015620Y070420D02*
X015631Y070409D01*
X016135Y070409D01*
X045005Y070169D02*
X045129Y070169D01*
X045129Y070519D01*
D22*
X052840Y064510D02*
X052840Y064860D01*
X051770Y064500D02*
X051780Y064510D01*
X051770Y064330D02*
X051770Y064500D01*
X051615Y064330D02*
X051770Y064330D01*
X051410Y064125D02*
X051615Y064330D01*
X051410Y059640D02*
X051410Y064125D01*
X052635Y065830D02*
X052840Y065625D01*
X037550Y065830D02*
X052635Y065830D01*
X052840Y065550D02*
X052953Y065663D01*
X055377Y065663D01*
X057750Y063290D01*
X057750Y062810D02*
X057750Y063290D01*
X057630Y062690D02*
X057750Y062810D01*
X057580Y062690D02*
X057630Y062690D01*
X057390Y062500D02*
X057580Y062690D01*
X051780Y064510D02*
X052840Y064510D01*
X052840Y064860D02*
X052840Y065550D01*
X052840Y065625D01*
D23*
X058622Y062937D02*
X058622Y063248D01*
X057865Y062180D02*
X058622Y062937D01*
X055680Y062180D02*
X057865Y062180D01*
X055660Y062200D02*
X055680Y062180D01*
X055660Y062200D02*
X055660Y062450D01*
X057500Y064114D02*
X057756Y064114D01*
X058622Y063248D01*
X003024Y063994D02*
X003280Y064250D01*
X002850Y063994D02*
X003024Y063994D01*
D24*
X045500Y054370D02*
D03*
X044500Y054370D02*
D03*
X046500Y054370D02*
D03*
X047500Y054370D02*
D03*
X048500Y054370D02*
D03*
X049500Y054370D02*
D03*
X049500Y055370D02*
D03*
X048500Y055370D02*
D03*
X047500Y055370D02*
D03*
X046500Y055370D02*
D03*
X044500Y055370D02*
D03*
X045500Y055370D02*
D03*
X019475Y054370D02*
D03*
X018475Y054370D02*
D03*
X020475Y054370D02*
D03*
X021475Y054370D02*
D03*
X022475Y054370D02*
D03*
X023475Y054370D02*
D03*
X023475Y055370D02*
D03*
X022475Y055370D02*
D03*
X021475Y055370D02*
D03*
X020475Y055370D02*
D03*
X018475Y055370D02*
D03*
X019475Y055370D02*
D03*
X028150Y055370D02*
D03*
X027150Y055370D02*
D03*
X029150Y055370D02*
D03*
X030150Y055370D02*
D03*
X031150Y055370D02*
D03*
X031150Y054370D02*
D03*
X030150Y054370D02*
D03*
X029150Y054370D02*
D03*
X027150Y054370D02*
D03*
X028150Y054370D02*
D03*
X036825Y054370D02*
D03*
X035825Y054370D02*
D03*
X037825Y054370D02*
D03*
X038825Y054370D02*
D03*
X039825Y054370D02*
D03*
X040825Y054370D02*
D03*
X040825Y055370D02*
D03*
X039825Y055370D02*
D03*
X038825Y055370D02*
D03*
X037825Y055370D02*
D03*
X035825Y055370D02*
D03*
X036825Y055370D02*
D03*
X015120Y059160D02*
D03*
X015120Y060160D02*
D03*
X015120Y061160D02*
D03*
X015120Y063160D02*
D03*
X015120Y062160D02*
D03*
X053410Y059640D02*
D03*
X052410Y059640D02*
D03*
X051410Y059640D02*
D03*
X010800Y055370D02*
D03*
X009800Y055370D02*
D03*
X011800Y055370D02*
D03*
X012800Y055370D02*
D03*
X013800Y055370D02*
D03*
X014800Y055370D02*
D03*
X014800Y054370D02*
D03*
X013800Y054370D02*
D03*
X012800Y054370D02*
D03*
X011800Y054370D02*
D03*
X009800Y054370D02*
D03*
X010800Y054370D02*
D03*
X000980Y062530D02*
D03*
X000980Y061530D02*
D03*
X000980Y063530D02*
D03*
D25*
X043500Y054370D02*
D03*
X043500Y055370D02*
D03*
X017475Y054370D02*
D03*
X017475Y055370D02*
D03*
X026150Y055370D02*
D03*
X026150Y054370D02*
D03*
X034825Y054370D02*
D03*
X034825Y055370D02*
D03*
X054410Y059640D02*
D03*
X008800Y055370D02*
D03*
X008800Y054370D02*
D03*
D26*
X015120Y064160D02*
D03*
X000980Y060530D02*
D03*
D27*
X006120Y057410D02*
D03*
X005805Y056938D02*
D03*
X005490Y057410D02*
D03*
X005175Y056938D02*
D03*
X004860Y057410D02*
D03*
D28*
X004043Y055422D02*
D03*
X006937Y055422D02*
D03*
D29*
X001210Y056183D02*
D03*
X002310Y056183D02*
D03*
X002860Y055230D02*
D03*
X002310Y054277D02*
D03*
X001210Y054277D02*
D03*
X000660Y055230D02*
D03*
X056620Y056153D02*
D03*
X057720Y056153D02*
D03*
X058270Y055200D02*
D03*
X057720Y054247D02*
D03*
X056620Y054247D02*
D03*
X056070Y055200D02*
D03*
X056930Y070244D02*
D03*
X058030Y070244D02*
D03*
X058580Y069291D02*
D03*
X058030Y068339D02*
D03*
X056930Y068339D02*
D03*
X056380Y069291D02*
D03*
X001180Y070063D02*
D03*
X002280Y070063D02*
D03*
X002830Y069110D02*
D03*
X002280Y068157D02*
D03*
X001180Y068157D02*
D03*
X000630Y069110D02*
D03*
D30*
X001760Y055230D02*
D03*
X057170Y055200D02*
D03*
X057480Y069291D02*
D03*
X001730Y069110D02*
D03*
D31*
X015930Y053920D02*
D03*
X031543Y062114D02*
D03*
X043730Y060560D02*
D03*
X034220Y054580D02*
D03*
X034110Y060400D02*
D03*
X031350Y061240D02*
D03*
X033860Y055980D02*
D03*
X025920Y056400D02*
D03*
X026700Y060175D02*
D03*
X022290Y059700D02*
D03*
X045330Y058280D02*
D03*
X009295Y062750D02*
D03*
X033960Y068010D02*
D03*
X030920Y070030D02*
D03*
X046960Y068630D02*
D03*
X040870Y068672D02*
D03*
X044459Y069913D02*
D03*
X037845Y069913D02*
D03*
X037176Y070169D02*
D03*
X027683Y067850D02*
D03*
X026700Y067440D02*
D03*
X005040Y068570D02*
D03*
X004105Y070030D02*
D03*
X023948Y068600D02*
D03*
X011390Y068530D02*
D03*
X010719Y070030D02*
D03*
X018003Y070395D02*
D03*
X017043Y069932D02*
D03*
X014026Y070270D02*
D03*
X030090Y059612D02*
D03*
X045150Y063730D02*
D03*
X033225Y061950D02*
D03*
X027980Y061050D02*
D03*
X037550Y065830D02*
D03*
X029680Y063210D02*
D03*
X013691Y069750D02*
D03*
X013620Y068270D02*
D03*
X028594Y068270D02*
D03*
X042500Y069515D02*
D03*
X048030Y070030D02*
D03*
X035448Y068122D02*
D03*
X050870Y070030D02*
D03*
X032504Y069040D02*
D03*
X055051Y068368D02*
D03*
X017680Y066270D02*
D03*
X018560Y065390D02*
D03*
X049270Y066320D02*
D03*
X018260Y066270D02*
D03*
X037380Y065340D02*
D03*
X033940Y064080D02*
D03*
X033010Y055425D02*
D03*
X030648Y062446D02*
D03*
X045550Y068890D02*
D03*
X024210Y070030D02*
D03*
X026500Y060768D02*
D03*
X025080Y070400D02*
D03*
X040120Y069620D02*
D03*
X020641Y070120D02*
D03*
X020940Y056360D02*
D03*
X015155Y056360D02*
D03*
X021405Y064055D02*
D03*
X030250Y060810D02*
D03*
X017980Y061120D02*
D03*
X031480Y059300D02*
D03*
X014320Y055960D02*
D03*
X041285Y058600D02*
D03*
X031096Y061487D02*
D03*
X030590Y063073D02*
D03*
X041630Y058589D02*
D03*
X041890Y061920D02*
D03*
X030820Y062750D02*
D03*
X035400Y057210D02*
D03*
X034870Y057883D02*
D03*
X025560Y057630D02*
D03*
X033805Y054810D02*
D03*
X047890Y066331D02*
D03*
X016870Y066200D02*
D03*
X017860Y061950D02*
D03*
X011120Y060690D02*
D03*
X053395Y067934D02*
D03*
X050404Y068528D02*
D03*
X034045Y068611D02*
D03*
X017580Y069800D02*
D03*
X033090Y061010D02*
D03*
X030930Y061945D02*
D03*
X048610Y057000D02*
D03*
X029782Y062875D02*
D03*
X017310Y064170D02*
D03*
X031148Y057977D02*
D03*
X021980Y070430D02*
D03*
X025788Y056898D02*
D03*
X025365Y056765D02*
D03*
X025538Y057244D02*
D03*
X033892Y063503D02*
D03*
X041250Y063430D02*
D03*
X010760Y061580D02*
D03*
X015935Y055055D02*
D03*
X035220Y057525D02*
D03*
X050850Y058990D02*
D03*
X031995Y064270D02*
D03*
X035135Y056220D02*
D03*
X035509Y056341D02*
D03*
X031290Y063260D02*
D03*
X017070Y058975D02*
D03*
X029300Y056790D02*
D03*
X011862Y068618D02*
D03*
X031190Y060541D02*
D03*
X030693Y057720D02*
D03*
X015086Y070030D02*
D03*
X009740Y069220D02*
D03*
X033690Y063220D02*
D03*
X032880Y053800D02*
D03*
X025500Y056400D02*
D03*
X025140Y057200D02*
D03*
X030370Y057895D02*
D03*
X050540Y067930D02*
D03*
X031720Y056980D02*
D03*
X030700Y059470D02*
D03*
X020960Y063680D02*
D03*
X036840Y061100D02*
D03*
X028155Y065065D02*
D03*
X039960Y066500D02*
D03*
X034742Y057375D02*
D03*
X031850Y062960D02*
D03*
X037230Y056490D02*
D03*
X029900Y061335D02*
D03*
X023290Y061110D02*
D03*
X029072Y057282D02*
D03*
X028597Y057635D02*
D03*
X051070Y067960D02*
D03*
X034538Y070310D02*
D03*
X013610Y068630D02*
D03*
X030680Y060400D02*
D03*
X019820Y063570D02*
D03*
X026260Y061320D02*
D03*
X037380Y064460D02*
D03*
X042440Y067220D02*
D03*
X009290Y062360D02*
D03*
X053220Y064190D02*
D03*
X057500Y064114D02*
D03*
X029860Y062450D02*
D03*
X014380Y069830D02*
D03*
X031460Y059680D02*
D03*
X033090Y059910D02*
D03*
X043930Y069850D02*
D03*
X040480Y068560D02*
D03*
X014580Y063460D02*
D03*
X002850Y063994D02*
D03*
X015620Y070420D02*
D03*
X045129Y070519D02*
D03*
X049710Y061360D02*
D03*
D32*
X044775Y057560D02*
D03*
X044775Y058060D02*
D03*
X044775Y058560D02*
D03*
X044775Y059060D02*
D03*
X046665Y057560D02*
D03*
X046665Y058060D02*
D03*
X046665Y058560D02*
D03*
X046665Y059060D02*
D03*
D33*
X049670Y060610D02*
D03*
X048320Y060610D02*
D03*
X049670Y063366D02*
D03*
X048320Y063366D02*
D03*
X009794Y063423D02*
D03*
X011144Y063423D02*
D03*
X007038Y063423D02*
D03*
X008388Y063423D02*
D03*
D34*
X043500Y068250D02*
D03*
X014630Y068490D02*
D03*
D35*
X045005Y066331D02*
D03*
X045005Y066587D02*
D03*
X045005Y066843D02*
D03*
X045005Y067098D02*
D03*
X045005Y067354D02*
D03*
X045005Y067610D02*
D03*
X045005Y067866D02*
D03*
X045005Y068122D02*
D03*
X045005Y068378D02*
D03*
X045005Y068634D02*
D03*
X045005Y068890D02*
D03*
X045005Y069146D02*
D03*
X045005Y069402D02*
D03*
X045005Y069658D02*
D03*
X045005Y069913D02*
D03*
X045005Y070169D02*
D03*
X041995Y070169D02*
D03*
X041995Y069913D02*
D03*
X041995Y069658D02*
D03*
X041995Y069402D02*
D03*
X041995Y069146D02*
D03*
X041995Y068890D02*
D03*
X041995Y068634D02*
D03*
X041995Y068378D02*
D03*
X041995Y068122D02*
D03*
X041995Y067866D02*
D03*
X041995Y067610D02*
D03*
X041995Y067354D02*
D03*
X041995Y067098D02*
D03*
X041995Y066843D02*
D03*
X041995Y066587D02*
D03*
X041995Y066331D02*
D03*
X016135Y066571D02*
D03*
X016135Y066827D02*
D03*
X016135Y067083D02*
D03*
X016135Y067338D02*
D03*
X016135Y067594D02*
D03*
X016135Y067850D02*
D03*
X016135Y068106D02*
D03*
X016135Y068362D02*
D03*
X016135Y068618D02*
D03*
X016135Y068874D02*
D03*
X016135Y069130D02*
D03*
X016135Y069386D02*
D03*
X016135Y069642D02*
D03*
X016135Y069897D02*
D03*
X016135Y070153D02*
D03*
X016135Y070409D02*
D03*
X013125Y070409D02*
D03*
X013125Y070153D02*
D03*
X013125Y069897D02*
D03*
X013125Y069642D02*
D03*
X013125Y069386D02*
D03*
X013125Y069130D02*
D03*
X013125Y068874D02*
D03*
X013125Y068618D02*
D03*
X013125Y068362D02*
D03*
X013125Y068106D02*
D03*
X013125Y067850D02*
D03*
X013125Y067594D02*
D03*
X013125Y067338D02*
D03*
X013125Y067083D02*
D03*
X013125Y066827D02*
D03*
X013125Y066571D02*
D03*
M02*
