%FSAX24Y24*%
%MOIN*%
G70*
G01*
G75*
G04 Layer_Color=16711935*
%ADD10R,0.0300X0.0300*%
%ADD11R,0.0300X0.0300*%
G04:AMPARAMS|DCode=12|XSize=79mil|YSize=44mil|CornerRadius=22mil|HoleSize=0mil|Usage=FLASHONLY|Rotation=90.000|XOffset=0mil|YOffset=0mil|HoleType=Round|Shape=RoundedRectangle|*
%AMROUNDEDRECTD12*
21,1,0.0790,0.0000,0,0,90.0*
21,1,0.0350,0.0440,0,0,90.0*
1,1,0.0440,0.0000,0.0175*
1,1,0.0440,0.0000,-0.0175*
1,1,0.0440,0.0000,-0.0175*
1,1,0.0440,0.0000,0.0175*
%
%ADD12ROUNDEDRECTD12*%
%ADD13R,0.0472X0.2400*%
%ADD14O,0.0709X0.0094*%
%ADD15O,0.0094X0.0709*%
%ADD16O,0.0472X0.1181*%
%ADD17R,0.2323X0.2559*%
%ADD18O,0.0827X0.0138*%
%ADD19C,0.0060*%
%ADD20C,0.0100*%
%ADD21C,0.0094*%
%ADD22C,0.0295*%
%ADD23C,0.0197*%
%ADD24C,0.0700*%
%ADD25R,0.0700X0.0700*%
%ADD26R,0.0700X0.0700*%
%ADD27C,0.0400*%
%ADD28O,0.0600X0.1000*%
%ADD29C,0.0600*%
%ADD30C,0.2500*%
%ADD31C,0.0276*%
%ADD32O,0.0866X0.0236*%
%ADD33R,0.0600X0.1000*%
%ADD34R,0.1618X0.1717*%
%ADD35R,0.0500X0.0120*%
%ADD36C,0.0080*%
%ADD37C,0.0050*%
%ADD38C,0.0098*%
%ADD39C,0.0236*%
%ADD40C,0.0079*%
%ADD41R,0.1000X0.0996*%
%ADD42C,0.0040*%
%ADD43C,0.0030*%
%ADD44R,0.0996X0.1000*%
%ADD45R,0.0996X0.1000*%
%ADD46C,0.0000*%
D19*
X006947Y055048D02*
G03*
X007065Y055166I000000J000118D01*
G01*
X006789Y055166D02*
G03*
X006907Y055048I000118J000000D01*
G01*
X006927Y055796D02*
G03*
X006789Y055658I000000J-000138D01*
G01*
X007065Y055658D02*
G03*
X006927Y055796I-000138J000000D01*
G01*
X004171Y055658D02*
G03*
X004033Y055796I-000138J000000D01*
G01*
X004033Y055796D02*
G03*
X003896Y055658I000000J-000138D01*
G01*
X003896Y055166D02*
G03*
X004014Y055048I000118J000000D01*
G01*
X004053Y055048D02*
G03*
X004171Y055166I000000J000118D01*
G01*
X006907Y054733D02*
X006947Y054890D01*
X006907Y054733D02*
X006986Y054733D01*
X006947Y054890D02*
X006986Y054733D01*
X006947Y053788D02*
X006947Y054890D01*
X007065Y055166D02*
X007065Y055638D01*
X006907Y055048D02*
X006947Y055048D01*
X006789Y055166D02*
X006789Y055658D01*
X007065Y055441D02*
X007065Y055658D01*
X004171Y055441D02*
X004171Y055658D01*
X003896Y055166D02*
X003896Y055658D01*
X004014Y055048D02*
X004053Y055048D01*
X004171Y055166D02*
X004171Y055638D01*
X004053Y053788D02*
X004053Y054890D01*
X004092Y054733D01*
X004014Y054733D02*
X004092Y054733D01*
X004014Y054733D02*
X004053Y054890D01*
D43*
X041895Y065344D02*
X042228Y065677D01*
X041895Y065677D02*
X042228Y065344D01*
X041895Y065511D02*
X042228Y065511D01*
X042062Y065677D02*
X042062Y065344D01*
X013025Y065584D02*
X013358Y065917D01*
X013025Y065917D02*
X013358Y065584D01*
X013025Y065751D02*
X013358Y065751D01*
X013192Y065917D02*
X013192Y065584D01*
D46*
X043620Y066065D02*
G03*
X043380Y066065I-000120J000000D01*
G01*
X014750Y066305D02*
G03*
X014510Y066305I-000120J000000D01*
G01*
X042280Y066065D02*
X042280Y070435D01*
X042280Y066065D02*
X044720Y066065D01*
X044720Y070435D01*
X042280Y070435D02*
X044720Y070435D01*
X044720Y066271D02*
X045135Y066271D01*
X045135Y066391D01*
X044720Y066391D02*
X045135Y066391D01*
X044720Y066271D02*
X044720Y066391D01*
X044720Y066527D02*
X045135Y066527D01*
X045135Y066647D01*
X044720Y066647D02*
X045135Y066647D01*
X044720Y066527D02*
X044720Y066647D01*
X044720Y066783D02*
X045135Y066783D01*
X045135Y066903D01*
X044720Y066903D02*
X045135Y066903D01*
X044720Y066783D02*
X044720Y066903D01*
X044720Y067038D02*
X045135Y067038D01*
X045135Y067158D01*
X044720Y067158D02*
X045135Y067158D01*
X044720Y067038D02*
X044720Y067158D01*
X044720Y067294D02*
X045135Y067294D01*
X045135Y067414D01*
X044720Y067414D02*
X045135Y067414D01*
X044720Y067294D02*
X044720Y067414D01*
X044720Y067550D02*
X045135Y067550D01*
X045135Y067670D01*
X044720Y067670D02*
X045135Y067670D01*
X044720Y067550D02*
X044720Y067670D01*
X044720Y067806D02*
X045135Y067806D01*
X045135Y067926D01*
X044720Y067926D02*
X045135Y067926D01*
X044720Y067806D02*
X044720Y067926D01*
X044720Y068062D02*
X045135Y068062D01*
X045135Y068182D01*
X044720Y068182D02*
X045135Y068182D01*
X044720Y068062D02*
X044720Y068182D01*
X044720Y068318D02*
X045135Y068318D01*
X045135Y068438D01*
X044720Y068438D02*
X045135Y068438D01*
X044720Y068318D02*
X044720Y068438D01*
X044720Y068574D02*
X045135Y068574D01*
X045135Y068694D01*
X044720Y068694D02*
X045135Y068694D01*
X044720Y068574D02*
X044720Y068694D01*
X044720Y068830D02*
X045135Y068830D01*
X045135Y068950D01*
X044720Y068950D02*
X045135Y068950D01*
X044720Y068830D02*
X044720Y068950D01*
X044720Y069086D02*
X045135Y069086D01*
X045135Y069206D01*
X044720Y069206D02*
X045135Y069206D01*
X044720Y069086D02*
X044720Y069206D01*
X044720Y069342D02*
X045135Y069342D01*
X045135Y069462D01*
X044720Y069462D02*
X045135Y069462D01*
X044720Y069342D02*
X044720Y069462D01*
X044720Y069598D02*
X045135Y069598D01*
X045135Y069718D01*
X044720Y069718D02*
X045135Y069718D01*
X044720Y069598D02*
X044720Y069718D01*
X044720Y069853D02*
X045135Y069853D01*
X045135Y069973D01*
X044720Y069973D02*
X045135Y069973D01*
X044720Y069853D02*
X044720Y069973D01*
X044720Y070109D02*
X045135Y070109D01*
X045135Y070229D01*
X044720Y070229D02*
X045135Y070229D01*
X044720Y070109D02*
X044720Y070229D01*
X041865Y070229D02*
X042280Y070229D01*
X041865Y070109D02*
X041865Y070229D01*
X041865Y070109D02*
X042280Y070109D01*
X042280Y070229D01*
X041865Y069973D02*
X042280Y069973D01*
X041865Y069853D02*
X041865Y069973D01*
X041865Y069853D02*
X042280Y069853D01*
X042280Y069973D01*
X041865Y069718D02*
X042280Y069718D01*
X041865Y069598D02*
X041865Y069718D01*
X041865Y069598D02*
X042280Y069598D01*
X042280Y069718D01*
X041865Y069462D02*
X042280Y069462D01*
X041865Y069342D02*
X041865Y069462D01*
X041865Y069342D02*
X042280Y069342D01*
X042280Y069462D01*
X041865Y069206D02*
X042280Y069206D01*
X041865Y069086D02*
X041865Y069206D01*
X041865Y069086D02*
X042280Y069086D01*
X042280Y069206D01*
X041865Y068950D02*
X042280Y068950D01*
X041865Y068830D02*
X041865Y068950D01*
X041865Y068830D02*
X042280Y068830D01*
X042280Y068950D01*
X041865Y068694D02*
X042280Y068694D01*
X041865Y068574D02*
X041865Y068694D01*
X041865Y068574D02*
X042280Y068574D01*
X042280Y068694D01*
X041865Y068438D02*
X042280Y068438D01*
X041865Y068318D02*
X041865Y068438D01*
X041865Y068318D02*
X042280Y068318D01*
X042280Y068438D01*
X041865Y068182D02*
X042280Y068182D01*
X041865Y068062D02*
X041865Y068182D01*
X041865Y068062D02*
X042280Y068062D01*
X042280Y068182D01*
X041865Y067926D02*
X042280Y067926D01*
X041865Y067806D02*
X041865Y067926D01*
X041865Y067806D02*
X042280Y067806D01*
X042280Y067926D01*
X041865Y067670D02*
X042280Y067670D01*
X041865Y067550D02*
X041865Y067670D01*
X041865Y067550D02*
X042280Y067550D01*
X042280Y067670D01*
X041865Y067414D02*
X042280Y067414D01*
X041865Y067294D02*
X041865Y067414D01*
X041865Y067294D02*
X042280Y067294D01*
X042280Y067414D01*
X041865Y067158D02*
X042280Y067158D01*
X041865Y067038D02*
X041865Y067158D01*
X041865Y067038D02*
X042280Y067038D01*
X042280Y067158D01*
X041865Y066903D02*
X042280Y066903D01*
X041865Y066783D02*
X041865Y066903D01*
X041865Y066783D02*
X042280Y066783D01*
X042280Y066903D01*
X041865Y066647D02*
X042280Y066647D01*
X041865Y066527D02*
X041865Y066647D01*
X041865Y066527D02*
X042280Y066527D01*
X042280Y066647D01*
X041865Y066391D02*
X042280Y066391D01*
X041865Y066271D02*
X041865Y066391D01*
X041865Y066271D02*
X042280Y066271D01*
X042280Y066391D01*
X013410Y066305D02*
X013410Y070675D01*
X013410Y066305D02*
X015850Y066305D01*
X015850Y070675D01*
X013410Y070675D02*
X015850Y070675D01*
X015850Y066511D02*
X016265Y066511D01*
X016265Y066631D01*
X015850Y066631D02*
X016265Y066631D01*
X015850Y066511D02*
X015850Y066631D01*
X015850Y066767D02*
X016265Y066767D01*
X016265Y066887D01*
X015850Y066887D02*
X016265Y066887D01*
X015850Y066767D02*
X015850Y066887D01*
X015850Y067023D02*
X016265Y067023D01*
X016265Y067143D01*
X015850Y067143D02*
X016265Y067143D01*
X015850Y067023D02*
X015850Y067143D01*
X015850Y067278D02*
X016265Y067278D01*
X016265Y067398D01*
X015850Y067398D02*
X016265Y067398D01*
X015850Y067278D02*
X015850Y067398D01*
X015850Y067534D02*
X016265Y067534D01*
X016265Y067654D01*
X015850Y067654D02*
X016265Y067654D01*
X015850Y067534D02*
X015850Y067654D01*
X015850Y067790D02*
X016265Y067790D01*
X016265Y067910D01*
X015850Y067910D02*
X016265Y067910D01*
X015850Y067790D02*
X015850Y067910D01*
X015850Y068046D02*
X016265Y068046D01*
X016265Y068166D01*
X015850Y068166D02*
X016265Y068166D01*
X015850Y068046D02*
X015850Y068166D01*
X015850Y068302D02*
X016265Y068302D01*
X016265Y068422D01*
X015850Y068422D02*
X016265Y068422D01*
X015850Y068302D02*
X015850Y068422D01*
X015850Y068558D02*
X016265Y068558D01*
X016265Y068678D01*
X015850Y068678D02*
X016265Y068678D01*
X015850Y068558D02*
X015850Y068678D01*
X015850Y068814D02*
X016265Y068814D01*
X016265Y068934D01*
X015850Y068934D02*
X016265Y068934D01*
X015850Y068814D02*
X015850Y068934D01*
X015850Y069070D02*
X016265Y069070D01*
X016265Y069190D01*
X015850Y069190D02*
X016265Y069190D01*
X015850Y069070D02*
X015850Y069190D01*
X015850Y069326D02*
X016265Y069326D01*
X016265Y069446D01*
X015850Y069446D02*
X016265Y069446D01*
X015850Y069326D02*
X015850Y069446D01*
X015850Y069582D02*
X016265Y069582D01*
X016265Y069702D01*
X015850Y069702D02*
X016265Y069702D01*
X015850Y069582D02*
X015850Y069702D01*
X015850Y069837D02*
X016265Y069837D01*
X016265Y069957D01*
X015850Y069957D02*
X016265Y069957D01*
X015850Y069837D02*
X015850Y069957D01*
X015850Y070093D02*
X016265Y070093D01*
X016265Y070213D01*
X015850Y070213D02*
X016265Y070213D01*
X015850Y070093D02*
X015850Y070213D01*
X015850Y070349D02*
X016265Y070349D01*
X016265Y070469D01*
X015850Y070469D02*
X016265Y070469D01*
X015850Y070349D02*
X015850Y070469D01*
X012995Y070469D02*
X013410Y070469D01*
X012995Y070349D02*
X012995Y070469D01*
X012995Y070349D02*
X013410Y070349D01*
X013410Y070469D01*
X012995Y070213D02*
X013410Y070213D01*
X012995Y070093D02*
X012995Y070213D01*
X012995Y070093D02*
X013410Y070093D01*
X013410Y070213D01*
X012995Y069957D02*
X013410Y069957D01*
X012995Y069837D02*
X012995Y069957D01*
X012995Y069837D02*
X013410Y069837D01*
X013410Y069957D01*
X012995Y069702D02*
X013410Y069702D01*
X012995Y069582D02*
X012995Y069702D01*
X012995Y069582D02*
X013410Y069582D01*
X013410Y069702D01*
X012995Y069446D02*
X013410Y069446D01*
X012995Y069326D02*
X012995Y069446D01*
X012995Y069326D02*
X013410Y069326D01*
X013410Y069446D01*
X012995Y069190D02*
X013410Y069190D01*
X012995Y069070D02*
X012995Y069190D01*
X012995Y069070D02*
X013410Y069070D01*
X013410Y069190D01*
X012995Y068934D02*
X013410Y068934D01*
X012995Y068814D02*
X012995Y068934D01*
X012995Y068814D02*
X013410Y068814D01*
X013410Y068934D01*
X012995Y068678D02*
X013410Y068678D01*
X012995Y068558D02*
X012995Y068678D01*
X012995Y068558D02*
X013410Y068558D01*
X013410Y068678D01*
X012995Y068422D02*
X013410Y068422D01*
X012995Y068302D02*
X012995Y068422D01*
X012995Y068302D02*
X013410Y068302D01*
X013410Y068422D01*
X012995Y068166D02*
X013410Y068166D01*
X012995Y068046D02*
X012995Y068166D01*
X012995Y068046D02*
X013410Y068046D01*
X013410Y068166D01*
X012995Y067910D02*
X013410Y067910D01*
X012995Y067790D02*
X012995Y067910D01*
X012995Y067790D02*
X013410Y067790D01*
X013410Y067910D01*
X012995Y067654D02*
X013410Y067654D01*
X012995Y067534D02*
X012995Y067654D01*
X012995Y067534D02*
X013410Y067534D01*
X013410Y067654D01*
X012995Y067398D02*
X013410Y067398D01*
X012995Y067278D02*
X012995Y067398D01*
X012995Y067278D02*
X013410Y067278D01*
X013410Y067398D01*
X012995Y067143D02*
X013410Y067143D01*
X012995Y067023D02*
X012995Y067143D01*
X012995Y067023D02*
X013410Y067023D01*
X013410Y067143D01*
X012995Y066887D02*
X013410Y066887D01*
X012995Y066767D02*
X012995Y066887D01*
X012995Y066767D02*
X013410Y066767D01*
X013410Y066887D01*
X012995Y066631D02*
X013410Y066631D01*
X012995Y066511D02*
X012995Y066631D01*
X012995Y066511D02*
X013410Y066511D01*
X013410Y066631D01*
M02*
