%FSAX24Y24*%
%MOIN*%
G70*
G01*
G75*
G04 Layer_Color=8421504*
%ADD10R,0.0300X0.0300*%
%ADD11R,0.0300X0.0300*%
G04:AMPARAMS|DCode=12|XSize=79mil|YSize=44mil|CornerRadius=22mil|HoleSize=0mil|Usage=FLASHONLY|Rotation=90.000|XOffset=0mil|YOffset=0mil|HoleType=Round|Shape=RoundedRectangle|*
%AMROUNDEDRECTD12*
21,1,0.0790,0.0000,0,0,90.0*
21,1,0.0350,0.0440,0,0,90.0*
1,1,0.0440,0.0000,0.0175*
1,1,0.0440,0.0000,-0.0175*
1,1,0.0440,0.0000,-0.0175*
1,1,0.0440,0.0000,0.0175*
%
%ADD12ROUNDEDRECTD12*%
%ADD13R,0.0472X0.2400*%
%ADD14O,0.0709X0.0094*%
%ADD15O,0.0094X0.0709*%
%ADD16O,0.0472X0.1181*%
%ADD17R,0.2323X0.2559*%
%ADD18O,0.0827X0.0138*%
%ADD19C,0.0060*%
%ADD20C,0.0100*%
%ADD21C,0.0094*%
%ADD22C,0.0295*%
%ADD23C,0.0197*%
%ADD24C,0.0700*%
%ADD25R,0.0700X0.0700*%
%ADD26R,0.0700X0.0700*%
%ADD27C,0.0400*%
%ADD28O,0.0600X0.1000*%
%ADD29C,0.0600*%
%ADD30C,0.2500*%
%ADD31C,0.0276*%
%ADD32O,0.0866X0.0236*%
%ADD33R,0.0600X0.1000*%
%ADD34R,0.1618X0.1717*%
%ADD35R,0.0500X0.0120*%
%ADD36C,0.0080*%
%ADD37C,0.0050*%
%ADD38C,0.0098*%
%ADD39C,0.0236*%
%ADD40C,0.0079*%
%ADD41R,0.1000X0.0996*%
D10*
X048720Y063720D02*
D03*
X049270Y063720D02*
D03*
X048910Y061800D02*
D03*
X049460Y061800D02*
D03*
X008430Y065030D02*
D03*
X008980Y065030D02*
D03*
X013660Y062550D02*
D03*
X013110Y062550D02*
D03*
X012910Y058550D02*
D03*
X013460Y058550D02*
D03*
X006970Y058740D02*
D03*
X006420Y058740D02*
D03*
X000670Y065850D02*
D03*
X001220Y065850D02*
D03*
X013375Y060290D02*
D03*
X012825Y060290D02*
D03*
X049300Y058410D02*
D03*
X048750Y058410D02*
D03*
X043080Y059830D02*
D03*
X042530Y059830D02*
D03*
X045480Y057870D02*
D03*
X046030Y057870D02*
D03*
X013580Y064250D02*
D03*
X013030Y064250D02*
D03*
X043010Y064170D02*
D03*
X042460Y064170D02*
D03*
D11*
X008630Y056990D02*
D03*
X008630Y057540D02*
D03*
X053680Y064350D02*
D03*
X053680Y063800D02*
D03*
D12*
X031901Y069217D02*
D03*
X031231Y069217D02*
D03*
X030562Y069217D02*
D03*
X030562Y067322D02*
D03*
X031231Y067322D02*
D03*
X031901Y067322D02*
D03*
X055051Y069217D02*
D03*
X054381Y069217D02*
D03*
X053711Y069217D02*
D03*
X053711Y067322D02*
D03*
X054381Y067322D02*
D03*
X055051Y067322D02*
D03*
X035208Y069217D02*
D03*
X034538Y069217D02*
D03*
X033869Y069217D02*
D03*
X033869Y067322D02*
D03*
X034538Y067322D02*
D03*
X035208Y067322D02*
D03*
X051744Y069217D02*
D03*
X051074Y069217D02*
D03*
X050404Y069217D02*
D03*
X050404Y067322D02*
D03*
X051074Y067322D02*
D03*
X051744Y067322D02*
D03*
X041822Y069217D02*
D03*
X041152Y069217D02*
D03*
X040483Y069217D02*
D03*
X040483Y067322D02*
D03*
X041152Y067322D02*
D03*
X041822Y067322D02*
D03*
X048437Y069217D02*
D03*
X047767Y069217D02*
D03*
X047097Y069217D02*
D03*
X047097Y067322D02*
D03*
X047767Y067322D02*
D03*
X048437Y067322D02*
D03*
X038515Y069217D02*
D03*
X037845Y069217D02*
D03*
X037176Y069217D02*
D03*
X037176Y067322D02*
D03*
X037845Y067322D02*
D03*
X038515Y067322D02*
D03*
X045129Y069217D02*
D03*
X044459Y069217D02*
D03*
X043790Y069217D02*
D03*
X043790Y067322D02*
D03*
X044459Y067322D02*
D03*
X045129Y067322D02*
D03*
X005444Y069217D02*
D03*
X004774Y069217D02*
D03*
X004105Y069217D02*
D03*
X004105Y067322D02*
D03*
X004774Y067322D02*
D03*
X005444Y067322D02*
D03*
X028594Y069217D02*
D03*
X027924Y069217D02*
D03*
X027255Y069217D02*
D03*
X027255Y067322D02*
D03*
X027924Y067322D02*
D03*
X028594Y067322D02*
D03*
X008752Y069217D02*
D03*
X008081Y069217D02*
D03*
X007412Y069217D02*
D03*
X007412Y067322D02*
D03*
X008081Y067322D02*
D03*
X008752Y067322D02*
D03*
X025287Y069217D02*
D03*
X024617Y069217D02*
D03*
X023948Y069217D02*
D03*
X023948Y067322D02*
D03*
X024617Y067322D02*
D03*
X025287Y067322D02*
D03*
X012059Y069217D02*
D03*
X011389Y069217D02*
D03*
X010719Y069217D02*
D03*
X010719Y067322D02*
D03*
X011389Y067322D02*
D03*
X012059Y067322D02*
D03*
X021980Y069217D02*
D03*
X021310Y069217D02*
D03*
X020641Y069217D02*
D03*
X020641Y067322D02*
D03*
X021310Y067322D02*
D03*
X021980Y067322D02*
D03*
X015366Y069217D02*
D03*
X014696Y069217D02*
D03*
X014026Y069217D02*
D03*
X014026Y067322D02*
D03*
X014696Y067322D02*
D03*
X015366Y067322D02*
D03*
X018673Y069217D02*
D03*
X018003Y069217D02*
D03*
X017333Y069217D02*
D03*
X017333Y067322D02*
D03*
X018003Y067322D02*
D03*
X018673Y067322D02*
D03*
D13*
X040730Y059955D02*
D03*
X040730Y063855D02*
D03*
D14*
X027251Y063130D02*
D03*
X027251Y062972D02*
D03*
X027251Y062815D02*
D03*
X027251Y062657D02*
D03*
X027251Y062500D02*
D03*
X027251Y062342D02*
D03*
X027251Y062185D02*
D03*
X027251Y062027D02*
D03*
X027251Y061870D02*
D03*
X027251Y061712D02*
D03*
X027251Y061555D02*
D03*
X027251Y061397D02*
D03*
X027251Y061240D02*
D03*
X027251Y061083D02*
D03*
X027251Y060925D02*
D03*
X027251Y060768D02*
D03*
X027251Y060610D02*
D03*
X027251Y060453D02*
D03*
X027251Y060295D02*
D03*
X027251Y060138D02*
D03*
X027251Y059980D02*
D03*
X027251Y059823D02*
D03*
X027251Y059665D02*
D03*
X027251Y059508D02*
D03*
X027251Y059350D02*
D03*
X032409Y059350D02*
D03*
X032409Y059508D02*
D03*
X032409Y059665D02*
D03*
X032409Y059823D02*
D03*
X032409Y059980D02*
D03*
X032409Y060138D02*
D03*
X032409Y060295D02*
D03*
X032409Y060453D02*
D03*
X032409Y060610D02*
D03*
X032409Y060768D02*
D03*
X032409Y060925D02*
D03*
X032409Y061083D02*
D03*
X032409Y061240D02*
D03*
X032409Y061397D02*
D03*
X032409Y061555D02*
D03*
X032409Y061712D02*
D03*
X032409Y061870D02*
D03*
X032409Y062027D02*
D03*
X032409Y062185D02*
D03*
X032409Y062342D02*
D03*
X032409Y062500D02*
D03*
X032409Y062657D02*
D03*
X032409Y062815D02*
D03*
X032409Y062972D02*
D03*
X032409Y063130D02*
D03*
D15*
X027940Y058661D02*
D03*
X028098Y058661D02*
D03*
X028255Y058661D02*
D03*
X028413Y058661D02*
D03*
X028570Y058661D02*
D03*
X028728Y058661D02*
D03*
X028885Y058661D02*
D03*
X029043Y058661D02*
D03*
X029200Y058661D02*
D03*
X029358Y058661D02*
D03*
X029515Y058661D02*
D03*
X029673Y058661D02*
D03*
X029830Y058661D02*
D03*
X029987Y058661D02*
D03*
X030145Y058661D02*
D03*
X030302Y058661D02*
D03*
X030460Y058661D02*
D03*
X030617Y058661D02*
D03*
X030775Y058661D02*
D03*
X030932Y058661D02*
D03*
X031090Y058661D02*
D03*
X031247Y058661D02*
D03*
X031405Y058661D02*
D03*
X031562Y058661D02*
D03*
X031720Y058661D02*
D03*
X031720Y063819D02*
D03*
X031562Y063819D02*
D03*
X031405Y063819D02*
D03*
X031247Y063819D02*
D03*
X031090Y063819D02*
D03*
X030932Y063819D02*
D03*
X030775Y063819D02*
D03*
X030617Y063819D02*
D03*
X030460Y063819D02*
D03*
X030302Y063819D02*
D03*
X030145Y063819D02*
D03*
X029987Y063819D02*
D03*
X029830Y063819D02*
D03*
X029673Y063819D02*
D03*
X029515Y063819D02*
D03*
X029358Y063819D02*
D03*
X029200Y063819D02*
D03*
X029043Y063819D02*
D03*
X028885Y063819D02*
D03*
X028728Y063819D02*
D03*
X028570Y063819D02*
D03*
X028413Y063819D02*
D03*
X028255Y063819D02*
D03*
X028098Y063819D02*
D03*
X027940Y063819D02*
D03*
D16*
X056032Y064863D02*
D03*
X057804Y064863D02*
D03*
X002408Y064420D02*
D03*
X004180Y064420D02*
D03*
X044658Y063870D02*
D03*
X046430Y063870D02*
D03*
D17*
X056918Y061999D02*
D03*
X003294Y061556D02*
D03*
X045544Y061006D02*
D03*
D18*
X009958Y060557D02*
D03*
X009958Y060813D02*
D03*
X009958Y061068D02*
D03*
X009958Y061324D02*
D03*
X009958Y061580D02*
D03*
X009958Y061836D02*
D03*
X009958Y062092D02*
D03*
X009958Y062348D02*
D03*
X009958Y062604D02*
D03*
X009958Y062860D02*
D03*
X009958Y063116D02*
D03*
X009958Y063372D02*
D03*
X009958Y063627D02*
D03*
X009958Y063883D02*
D03*
X007242Y060557D02*
D03*
X007242Y060813D02*
D03*
X007242Y061068D02*
D03*
X007242Y061324D02*
D03*
X007242Y061580D02*
D03*
X007242Y061836D02*
D03*
X007242Y062092D02*
D03*
X007242Y062348D02*
D03*
X007242Y062604D02*
D03*
X007242Y062860D02*
D03*
X007242Y063116D02*
D03*
X007242Y063372D02*
D03*
X007242Y063627D02*
D03*
X007242Y063883D02*
D03*
M02*
