M48
;Layer_Color=9474304
;FILE_FORMAT=2:4
INCH
;TYPE=PLATED
T1F00S00C0.0130
T2F00S00C0.0250
T3F00S00C0.0300
T5F00S00C0.0400
T6F00S00C0.1220
%
T01
X048610Y057000
X050850Y058990
X049710Y061360
X043730Y060560
X041890Y061920
X041630Y058589
X041285Y058600
X045330Y058280
X037230Y056490
X035509Y056341
X035135Y056220
X035400Y057210
X035220Y057525
X034742Y057375
X034870Y057883
X033860Y055980
X033805Y054810
X034220Y054580
X033010Y055425
X032880Y053800
X031720Y056980
X031480Y059300
X031460Y059680
X031350Y061240
X031543Y062114
X033225Y061950
X033090Y061010
X033090Y059910
X034110Y060400
X036840Y061100
X031096Y061487
X030930Y061945
X030648Y062446
X029860Y062450
X029900Y061335
X030250Y060810
X030680Y060400
X031190Y060541
X030700Y059470
X030090Y059612
X030370Y057895
X030693Y057720
X031148Y057977
X029072Y057282
X029300Y056790
X028597Y057635
X025560Y057630
X025538Y057244
X025140Y057200
X025365Y056765
X025500Y056400
X025920Y056400
X025788Y056898
X026700Y060175
X026500Y060768
X026260Y061320
X027980Y061050
X023290Y061110
X022290Y059700
X020940Y056360
X015935Y055055
X015930Y053920
X017070Y058975
X017980Y061120
X017860Y061950
X010760Y061580
X011120Y060690
X009290Y062360
X014320Y055960
X015155Y056360
X014580Y063460
X013620Y068270
X013610Y068630
X013691Y069750
X014380Y069830
X014026Y070270
X015086Y070030
X015620Y070420
X010719Y070030
X009740Y069220
X011390Y068530
X011862Y068618
X005040Y068570
X004105Y070030
X002850Y063994
X009295Y062750
X017310Y064170
X017680Y066270
X018260Y066270
X018560Y065390
X016870Y066200
X017043Y069932
X017580Y069800
X018003Y070395
X020641Y070120
X021980Y070430
X024210Y070030
X025080Y070400
X023948Y068600
X026700Y067440
X027683Y067850
X028594Y068270
X028155Y065065
X029680Y063210
X029782Y062875
X030590Y063073
X030820Y062750
X030920Y070030
X021405Y064055
X020960Y063680
X019820Y063570
X031290Y063260
X031850Y062960
X031995Y064270
X033940Y064080
X033892Y063503
X033690Y063220
X037380Y064460
X037380Y065340
X037550Y065830
X039960Y066500
X040480Y068560
X040870Y068672
X040120Y069620
X042500Y069515
X043930Y069850
X044459Y069913
X045129Y070519
X045550Y068890
X042440Y067220
X041250Y063430
X045150Y063730
X037845Y069913
X037176Y070169
X034538Y070310
X034045Y068611
X033960Y068010
X035448Y068122
X032504Y069040
X046960Y068630
X048030Y070030
X050870Y070030
X050404Y068528
X050540Y067930
X051070Y067960
X053395Y067934
X055051Y068368
X053220Y064190
X057500Y064114
X049270Y066320
X047890Y066331
T02
X005175Y056938
X005805Y056938
X006120Y057410
X005490Y057410
X004860Y057410
T03
X056620Y054247
X057720Y054247
X058270Y055200
X057720Y056153
X056620Y056153
X056070Y055200
X002860Y055230
X002310Y054277
X001210Y054277
X000660Y055230
X001210Y056183
X002310Y056183
X002280Y068157
X001180Y068157
X000630Y069110
X001180Y070063
X002280Y070063
X002830Y069110
X056380Y069291
X056930Y070244
X058030Y070244
X058580Y069291
X058030Y068339
X056930Y068339
T05
X047500Y054370
X048500Y054370
X048500Y055370
X049500Y055370
X049500Y054370
X047500Y055370
X051410Y059640
X052410Y059640
X053410Y059640
X054410Y059640
X046500Y055370
X046500Y054370
X045500Y054370
X044500Y054370
X043500Y054370
X043500Y055370
X044500Y055370
X045500Y055370
X040825Y055370
X040825Y054370
X039825Y054370
X039825Y055370
X038825Y055370
X038825Y054370
X037825Y054370
X036825Y054370
X035825Y054370
X034825Y054370
X034825Y055370
X035825Y055370
X036825Y055370
X037825Y055370
X031150Y055370
X030150Y055370
X029150Y055370
X028150Y055370
X028150Y054370
X029150Y054370
X030150Y054370
X031150Y054370
X027150Y054370
X026150Y054370
X026150Y055370
X027150Y055370
X023475Y055370
X023475Y054370
X022475Y054370
X021475Y054370
X020475Y054370
X019475Y054370
X018475Y054370
X017475Y054370
X017475Y055370
X018475Y055370
X019475Y055370
X020475Y055370
X021475Y055370
X022475Y055370
X014800Y055370
X013800Y055370
X012800Y055370
X011800Y055370
X010800Y055370
X009800Y055370
X008800Y055370
X008800Y054370
X009800Y054370
X010800Y054370
X011800Y054370
X012800Y054370
X013800Y054370
X014800Y054370
X015120Y059160
X015120Y060160
X015120Y061160
X015120Y062160
X000980Y061530
X000980Y060530
X000980Y062530
X000980Y063530
X015120Y063160
X015120Y064160
T06
X057170Y055200
X001760Y055230
X001730Y069110
X057480Y069291
M30
