%FSAX24Y24*%
%MOIN*%
G70*
G01*
G75*
G04 Layer_Color=255*
%ADD10R,0.0300X0.0300*%
%ADD11R,0.0300X0.0300*%
G04:AMPARAMS|DCode=12|XSize=79mil|YSize=44mil|CornerRadius=22mil|HoleSize=0mil|Usage=FLASHONLY|Rotation=90.000|XOffset=0mil|YOffset=0mil|HoleType=Round|Shape=RoundedRectangle|*
%AMROUNDEDRECTD12*
21,1,0.0790,0.0000,0,0,90.0*
21,1,0.0350,0.0440,0,0,90.0*
1,1,0.0440,0.0000,0.0175*
1,1,0.0440,0.0000,-0.0175*
1,1,0.0440,0.0000,-0.0175*
1,1,0.0440,0.0000,0.0175*
%
%ADD12ROUNDEDRECTD12*%
%ADD13R,0.0472X0.2400*%
%ADD14O,0.0709X0.0094*%
%ADD15O,0.0094X0.0709*%
%ADD16O,0.0472X0.1181*%
%ADD17R,0.2323X0.2559*%
%ADD18O,0.0827X0.0138*%
%ADD19C,0.0060*%
%ADD20C,0.0100*%
%ADD21C,0.0094*%
%ADD22C,0.0295*%
%ADD23C,0.0197*%
%ADD24C,0.0700*%
%ADD25R,0.0700X0.0700*%
%ADD26R,0.0700X0.0700*%
%ADD27C,0.0400*%
%ADD28O,0.0600X0.1000*%
%ADD29C,0.0600*%
%ADD30C,0.2500*%
%ADD31C,0.0276*%
%ADD32O,0.0866X0.0236*%
%ADD33R,0.0600X0.1000*%
%ADD34R,0.1618X0.1717*%
%ADD35R,0.0500X0.0120*%
D10*
X021120Y063000D02*
D03*
X021670Y063000D02*
D03*
X019630Y064850D02*
D03*
X019080Y064850D02*
D03*
X019790Y060710D02*
D03*
X019240Y060710D02*
D03*
X016190Y059290D02*
D03*
X016740Y059290D02*
D03*
X021760Y060760D02*
D03*
X021210Y060760D02*
D03*
X005590Y063480D02*
D03*
X005040Y063480D02*
D03*
X032790Y062160D02*
D03*
X032240Y062160D02*
D03*
X049310Y065370D02*
D03*
X048760Y065370D02*
D03*
X007590Y061270D02*
D03*
X008140Y061270D02*
D03*
X019110Y063050D02*
D03*
X019660Y063050D02*
D03*
X010460Y061220D02*
D03*
X011010Y061220D02*
D03*
X021790Y059090D02*
D03*
X021240Y059090D02*
D03*
D11*
X027320Y059990D02*
D03*
X027320Y060540D02*
D03*
X030760Y059120D02*
D03*
X030760Y058570D02*
D03*
X045560Y063720D02*
D03*
X045560Y064270D02*
D03*
X030040Y063640D02*
D03*
X030040Y064190D02*
D03*
X027290Y062160D02*
D03*
X027290Y062710D02*
D03*
X028620Y058540D02*
D03*
X028620Y059090D02*
D03*
X013300Y059830D02*
D03*
X013300Y059280D02*
D03*
X013170Y062880D02*
D03*
X013170Y062330D02*
D03*
X057390Y063050D02*
D03*
X057390Y062500D02*
D03*
X055660Y063000D02*
D03*
X055660Y062450D02*
D03*
X003280Y064800D02*
D03*
X003280Y064250D02*
D03*
X051770Y063780D02*
D03*
X051770Y064330D02*
D03*
D16*
X054612Y064860D02*
D03*
X052840Y064860D02*
D03*
D17*
X053726Y061996D02*
D03*
D24*
X045500Y054370D02*
D03*
X044500Y054370D02*
D03*
X046500Y054370D02*
D03*
X047500Y054370D02*
D03*
X048500Y054370D02*
D03*
X049500Y054370D02*
D03*
X049500Y055370D02*
D03*
X048500Y055370D02*
D03*
X047500Y055370D02*
D03*
X046500Y055370D02*
D03*
X044500Y055370D02*
D03*
X045500Y055370D02*
D03*
X019475Y054370D02*
D03*
X018475Y054370D02*
D03*
X020475Y054370D02*
D03*
X021475Y054370D02*
D03*
X022475Y054370D02*
D03*
X023475Y054370D02*
D03*
X023475Y055370D02*
D03*
X022475Y055370D02*
D03*
X021475Y055370D02*
D03*
X020475Y055370D02*
D03*
X018475Y055370D02*
D03*
X019475Y055370D02*
D03*
X028150Y055370D02*
D03*
X027150Y055370D02*
D03*
X029150Y055370D02*
D03*
X030150Y055370D02*
D03*
X031150Y055370D02*
D03*
X031150Y054370D02*
D03*
X030150Y054370D02*
D03*
X029150Y054370D02*
D03*
X027150Y054370D02*
D03*
X028150Y054370D02*
D03*
X036825Y054370D02*
D03*
X035825Y054370D02*
D03*
X037825Y054370D02*
D03*
X038825Y054370D02*
D03*
X039825Y054370D02*
D03*
X040825Y054370D02*
D03*
X040825Y055370D02*
D03*
X039825Y055370D02*
D03*
X038825Y055370D02*
D03*
X037825Y055370D02*
D03*
X035825Y055370D02*
D03*
X036825Y055370D02*
D03*
X015120Y059160D02*
D03*
X015120Y060160D02*
D03*
X015120Y061160D02*
D03*
X015120Y063160D02*
D03*
X015120Y062160D02*
D03*
X053410Y059640D02*
D03*
X052410Y059640D02*
D03*
X051410Y059640D02*
D03*
X010800Y055370D02*
D03*
X009800Y055370D02*
D03*
X011800Y055370D02*
D03*
X012800Y055370D02*
D03*
X013800Y055370D02*
D03*
X014800Y055370D02*
D03*
X014800Y054370D02*
D03*
X013800Y054370D02*
D03*
X012800Y054370D02*
D03*
X011800Y054370D02*
D03*
X009800Y054370D02*
D03*
X010800Y054370D02*
D03*
X000980Y062530D02*
D03*
X000980Y061530D02*
D03*
X000980Y063530D02*
D03*
D25*
X043500Y054370D02*
D03*
X043500Y055370D02*
D03*
X017475Y054370D02*
D03*
X017475Y055370D02*
D03*
X026150Y055370D02*
D03*
X026150Y054370D02*
D03*
X034825Y054370D02*
D03*
X034825Y055370D02*
D03*
X054410Y059640D02*
D03*
X008800Y055370D02*
D03*
X008800Y054370D02*
D03*
D26*
X015120Y064160D02*
D03*
X000980Y060530D02*
D03*
D27*
X006120Y057410D02*
D03*
X005805Y056938D02*
D03*
X005490Y057410D02*
D03*
X005175Y056938D02*
D03*
X004860Y057410D02*
D03*
D28*
X004043Y055422D02*
D03*
X006937Y055422D02*
D03*
D29*
X001210Y056183D02*
D03*
X002310Y056183D02*
D03*
X002860Y055230D02*
D03*
X002310Y054277D02*
D03*
X001210Y054277D02*
D03*
X000660Y055230D02*
D03*
X056620Y056153D02*
D03*
X057720Y056153D02*
D03*
X058270Y055200D02*
D03*
X057720Y054247D02*
D03*
X056620Y054247D02*
D03*
X056070Y055200D02*
D03*
X056930Y070244D02*
D03*
X058030Y070244D02*
D03*
X058580Y069291D02*
D03*
X058030Y068339D02*
D03*
X056930Y068339D02*
D03*
X056380Y069291D02*
D03*
X001180Y070063D02*
D03*
X002280Y070063D02*
D03*
X002830Y069110D02*
D03*
X002280Y068157D02*
D03*
X001180Y068157D02*
D03*
X000630Y069110D02*
D03*
D30*
X001760Y055230D02*
D03*
X057170Y055200D02*
D03*
X057480Y069291D02*
D03*
X001730Y069110D02*
D03*
D32*
X044775Y057560D02*
D03*
X044775Y058060D02*
D03*
X044775Y058560D02*
D03*
X044775Y059060D02*
D03*
X046665Y057560D02*
D03*
X046665Y058060D02*
D03*
X046665Y058560D02*
D03*
X046665Y059060D02*
D03*
D33*
X049670Y060610D02*
D03*
X048320Y060610D02*
D03*
X049670Y063366D02*
D03*
X048320Y063366D02*
D03*
X009794Y063423D02*
D03*
X011144Y063423D02*
D03*
X007038Y063423D02*
D03*
X008388Y063423D02*
D03*
D34*
X043500Y068250D02*
D03*
X014630Y068490D02*
D03*
D35*
X045005Y066331D02*
D03*
X045005Y066587D02*
D03*
X045005Y066843D02*
D03*
X045005Y067098D02*
D03*
X045005Y067354D02*
D03*
X045005Y067610D02*
D03*
X045005Y067866D02*
D03*
X045005Y068122D02*
D03*
X045005Y068378D02*
D03*
X045005Y068634D02*
D03*
X045005Y068890D02*
D03*
X045005Y069146D02*
D03*
X045005Y069402D02*
D03*
X045005Y069658D02*
D03*
X045005Y069913D02*
D03*
X045005Y070169D02*
D03*
X041995Y070169D02*
D03*
X041995Y069913D02*
D03*
X041995Y069658D02*
D03*
X041995Y069402D02*
D03*
X041995Y069146D02*
D03*
X041995Y068890D02*
D03*
X041995Y068634D02*
D03*
X041995Y068378D02*
D03*
X041995Y068122D02*
D03*
X041995Y067866D02*
D03*
X041995Y067610D02*
D03*
X041995Y067354D02*
D03*
X041995Y067098D02*
D03*
X041995Y066843D02*
D03*
X041995Y066587D02*
D03*
X041995Y066331D02*
D03*
X016135Y066571D02*
D03*
X016135Y066827D02*
D03*
X016135Y067083D02*
D03*
X016135Y067338D02*
D03*
X016135Y067594D02*
D03*
X016135Y067850D02*
D03*
X016135Y068106D02*
D03*
X016135Y068362D02*
D03*
X016135Y068618D02*
D03*
X016135Y068874D02*
D03*
X016135Y069130D02*
D03*
X016135Y069386D02*
D03*
X016135Y069642D02*
D03*
X016135Y069897D02*
D03*
X016135Y070153D02*
D03*
X016135Y070409D02*
D03*
X013125Y070409D02*
D03*
X013125Y070153D02*
D03*
X013125Y069897D02*
D03*
X013125Y069642D02*
D03*
X013125Y069386D02*
D03*
X013125Y069130D02*
D03*
X013125Y068874D02*
D03*
X013125Y068618D02*
D03*
X013125Y068362D02*
D03*
X013125Y068106D02*
D03*
X013125Y067850D02*
D03*
X013125Y067594D02*
D03*
X013125Y067338D02*
D03*
X013125Y067083D02*
D03*
X013125Y066827D02*
D03*
X013125Y066571D02*
D03*
M02*
