%FSAX24Y24*%
%MOIN*%
G70*
G01*
G75*
G04 Layer_Color=32896*
%ADD10R,0.0300X0.0300*%
%ADD11R,0.0300X0.0300*%
G04:AMPARAMS|DCode=12|XSize=79mil|YSize=44mil|CornerRadius=22mil|HoleSize=0mil|Usage=FLASHONLY|Rotation=90.000|XOffset=0mil|YOffset=0mil|HoleType=Round|Shape=RoundedRectangle|*
%AMROUNDEDRECTD12*
21,1,0.0790,0.0000,0,0,90.0*
21,1,0.0350,0.0440,0,0,90.0*
1,1,0.0440,0.0000,0.0175*
1,1,0.0440,0.0000,-0.0175*
1,1,0.0440,0.0000,-0.0175*
1,1,0.0440,0.0000,0.0175*
%
%ADD12ROUNDEDRECTD12*%
%ADD13R,0.0472X0.2400*%
%ADD14O,0.0709X0.0094*%
%ADD15O,0.0094X0.0709*%
%ADD16O,0.0472X0.1181*%
%ADD17R,0.2323X0.2559*%
%ADD18O,0.0827X0.0138*%
%ADD19C,0.0060*%
%ADD20C,0.0100*%
%ADD21C,0.0094*%
%ADD22C,0.0295*%
%ADD23C,0.0197*%
%ADD24C,0.0700*%
%ADD25R,0.0700X0.0700*%
%ADD26R,0.0700X0.0700*%
%ADD27C,0.0400*%
%ADD28O,0.0600X0.1000*%
%ADD29C,0.0600*%
%ADD30C,0.2500*%
%ADD31C,0.0276*%
%ADD32O,0.0866X0.0236*%
%ADD33R,0.0600X0.1000*%
%ADD34R,0.1618X0.1717*%
%ADD35R,0.0500X0.0120*%
%ADD36C,0.0080*%
%ADD37C,0.0050*%
%ADD38C,0.0098*%
%ADD39C,0.0236*%
%ADD40C,0.0079*%
%ADD41R,0.1000X0.0996*%
%ADD42C,0.0040*%
%ADD43C,0.0030*%
%ADD44R,0.0996X0.1000*%
%ADD45R,0.0996X0.1000*%
G36*
X041645Y068559D02*
X041545Y068559D01*
X041545Y068709D01*
X041645Y068709D01*
X041645Y068559D01*
X041645Y068559D02*
G37*
G36*
X016585Y067007D02*
X016485Y067007D01*
X016485Y067157D01*
X016585Y067157D01*
X016585Y067007D01*
X016585Y067007D02*
G37*
G36*
X045455Y066767D02*
X045355Y066767D01*
X045355Y066917D01*
X045455Y066917D01*
X045455Y066767D01*
X045455Y066767D02*
G37*
G36*
X016585Y069567D02*
X016485Y069567D01*
X016485Y069717D01*
X016585Y069717D01*
X016585Y069567D01*
X016585Y069567D02*
G37*
G36*
X045455Y069327D02*
X045355Y069327D01*
X045355Y069477D01*
X045455Y069477D01*
X045455Y069327D01*
X045455Y069327D02*
G37*
G36*
X012775Y068799D02*
X012675Y068799D01*
X012675Y068949D01*
X012775Y068949D01*
X012775Y068799D01*
X012775Y068799D02*
G37*
D19*
X043620Y066065D02*
G03*
X043380Y066065I-000120J000000D01*
G01*
X014750Y066305D02*
G03*
X014510Y066305I-000120J000000D01*
G01*
X042280Y066065D02*
X044720Y066065D01*
X042280Y070435D02*
X044720Y070435D01*
X013410Y066305D02*
X015850Y066305D01*
X013410Y070675D02*
X015850Y070675D01*
X050410Y058140D02*
X050410Y059640D01*
X055410Y058140D02*
X055410Y059640D01*
X055410Y056640D02*
X055410Y058140D01*
X055410Y055140D02*
X055410Y056640D01*
X055410Y053640D02*
X055410Y055140D01*
X050410Y053640D02*
X050410Y058140D01*
X055160Y059390D02*
X055160Y059640D01*
X055160Y059390D02*
X055410Y059390D01*
X050660Y059390D02*
X050660Y059640D01*
X050410Y059390D02*
X050660Y059390D01*
X054410Y053640D02*
X054660Y053890D01*
X054910Y053640D01*
X053910Y054140D02*
X054160Y054390D01*
X054160Y054640D01*
X053910Y054640D02*
X054160Y054640D01*
X053910Y054640D02*
X053910Y058440D01*
X051910Y058440D02*
X053910Y058440D01*
X051910Y054140D02*
X053910Y054140D01*
X051660Y054390D02*
X051910Y054140D01*
X051660Y054390D02*
X051660Y054640D01*
X051910Y054640D01*
X051910Y058390D01*
X051910Y058440D02*
X053910Y058440D01*
X051910Y054140D02*
X053910Y054140D01*
X050410Y053640D02*
X055410Y053640D01*
D20*
X046500Y065320D02*
X046600Y065420D01*
X046800Y065420D01*
X046900Y065320D01*
X046900Y064920D01*
X046800Y064820D01*
X046600Y064820D01*
X046500Y064920D01*
X046300Y064820D02*
X046100Y064820D01*
X046200Y064820D01*
X046200Y065420D01*
X046300Y065320D01*
X045400Y065420D02*
X045800Y065420D01*
X045800Y065120D01*
X045600Y065220D01*
X045500Y065220D01*
X045400Y065120D01*
X045400Y064920D01*
X045500Y064820D01*
X045700Y064820D01*
X045800Y064920D01*
X006080Y064540D02*
X006180Y064640D01*
X006380Y064640D01*
X006480Y064540D01*
X006480Y064140D01*
X006380Y064040D01*
X006180Y064040D01*
X006080Y064140D01*
X005480Y064040D02*
X005880Y064040D01*
X005480Y064440D01*
X005480Y064540D01*
X005580Y064640D01*
X005780Y064640D01*
X005880Y064540D01*
X005280Y064540D02*
X005180Y064640D01*
X004980Y064640D01*
X004881Y064540D01*
X004881Y064140D01*
X004980Y064040D01*
X005180Y064040D01*
X005280Y064140D01*
X005280Y064540D01*
X016900Y059840D02*
X016900Y060440D01*
X016600Y060440D01*
X016500Y060340D01*
X016500Y060140D01*
X016600Y060040D01*
X016900Y060040D01*
X016700Y060040D02*
X016500Y059840D01*
X015900Y060440D02*
X016300Y060440D01*
X016300Y060140D01*
X016100Y060240D01*
X016000Y060240D01*
X015900Y060140D01*
X015900Y059940D01*
X016000Y059840D01*
X016200Y059840D01*
X016300Y059940D01*
X020080Y061260D02*
X020080Y061860D01*
X019780Y061860D01*
X019680Y061760D01*
X019680Y061560D01*
X019780Y061460D01*
X020080Y061460D01*
X019880Y061460D02*
X019680Y061260D01*
X019180Y061260D02*
X019180Y061860D01*
X019480Y061560D01*
X019080Y061560D01*
X034780Y056710D02*
X034680Y056810D01*
X034480Y056810D01*
X034380Y056710D01*
X034380Y056310D01*
X034480Y056210D01*
X034680Y056210D01*
X034780Y056310D01*
X034780Y056510D01*
X034580Y056510D01*
X034980Y056210D02*
X034980Y056810D01*
X035280Y056810D01*
X035380Y056710D01*
X035380Y056510D01*
X035280Y056410D01*
X034980Y056410D01*
X035580Y056810D02*
X035780Y056810D01*
X035680Y056810D01*
X035680Y056210D01*
X035580Y056210D01*
X035780Y056210D01*
X036379Y056810D02*
X036179Y056810D01*
X036079Y056710D01*
X036079Y056310D01*
X036179Y056210D01*
X036379Y056210D01*
X036479Y056310D01*
X036479Y056710D01*
X036379Y056810D01*
X037079Y056210D02*
X036679Y056210D01*
X037079Y056610D01*
X037079Y056710D01*
X036979Y056810D01*
X036779Y056810D01*
X036679Y056710D01*
X015560Y065600D02*
X015360Y065600D01*
X015460Y065600D01*
X015460Y065000D01*
X015560Y065000D01*
X015360Y065000D01*
X014660Y065500D02*
X014760Y065600D01*
X014960Y065600D01*
X015060Y065500D01*
X015060Y065100D01*
X014960Y065000D01*
X014760Y065000D01*
X014660Y065100D01*
X014060Y065500D02*
X014160Y065600D01*
X014360Y065600D01*
X014460Y065500D01*
X014460Y065400D01*
X014360Y065300D01*
X014160Y065300D01*
X014060Y065200D01*
X014060Y065100D01*
X014160Y065000D01*
X014360Y065000D01*
X014460Y065100D01*
X013861Y065000D02*
X013861Y065600D01*
X013561Y065600D01*
X013461Y065500D01*
X013461Y065300D01*
X013561Y065200D01*
X013861Y065200D01*
X013261Y065000D02*
X013061Y065000D01*
X013161Y065000D01*
X013161Y065600D01*
X013261Y065500D01*
X021520Y061810D02*
X021620Y061910D01*
X021820Y061910D01*
X021920Y061810D01*
X021920Y061410D01*
X021820Y061310D01*
X021620Y061310D01*
X021520Y061410D01*
X020920Y061910D02*
X021120Y061810D01*
X021320Y061610D01*
X021320Y061410D01*
X021220Y061310D01*
X021020Y061310D01*
X020920Y061410D01*
X020920Y061510D01*
X021020Y061610D01*
X021320Y061610D01*
X027050Y063760D02*
X027150Y063860D01*
X027350Y063860D01*
X027450Y063760D01*
X027450Y063360D01*
X027350Y063260D01*
X027150Y063260D01*
X027050Y063360D01*
X026850Y063860D02*
X026450Y063860D01*
X026450Y063760D01*
X026850Y063360D01*
X026850Y063260D01*
X021480Y060150D02*
X021580Y060250D01*
X021780Y060250D01*
X021880Y060150D01*
X021880Y059750D01*
X021780Y059650D01*
X021580Y059650D01*
X021480Y059750D01*
X021280Y059650D02*
X021080Y059650D01*
X021180Y059650D01*
X021180Y060250D01*
X021280Y060150D01*
X021420Y064060D02*
X021520Y064160D01*
X021720Y064160D01*
X021820Y064060D01*
X021820Y063660D01*
X021720Y063560D01*
X021520Y063560D01*
X021420Y063660D01*
X020920Y063560D02*
X020920Y064160D01*
X021220Y063860D01*
X020820Y063860D01*
X003040Y065860D02*
X003140Y065960D01*
X003340Y065960D01*
X003440Y065860D01*
X003440Y065460D01*
X003340Y065360D01*
X003140Y065360D01*
X003040Y065460D01*
X002840Y065360D02*
X002640Y065360D01*
X002740Y065360D01*
X002740Y065960D01*
X002840Y065860D01*
X002340Y065960D02*
X001940Y065960D01*
X001940Y065860D01*
X002340Y065460D01*
X002340Y065360D01*
X058400Y062680D02*
X058500Y062580D01*
X058500Y062380D01*
X058400Y062280D01*
X058000Y062280D01*
X057900Y062380D01*
X057900Y062580D01*
X058000Y062680D01*
X057900Y062880D02*
X057900Y063080D01*
X057900Y062980D01*
X058500Y062980D01*
X058400Y062880D01*
X058400Y063380D02*
X058500Y063480D01*
X058500Y063680D01*
X058400Y063780D01*
X058300Y063780D01*
X058200Y063680D01*
X058100Y063780D01*
X058000Y063780D01*
X057900Y063680D01*
X057900Y063480D01*
X058000Y063380D01*
X058100Y063380D01*
X058200Y063480D01*
X058300Y063380D01*
X058400Y063380D01*
X058200Y063480D02*
X058200Y063680D01*
X056620Y062640D02*
X056720Y062540D01*
X056720Y062340D01*
X056620Y062240D01*
X056220Y062240D01*
X056120Y062340D01*
X056120Y062540D01*
X056220Y062640D01*
X056120Y062840D02*
X056120Y063040D01*
X056120Y062940D01*
X056720Y062940D01*
X056620Y062840D01*
X056220Y063340D02*
X056120Y063440D01*
X056120Y063640D01*
X056220Y063740D01*
X056620Y063740D01*
X056720Y063640D01*
X056720Y063440D01*
X056620Y063340D01*
X056520Y063340D01*
X056420Y063440D01*
X056420Y063740D01*
X050090Y062230D02*
X050090Y061630D01*
X049790Y061630D01*
X049690Y061730D01*
X049690Y062130D01*
X049790Y062230D01*
X050090Y062230D01*
X049490Y061630D02*
X049290Y061630D01*
X049390Y061630D01*
X049390Y062230D01*
X049490Y062130D01*
X048990Y062230D02*
X048590Y062230D01*
X048590Y062130D01*
X048990Y061730D01*
X048990Y061630D01*
X050090Y064990D02*
X050090Y064390D01*
X049790Y064390D01*
X049690Y064490D01*
X049690Y064890D01*
X049790Y064990D01*
X050090Y064990D01*
X049490Y064390D02*
X049290Y064390D01*
X049390Y064390D01*
X049390Y064990D01*
X049490Y064890D01*
X048990Y064890D02*
X048890Y064990D01*
X048690Y064990D01*
X048590Y064890D01*
X048590Y064790D01*
X048690Y064690D01*
X048590Y064590D01*
X048590Y064490D01*
X048690Y064390D01*
X048890Y064390D01*
X048990Y064490D01*
X048990Y064590D01*
X048890Y064690D01*
X048990Y064790D01*
X048990Y064890D01*
X048890Y064690D02*
X048690Y064690D01*
X007190Y058770D02*
X007190Y058170D01*
X007190Y058370D01*
X006790Y058770D01*
X007090Y058470D01*
X006790Y058170D01*
X006590Y058170D02*
X006390Y058170D01*
X006490Y058170D01*
X006490Y058770D01*
X006590Y058670D01*
X055840Y059480D02*
X055840Y058880D01*
X055840Y059080D01*
X056240Y059480D01*
X055940Y059180D01*
X056240Y058880D01*
X056840Y058880D02*
X056440Y058880D01*
X056840Y059280D01*
X056840Y059380D01*
X056740Y059480D01*
X056540Y059480D01*
X056440Y059380D01*
X016960Y056190D02*
X016960Y056790D01*
X017260Y056790D01*
X017360Y056690D01*
X017360Y056490D01*
X017260Y056390D01*
X016960Y056390D01*
X017560Y056790D02*
X017760Y056790D01*
X017660Y056790D01*
X017660Y056190D01*
X017560Y056190D01*
X017760Y056190D01*
X018460Y056690D02*
X018360Y056790D01*
X018160Y056790D01*
X018060Y056690D01*
X018060Y056290D01*
X018160Y056190D01*
X018360Y056190D01*
X018460Y056290D01*
X019259Y056190D02*
X019259Y056590D01*
X019459Y056790D01*
X019659Y056590D01*
X019659Y056190D01*
X019659Y056490D01*
X019259Y056490D01*
X019859Y056190D02*
X019859Y056590D01*
X020159Y056590D01*
X020259Y056490D01*
X020259Y056190D01*
X020559Y056590D02*
X020759Y056590D01*
X020859Y056490D01*
X020859Y056190D01*
X020559Y056190D01*
X020459Y056290D01*
X020559Y056390D01*
X020859Y056390D01*
X021059Y056190D02*
X021259Y056190D01*
X021159Y056190D01*
X021159Y056790D01*
X021059Y056790D01*
X021658Y056190D02*
X021858Y056190D01*
X021958Y056290D01*
X021958Y056490D01*
X021858Y056590D01*
X021658Y056590D01*
X021559Y056490D01*
X021559Y056290D01*
X021658Y056190D01*
X022358Y055990D02*
X022458Y055990D01*
X022558Y056090D01*
X022558Y056590D01*
X022258Y056590D01*
X022158Y056490D01*
X022158Y056290D01*
X022258Y056190D01*
X022558Y056190D01*
X022758Y056190D02*
X022958Y056190D01*
X022858Y056190D01*
X022858Y056790D01*
X022758Y056690D01*
X019510Y065250D02*
X019510Y065850D01*
X019210Y065850D01*
X019110Y065750D01*
X019110Y065550D01*
X019210Y065450D01*
X019510Y065450D01*
X019310Y065450D02*
X019110Y065250D01*
X018910Y065250D02*
X018710Y065250D01*
X018810Y065250D01*
X018810Y065850D01*
X018910Y065750D01*
X049600Y065930D02*
X049600Y066530D01*
X049300Y066530D01*
X049200Y066430D01*
X049200Y066230D01*
X049300Y066130D01*
X049600Y066130D01*
X049400Y066130D02*
X049200Y065930D01*
X049000Y066530D02*
X048600Y066530D01*
X048600Y066430D01*
X049000Y066030D01*
X049000Y065930D01*
X019815Y063609D02*
X019815Y064209D01*
X019515Y064209D01*
X019415Y064109D01*
X019415Y063909D01*
X019515Y063809D01*
X019815Y063809D01*
X019615Y063809D02*
X019415Y063609D01*
X019215Y064109D02*
X019115Y064209D01*
X018915Y064209D01*
X018815Y064109D01*
X018815Y064009D01*
X018915Y063909D01*
X018815Y063809D01*
X018815Y063709D01*
X018915Y063609D01*
X019115Y063609D01*
X019215Y063709D01*
X019215Y063809D01*
X019115Y063909D01*
X019215Y064009D01*
X019215Y064109D01*
X019115Y063909D02*
X018915Y063909D01*
X011163Y061779D02*
X011163Y062379D01*
X010863Y062379D01*
X010764Y062279D01*
X010764Y062079D01*
X010863Y061979D01*
X011163Y061979D01*
X010963Y061979D02*
X010764Y061779D01*
X010564Y061779D02*
X010364Y061779D01*
X010464Y061779D01*
X010464Y062379D01*
X010564Y062279D01*
X010064Y062279D02*
X009964Y062379D01*
X009764Y062379D01*
X009664Y062279D01*
X009664Y061879D01*
X009764Y061779D01*
X009964Y061779D01*
X010064Y061879D01*
X010064Y062279D01*
X008297Y061820D02*
X008297Y062420D01*
X007997Y062420D01*
X007897Y062320D01*
X007897Y062120D01*
X007997Y062020D01*
X008297Y062020D01*
X008097Y062020D02*
X007897Y061820D01*
X007697Y061820D02*
X007497Y061820D01*
X007597Y061820D01*
X007597Y062420D01*
X007697Y062320D01*
X007197Y061820D02*
X006997Y061820D01*
X007097Y061820D01*
X007097Y062420D01*
X007197Y062320D01*
X017880Y070370D02*
X017880Y069870D01*
X017780Y069770D01*
X017580Y069770D01*
X017480Y069870D01*
X017480Y070370D01*
X017280Y069770D02*
X017080Y069770D01*
X017180Y069770D01*
X017180Y070370D01*
X017280Y070270D01*
X046520Y070270D02*
X046520Y069770D01*
X046420Y069670D01*
X046220Y069670D01*
X046120Y069770D01*
X046120Y070270D01*
X045520Y069670D02*
X045920Y069670D01*
X045520Y070070D01*
X045520Y070170D01*
X045620Y070270D01*
X045820Y070270D01*
X045920Y070170D01*
X053510Y066490D02*
X053510Y065990D01*
X053410Y065890D01*
X053210Y065890D01*
X053110Y065990D01*
X053110Y066490D01*
X052610Y065890D02*
X052610Y066490D01*
X052910Y066190D01*
X052510Y066190D01*
X047120Y060310D02*
X047120Y059810D01*
X047020Y059710D01*
X046820Y059710D01*
X046720Y059810D01*
X046720Y060310D01*
X046520Y059810D02*
X046420Y059710D01*
X046220Y059710D01*
X046120Y059810D01*
X046120Y060210D01*
X046220Y060310D01*
X046420Y060310D01*
X046520Y060210D01*
X046520Y060110D01*
X046420Y060010D01*
X046120Y060010D01*
X026130Y056720D02*
X026030Y056820D01*
X025830Y056820D01*
X025730Y056720D01*
X025730Y056320D01*
X025830Y056220D01*
X026030Y056220D01*
X026130Y056320D01*
X026130Y056520D01*
X025930Y056520D01*
X026330Y056220D02*
X026330Y056820D01*
X026630Y056820D01*
X026730Y056720D01*
X026730Y056520D01*
X026630Y056420D01*
X026330Y056420D01*
X026930Y056820D02*
X027130Y056820D01*
X027030Y056820D01*
X027030Y056220D01*
X026930Y056220D01*
X027130Y056220D01*
X027729Y056820D02*
X027529Y056820D01*
X027429Y056720D01*
X027429Y056320D01*
X027529Y056220D01*
X027729Y056220D01*
X027829Y056320D01*
X027829Y056720D01*
X027729Y056820D01*
X028029Y056220D02*
X028229Y056220D01*
X028129Y056220D01*
X028129Y056820D01*
X028029Y056720D01*
X011560Y065040D02*
X011560Y064440D01*
X011260Y064440D01*
X011160Y064540D01*
X011160Y064940D01*
X011260Y065040D01*
X011560Y065040D01*
X010960Y064440D02*
X010760Y064440D01*
X010860Y064440D01*
X010860Y065040D01*
X010960Y064940D01*
X010460Y064540D02*
X010360Y064440D01*
X010160Y064440D01*
X010060Y064540D01*
X010060Y064940D01*
X010160Y065040D01*
X010360Y065040D01*
X010460Y064940D01*
X010460Y064840D01*
X010360Y064740D01*
X010060Y064740D01*
X008810Y065040D02*
X008810Y064440D01*
X008510Y064440D01*
X008410Y064540D01*
X008410Y064940D01*
X008510Y065040D01*
X008810Y065040D01*
X007810Y064440D02*
X008210Y064440D01*
X007810Y064840D01*
X007810Y064940D01*
X007910Y065040D01*
X008110Y065040D01*
X008210Y064940D01*
X007610Y064940D02*
X007510Y065040D01*
X007310Y065040D01*
X007211Y064940D01*
X007211Y064540D01*
X007310Y064440D01*
X007510Y064440D01*
X007610Y064540D01*
X007610Y064940D01*
X043470Y056750D02*
X043370Y056850D01*
X043170Y056850D01*
X043070Y056750D01*
X043070Y056350D01*
X043170Y056250D01*
X043370Y056250D01*
X043470Y056350D01*
X043470Y056550D01*
X043270Y056550D01*
X043670Y056250D02*
X043670Y056850D01*
X043970Y056850D01*
X044070Y056750D01*
X044070Y056550D01*
X043970Y056450D01*
X043670Y056450D01*
X044270Y056850D02*
X044470Y056850D01*
X044370Y056850D01*
X044370Y056250D01*
X044270Y056250D01*
X044470Y056250D01*
X045069Y056850D02*
X044869Y056850D01*
X044769Y056750D01*
X044769Y056350D01*
X044869Y056250D01*
X045069Y056250D01*
X045169Y056350D01*
X045169Y056750D01*
X045069Y056850D01*
X045369Y056750D02*
X045469Y056850D01*
X045669Y056850D01*
X045769Y056750D01*
X045769Y056650D01*
X045669Y056550D01*
X045569Y056550D01*
X045669Y056550D01*
X045769Y056450D01*
X045769Y056350D01*
X045669Y056250D01*
X045469Y056250D01*
X045369Y056350D01*
X008760Y056710D02*
X008660Y056810D01*
X008460Y056810D01*
X008360Y056710D01*
X008360Y056310D01*
X008460Y056210D01*
X008660Y056210D01*
X008760Y056310D01*
X008760Y056510D01*
X008560Y056510D01*
X008960Y056210D02*
X008960Y056810D01*
X009260Y056810D01*
X009360Y056710D01*
X009360Y056510D01*
X009260Y056410D01*
X008960Y056410D01*
X009560Y056810D02*
X009760Y056810D01*
X009660Y056810D01*
X009660Y056210D01*
X009560Y056210D01*
X009760Y056210D01*
X010359Y056810D02*
X010159Y056810D01*
X010059Y056710D01*
X010059Y056310D01*
X010159Y056210D01*
X010359Y056210D01*
X010459Y056310D01*
X010459Y056710D01*
X010359Y056810D01*
X010959Y056210D02*
X010959Y056810D01*
X010659Y056510D01*
X011059Y056510D01*
X051520Y065390D02*
X051620Y065490D01*
X051820Y065490D01*
X051920Y065390D01*
X051920Y064990D01*
X051820Y064890D01*
X051620Y064890D01*
X051520Y064990D01*
X051320Y064890D02*
X051120Y064890D01*
X051220Y064890D01*
X051220Y065490D01*
X051320Y065390D01*
X050820Y065390D02*
X050720Y065490D01*
X050520Y065490D01*
X050420Y065390D01*
X050420Y065290D01*
X050520Y065190D01*
X050620Y065190D01*
X050520Y065190D01*
X050420Y065090D01*
X050420Y064990D01*
X050520Y064890D01*
X050720Y064890D01*
X050820Y064990D01*
X013330Y063440D02*
X013330Y064040D01*
X013030Y064040D01*
X012930Y063940D01*
X012930Y063740D01*
X013030Y063640D01*
X013330Y063640D01*
X013130Y063640D02*
X012930Y063440D01*
X012730Y063440D02*
X012530Y063440D01*
X012630Y063440D01*
X012630Y064040D01*
X012730Y063940D01*
X012230Y063940D02*
X012130Y064040D01*
X011930Y064040D01*
X011830Y063940D01*
X011830Y063840D01*
X011930Y063740D01*
X012030Y063740D01*
X011930Y063740D01*
X011830Y063640D01*
X011830Y063540D01*
X011930Y063440D01*
X012130Y063440D01*
X012230Y063540D01*
X013450Y060390D02*
X013450Y060990D01*
X013150Y060990D01*
X013050Y060890D01*
X013050Y060690D01*
X013150Y060590D01*
X013450Y060590D01*
X013250Y060590D02*
X013050Y060390D01*
X012850Y060390D02*
X012650Y060390D01*
X012750Y060390D01*
X012750Y060990D01*
X012850Y060890D01*
X011950Y060990D02*
X012150Y060890D01*
X012350Y060690D01*
X012350Y060490D01*
X012250Y060390D01*
X012050Y060390D01*
X011950Y060490D01*
X011950Y060590D01*
X012050Y060690D01*
X012350Y060690D01*
D36*
X043000Y053870D02*
X043000Y054870D01*
X043000Y053870D02*
X050000Y053870D01*
X046000Y053870D02*
X046000Y054870D01*
X047000Y053870D02*
X047000Y054870D01*
X047000Y053870D02*
X047000Y054870D01*
X048000Y053870D02*
X048000Y054870D01*
X048000Y053870D02*
X048000Y054870D01*
X049000Y053870D02*
X049000Y054870D01*
X049000Y053870D02*
X049000Y054870D01*
X050000Y053870D02*
X050000Y054870D01*
X050000Y053870D02*
X050000Y054870D01*
X045000Y053870D02*
X045000Y054870D01*
X044000Y053870D02*
X044000Y054870D01*
X044000Y054870D02*
X044000Y055870D01*
X045000Y054870D02*
X045000Y055870D01*
X050000Y054870D02*
X050000Y055870D01*
X050000Y054870D02*
X050000Y055870D01*
X049000Y054870D02*
X049000Y055870D01*
X049000Y054870D02*
X049000Y055870D01*
X048000Y054870D02*
X048000Y055870D01*
X048000Y054870D02*
X048000Y055870D01*
X047000Y054870D02*
X047000Y055870D01*
X047000Y054870D02*
X047000Y055870D01*
X043000Y055870D02*
X050000Y055870D01*
X046000Y054870D02*
X046000Y055870D01*
X043000Y054870D02*
X043000Y055870D01*
X016975Y053870D02*
X016975Y054870D01*
X016975Y053870D02*
X023975Y053870D01*
X019975Y053870D02*
X019975Y054870D01*
X020975Y053870D02*
X020975Y054870D01*
X020975Y053870D02*
X020975Y054870D01*
X021975Y053870D02*
X021975Y054870D01*
X021975Y053870D02*
X021975Y054870D01*
X022975Y053870D02*
X022975Y054870D01*
X022975Y053870D02*
X022975Y054870D01*
X023975Y053870D02*
X023975Y054870D01*
X023975Y053870D02*
X023975Y054870D01*
X018975Y053870D02*
X018975Y054870D01*
X017975Y053870D02*
X017975Y054870D01*
X017975Y054870D02*
X017975Y055870D01*
X018975Y054870D02*
X018975Y055870D01*
X023975Y054870D02*
X023975Y055870D01*
X023975Y054870D02*
X023975Y055870D01*
X022975Y054870D02*
X022975Y055870D01*
X022975Y054870D02*
X022975Y055870D01*
X021975Y054870D02*
X021975Y055870D01*
X021975Y054870D02*
X021975Y055870D01*
X020975Y054870D02*
X020975Y055870D01*
X020975Y054870D02*
X020975Y055870D01*
X016975Y055870D02*
X023975Y055870D01*
X019975Y054870D02*
X019975Y055870D01*
X016975Y054870D02*
X016975Y055870D01*
X025650Y054870D02*
X025650Y055870D01*
X028650Y054870D02*
X028650Y055870D01*
X025650Y055870D02*
X031650Y055870D01*
X029650Y054870D02*
X029650Y055870D01*
X029650Y054870D02*
X029650Y055870D01*
X030650Y054870D02*
X030650Y055870D01*
X030650Y054870D02*
X030650Y055870D01*
X031650Y054870D02*
X031650Y055870D01*
X031650Y054870D02*
X031650Y055870D01*
X027650Y054870D02*
X027650Y055870D01*
X026650Y054870D02*
X026650Y055870D01*
X026650Y053870D02*
X026650Y054870D01*
X027650Y053870D02*
X027650Y054870D01*
X031650Y053870D02*
X031650Y054870D01*
X031650Y053870D02*
X031650Y054870D01*
X030650Y053870D02*
X030650Y054870D01*
X030650Y053870D02*
X030650Y054870D01*
X029650Y053870D02*
X029650Y054870D01*
X029650Y053870D02*
X029650Y054870D01*
X028650Y053870D02*
X028650Y054870D01*
X025650Y053870D02*
X031650Y053870D01*
X025650Y053870D02*
X025650Y054870D01*
X034325Y053870D02*
X034325Y054870D01*
X037325Y053870D02*
X037325Y054870D01*
X034325Y053870D02*
X041325Y053870D01*
X038325Y053870D02*
X038325Y054870D01*
X038325Y053870D02*
X038325Y054870D01*
X039325Y053870D02*
X039325Y054870D01*
X039325Y053870D02*
X039325Y054870D01*
X040325Y053870D02*
X040325Y054870D01*
X040325Y053870D02*
X040325Y054870D01*
X041325Y053870D02*
X041325Y054870D01*
X041325Y053870D02*
X041325Y054870D01*
X036325Y053870D02*
X036325Y054870D01*
X035325Y053870D02*
X035325Y054870D01*
X035325Y055870D01*
X036325Y054870D02*
X036325Y055870D01*
X041325Y054870D02*
X041325Y055870D01*
X041325Y054870D02*
X041325Y055870D01*
X040325Y054870D02*
X040325Y055870D01*
X040325Y054870D02*
X040325Y055870D01*
X039325Y054870D02*
X039325Y055870D01*
X039325Y054870D02*
X039325Y055870D01*
X038325Y054870D02*
X038325Y055870D01*
X038325Y054870D02*
X038325Y055870D01*
X037325Y054870D02*
X037325Y055870D01*
X034325Y055870D02*
X041325Y055870D01*
X034325Y054870D02*
X034325Y055870D01*
X014620Y063660D02*
X015620Y063660D01*
X014620Y062660D02*
X015620Y062660D01*
X014620Y058660D02*
X015620Y058660D01*
X014620Y058660D02*
X015620Y058660D01*
X014620Y059660D02*
X015620Y059660D01*
X014620Y059660D02*
X015620Y059660D01*
X014620Y060660D02*
X015620Y060660D01*
X014620Y060660D02*
X015620Y060660D01*
X015620Y064660D02*
X015620Y058660D01*
X014620Y061660D02*
X015620Y061660D01*
X014620Y058660D02*
X014620Y064660D01*
X015620Y064660D01*
X014620Y058660D02*
X015620Y058660D01*
X008300Y054870D02*
X008300Y055870D01*
X015300Y055870D01*
X011300Y054870D02*
X011300Y055870D01*
X012300Y054870D02*
X012300Y055870D01*
X012300Y054870D02*
X012300Y055870D01*
X013300Y054870D02*
X013300Y055870D01*
X013300Y054870D02*
X013300Y055870D01*
X014300Y054870D02*
X014300Y055870D01*
X014300Y054870D02*
X014300Y055870D01*
X015300Y054870D02*
X015300Y055870D01*
X015300Y054870D02*
X015300Y055870D01*
X010300Y054870D02*
X010300Y055870D01*
X009300Y054870D02*
X009300Y055870D01*
X009300Y053870D02*
X009300Y054870D01*
X010300Y053870D02*
X010300Y054870D01*
X015300Y053870D02*
X015300Y054870D01*
X015300Y053870D02*
X015300Y054870D01*
X014300Y053870D02*
X014300Y054870D01*
X014300Y053870D02*
X014300Y054870D01*
X013300Y053870D02*
X013300Y054870D01*
X013300Y053870D02*
X013300Y054870D01*
X012300Y053870D02*
X012300Y054870D01*
X012300Y053870D02*
X012300Y054870D01*
X008300Y053870D02*
X015300Y053870D01*
X011300Y053870D02*
X011300Y054870D01*
X008300Y053870D02*
X008300Y054870D01*
D37*
X027550Y059760D02*
X027550Y060770D01*
X027090Y059760D02*
X027090Y060770D01*
X027550Y060770D01*
X027090Y059760D02*
X027550Y059760D01*
X021900Y062770D02*
X021900Y063230D01*
X020890Y062770D02*
X020890Y063230D01*
X020890Y062770D02*
X021900Y062770D01*
X020890Y063230D02*
X021900Y063230D01*
X018850Y064620D02*
X018850Y065080D01*
X019860Y064620D02*
X019860Y065080D01*
X018850Y065080D02*
X019860Y065080D01*
X018850Y064620D02*
X019860Y064620D01*
X030530Y058340D02*
X030530Y059350D01*
X030990Y058340D02*
X030990Y059350D01*
X030530Y058340D02*
X030990Y058340D01*
X030530Y059350D02*
X030990Y059350D01*
X045790Y063490D02*
X045790Y064500D01*
X045330Y063490D02*
X045330Y064500D01*
X045790Y064500D01*
X045330Y063490D02*
X045790Y063490D01*
X019010Y060940D02*
X020020Y060940D01*
X019010Y060480D02*
X020020Y060480D01*
X019010Y060480D02*
X019010Y060940D01*
X020020Y060480D02*
X020020Y060940D01*
X015960Y059060D02*
X016970Y059060D01*
X015960Y059520D02*
X016970Y059520D01*
X016970Y059060D02*
X016970Y059520D01*
X015960Y059060D02*
X015960Y059520D01*
X030270Y063410D02*
X030270Y064420D01*
X029810Y063410D02*
X029810Y064420D01*
X030270Y064420D01*
X029810Y063410D02*
X030270Y063410D01*
X027520Y061930D02*
X027520Y062940D01*
X027060Y061930D02*
X027060Y062940D01*
X027520Y062940D01*
X027060Y061930D02*
X027520Y061930D01*
X020980Y060990D02*
X021990Y060990D01*
X020980Y060530D02*
X021990Y060530D01*
X020980Y060530D02*
X020980Y060990D01*
X021990Y060530D02*
X021990Y060990D01*
X028850Y058310D02*
X028850Y059320D01*
X028390Y058310D02*
X028390Y059320D01*
X028850Y059320D01*
X028390Y058310D02*
X028850Y058310D01*
X004810Y063710D02*
X005820Y063710D01*
X004810Y063250D02*
X005820Y063250D01*
X004810Y063250D02*
X004810Y063710D01*
X005820Y063250D02*
X005820Y063710D01*
X032010Y061930D02*
X032010Y062390D01*
X033020Y061930D02*
X033020Y062390D01*
X032010Y062390D02*
X033020Y062390D01*
X032010Y061930D02*
X033020Y061930D01*
X052440Y065460D02*
X052540Y065560D01*
X052440Y060610D02*
X054990Y060610D01*
X052440Y060610D02*
X052440Y065560D01*
X054990Y065560D01*
X054990Y060610D02*
X054990Y065560D01*
X052702Y063984D02*
X052702Y064210D01*
X052978Y063984D02*
X052978Y064210D01*
X052466Y063984D02*
X054986Y063984D01*
X054749Y063984D02*
X054749Y064210D01*
X054474Y063984D02*
X054474Y064210D01*
X053864Y063984D02*
X053864Y064378D01*
X053588Y063984D02*
X053588Y064378D01*
X053864Y064378D01*
X052702Y063984D02*
X052702Y064210D01*
X052978Y063984D02*
X052978Y064210D01*
X048530Y065140D02*
X048530Y065600D01*
X049540Y065140D02*
X049540Y065600D01*
X048530Y065600D02*
X049540Y065600D01*
X048530Y065140D02*
X049540Y065140D01*
X008370Y061040D02*
X008370Y061500D01*
X007360Y061040D02*
X007360Y061500D01*
X007360Y061040D02*
X008370Y061040D01*
X007360Y061500D02*
X008370Y061500D01*
X019890Y062820D02*
X019890Y063280D01*
X018880Y062820D02*
X018880Y063280D01*
X018880Y062820D02*
X019890Y062820D01*
X018880Y063280D02*
X019890Y063280D01*
X011240Y060990D02*
X011240Y061450D01*
X010230Y060990D02*
X010230Y061450D01*
X010230Y060990D02*
X011240Y060990D01*
X010230Y061450D02*
X011240Y061450D01*
X021010Y058860D02*
X021010Y059320D01*
X022020Y058860D02*
X022020Y059320D01*
X021010Y059320D02*
X022020Y059320D01*
X021010Y058860D02*
X022020Y058860D01*
X013070Y059050D02*
X013530Y059050D01*
X013070Y060060D02*
X013530Y060060D01*
X013070Y059050D02*
X013070Y060060D01*
X013530Y059050D02*
X013530Y060060D01*
X012940Y062100D02*
X013400Y062100D01*
X012940Y063110D02*
X013400Y063110D01*
X012940Y062100D02*
X012940Y063110D01*
X013400Y062100D02*
X013400Y063110D01*
X057160Y062270D02*
X057620Y062270D01*
X057160Y063280D02*
X057620Y063280D01*
X057160Y062270D02*
X057160Y063280D01*
X057620Y062270D02*
X057620Y063280D01*
X055430Y062220D02*
X055890Y062220D01*
X055430Y063230D02*
X055890Y063230D01*
X055430Y062220D02*
X055430Y063230D01*
X055890Y062220D02*
X055890Y063230D01*
X003050Y064020D02*
X003510Y064020D01*
X003050Y065030D02*
X003510Y065030D01*
X003050Y064020D02*
X003050Y065030D01*
X003510Y064020D02*
X003510Y065030D01*
X051540Y064560D02*
X052000Y064560D01*
X051540Y063550D02*
X052000Y063550D01*
X052000Y064560D01*
X051540Y063550D02*
X051540Y064560D01*
D38*
X044824Y057225D02*
G03*
X044824Y057225I-000049J000000D01*
G01*
D40*
X045366Y057326D02*
X045366Y059294D01*
X046074Y057326D02*
X046074Y059294D01*
X045366Y057326D02*
X046074Y057326D01*
X045366Y059294D02*
X046074Y059294D01*
D41*
X015120Y064162D02*
D03*
D42*
X049340Y060610D02*
G03*
X049340Y060610I-000350J000000D01*
G01*
X049340Y063366D02*
G03*
X049340Y063366I-000350J000000D01*
G01*
X010814Y063423D02*
G03*
X010814Y063423I-000350J000000D01*
G01*
X008058Y063423D02*
G03*
X008058Y063423I-000350J000000D01*
G01*
X047820Y059910D02*
X047820Y061310D01*
X050170Y059910D02*
X050170Y061310D01*
X047820Y061310D02*
X048570Y061310D01*
X047820Y059910D02*
X048570Y059910D01*
X049420Y059910D02*
X050170Y059910D01*
X049420Y061310D02*
X050170Y061310D01*
X049090Y060610D02*
X049190Y060610D01*
X049090Y060610D02*
X049090Y060860D01*
X048840Y060610D02*
X049090Y060860D01*
X048840Y060610D02*
X048840Y060860D01*
X049090Y060610D02*
X049190Y060610D01*
X049090Y060360D02*
X049090Y060610D01*
X048840Y060610D02*
X049090Y060360D01*
X048840Y060360D02*
X048840Y060610D01*
X048740Y060610D02*
X048840Y060610D01*
X047820Y062666D02*
X047820Y064066D01*
X050170Y062666D02*
X050170Y064066D01*
X047820Y064066D02*
X048570Y064066D01*
X047820Y062666D02*
X048570Y062666D01*
X049420Y062666D02*
X050170Y062666D01*
X049420Y064066D02*
X050170Y064066D01*
X049090Y063366D02*
X049190Y063366D01*
X049090Y063366D02*
X049090Y063616D01*
X048840Y063366D02*
X049090Y063616D01*
X048840Y063366D02*
X048840Y063616D01*
X049090Y063366D02*
X049190Y063366D01*
X049090Y063116D02*
X049090Y063366D01*
X048840Y063366D02*
X049090Y063116D01*
X048840Y063116D02*
X048840Y063366D01*
X048740Y063366D02*
X048840Y063366D01*
X004053Y057548D02*
X004398Y057548D01*
X004398Y057676D01*
X004181Y057676D02*
X004398Y057676D01*
X004053Y057528D02*
X004181Y057676D01*
X004181Y057853D01*
X004053Y057853D02*
X004181Y057853D01*
X004811Y057725D02*
X004900Y057725D01*
X004811Y057548D02*
X004811Y057725D01*
X004900Y057548D02*
X004900Y057725D01*
X005441Y057725D02*
X005529Y057725D01*
X005441Y057548D02*
X005441Y057725D01*
X005529Y057548D02*
X005529Y057725D01*
X006071Y057725D02*
X006159Y057725D01*
X006071Y057548D02*
X006071Y057725D01*
X006159Y057548D02*
X006159Y057725D01*
X005106Y057440D02*
X005155Y057548D01*
X005037Y057548D02*
X005106Y057440D01*
X005835Y057548D02*
X005884Y057449D01*
X005943Y057548D01*
X004053Y057548D02*
X006937Y057548D01*
X006592Y057548D02*
X006937Y057548D01*
X006592Y057548D02*
X006592Y057676D01*
X006809Y057676D01*
X006937Y057528D01*
X006809Y057676D02*
X006809Y057853D01*
X006937Y057853D01*
X004053Y053926D02*
X004053Y057853D01*
X004053Y053926D02*
X006917Y053926D01*
X006937Y053945D02*
X006937Y057853D01*
X006917Y053926D02*
X006937Y053945D01*
X006277Y054349D02*
X006376Y055432D01*
X006002Y054349D02*
X006277Y054349D01*
X005903Y055432D02*
X006002Y054349D01*
X006268Y055432D02*
X006376Y055432D01*
X006189Y054516D02*
X006268Y055432D01*
X006100Y054516D02*
X006189Y054516D01*
X006012Y055432D02*
X006090Y054516D01*
X006090Y054772D02*
X006199Y054772D01*
X005903Y055432D02*
X006012Y055432D01*
X004604Y055432D02*
X004703Y054349D01*
X004978Y054349D01*
X005077Y055432D01*
X004604Y055432D02*
X004713Y055432D01*
X004791Y054516D01*
X004880Y054516D01*
X004890Y054516D02*
X004968Y055432D01*
X004781Y054772D02*
X004890Y054772D01*
X004968Y055432D02*
X005077Y055432D01*
X005756Y055766D02*
X005864Y054339D01*
X005490Y055766D02*
X005756Y055766D01*
X005766Y054339D02*
X005864Y054339D01*
X005697Y055225D02*
X005766Y054339D01*
X005648Y055304D02*
X005697Y055225D01*
X005648Y055304D02*
X005648Y055530D01*
X005490Y055530D02*
X005648Y055530D01*
X005490Y055225D02*
X005697Y055225D01*
X005116Y054339D02*
X005224Y055766D01*
X005490Y055766D01*
X005116Y054339D02*
X005214Y054339D01*
X005283Y055225D01*
X005333Y055304D01*
X005333Y055530D01*
X005490Y055530D01*
X005283Y055225D02*
X005490Y055225D01*
X010214Y063423D02*
X010314Y063423D01*
X010314Y063173D02*
X010314Y063423D01*
X010564Y063173D01*
X010564Y063423D01*
X010664Y063423D01*
X010314Y063423D02*
X010314Y063673D01*
X010314Y063423D02*
X010564Y063673D01*
X010564Y063423D02*
X010564Y063673D01*
X010564Y063423D02*
X010664Y063423D01*
X010894Y064123D02*
X011644Y064123D01*
X010894Y062723D02*
X011644Y062723D01*
X009294Y062723D02*
X010044Y062723D01*
X009294Y064123D02*
X010044Y064123D01*
X011644Y062723D02*
X011644Y064123D01*
X009294Y062723D02*
X009294Y064123D01*
X007458Y063423D02*
X007558Y063423D01*
X007558Y063173D02*
X007558Y063423D01*
X007808Y063173D01*
X007808Y063423D01*
X007908Y063423D01*
X007558Y063423D02*
X007558Y063673D01*
X007558Y063423D02*
X007808Y063673D01*
X007808Y063423D02*
X007808Y063673D01*
X007808Y063423D02*
X007908Y063423D01*
X008138Y064123D02*
X008888Y064123D01*
X008138Y062723D02*
X008888Y062723D01*
X006538Y062723D02*
X007288Y062723D01*
X006538Y064123D02*
X007288Y064123D01*
X008888Y062723D02*
X008888Y064123D01*
X006538Y062723D02*
X006538Y064123D01*
D43*
X041895Y065344D02*
X042228Y065677D01*
X041895Y065677D02*
X042228Y065344D01*
X041895Y065511D02*
X042228Y065511D01*
X042062Y065677D02*
X042062Y065344D01*
X013025Y065584D02*
X013358Y065917D01*
X013025Y065917D02*
X013358Y065584D01*
X013025Y065751D02*
X013358Y065751D01*
X013192Y065917D02*
X013192Y065584D01*
D44*
X043498Y054370D02*
D03*
X043498Y055370D02*
D03*
X017473Y054370D02*
D03*
X017473Y055370D02*
D03*
X026148Y055371D02*
D03*
X026148Y054371D02*
D03*
X034823Y055370D02*
D03*
X008798Y055370D02*
D03*
X008798Y054370D02*
D03*
D45*
X034823Y054370D02*
D03*
M02*
